<?xml version="1.0" encoding="UTF-8" standalone="no"?>
<!-- Created with Inkscape (http://www.inkscape.org/) -->

<svg
   xmlns:dc="http://purl.org/dc/elements/1.1/"
   xmlns:cc="http://creativecommons.org/ns#"
   xmlns:rdf="http://www.w3.org/1999/02/22-rdf-syntax-ns#"
   xmlns:svg="http://www.w3.org/2000/svg"
   xmlns="http://www.w3.org/2000/svg"
   xmlns:sodipodi="http://sodipodi.sourceforge.net/DTD/sodipodi-0.dtd"
   xmlns:inkscape="http://www.inkscape.org/namespaces/inkscape"
   version="1.1"
   id="svg2"
   width="841.60004"
   height="466.56"
   viewBox="0 0 841.60005 466.56"
   sodipodi:docname="logo_affils.svg"
   inkscape:export-filename="/home/pratik/git/knots/knots_texts/logo_affils.png"
   inkscape:export-xdpi="300"
   inkscape:export-ydpi="300"
   inkscape:version="0.92.3 (2405546, 2018-03-11)">
  <metadata
     id="metadata8">
    <rdf:RDF>
      <cc:Work
         rdf:about="">
        <dc:format>image/svg+xml</dc:format>
        <dc:type
           rdf:resource="http://purl.org/dc/dcmitype/StillImage" />
        <dc:title></dc:title>
      </cc:Work>
    </rdf:RDF>
  </metadata>
  <defs
     id="defs6" />
  <sodipodi:namedview
     pagecolor="#ffffff"
     bordercolor="#666666"
     borderopacity="1"
     objecttolerance="10"
     gridtolerance="10"
     guidetolerance="10"
     inkscape:pageopacity="0"
     inkscape:pageshadow="2"
     inkscape:window-width="1920"
     inkscape:window-height="1025"
     id="namedview4"
     showgrid="false"
     inkscape:measure-start="-556.442,283.364"
     inkscape:measure-end="284.681,282.704"
     inkscape:zoom="0.71535151"
     inkscape:cx="473.77279"
     inkscape:cy="144.79955"
     inkscape:window-x="0"
     inkscape:window-y="27"
     inkscape:window-maximized="1"
     inkscape:current-layer="svg2" />
  <rect
     style="fill:#ffffff;fill-opacity:1;stroke:none;stroke-width:0.67762572;stroke-miterlimit:4;stroke-dasharray:1.35525143, 2.71050286000000007;stroke-dashoffset:0"
     id="rect195"
     width="1000.9066"
     height="563.35938"
     x="-85.272766"
     y="-33.893265" />
  <g
     transform="matrix(5.214951,0,0,-5.214951,14.027306,465.13151)"
     inkscape:label="ink_ext_XXXXXX"
     id="g55">
    <g
       transform="scale(0.1)"
       id="g57">
      <path
         inkscape:connector-curvature="0"
         id="path59"
         style="fill:#ed1639;fill-opacity:1;fill-rule:nonzero;stroke:none"
         d="m 714.238,107.402 h 5.989 c 6.453,0 7.253,-1.453 7.253,-12.2731 V 55.7227 c 0,-7.4297 -0.8,-10.1758 -9.035,-10.1758 h -5.164 v -7.918 h 45.215 v 7.918 h -2.266 c -8.222,0 -9.035,2.7461 -9.035,10.1758 V 82.207 c 0,15.1875 8.071,23.574 19.856,23.574 8.73,0 14.219,-5.164 14.219,-16.6287 V 55.7227 c 0,-7.4297 -0.801,-10.1758 -9.043,-10.1758 h -2.266 v -7.918 h 44.258 v 7.918 h -4.199 c -8.243,0 -9.043,2.7461 -9.043,10.1758 v 38.1054 c 0,17.4529 -12.286,24.5509 -28.106,24.5509 -13.086,0 -22.285,-5.488 -27.773,-18.5626 h -0.325 v 17.9296 c -7.918,-0.976 -22.293,-1.945 -30.535,-1.945 z M 701.484,75.4219 v 3.7187 c 0,27.1294 -10.82,39.2384 -36.816,39.2384 -27.129,0 -38.77,-17.762 -38.77,-41.6681 0,-23.8984 11.641,-41.6601 38.77,-41.6601 26.973,0 35.051,13.8867 35.207,27.7812 h -16.477 c -0.156,-12.1172 -5,-18.4179 -16.796,-18.4179 -19.864,0 -20.02,20.0312 -20.02,31.0078 z m -54.902,9.3633 c 0,13.5742 4.031,24.7188 17.93,24.7188 13.886,0 17.273,-11.4767 17.273,-24.7188 z m -61.543,5.5 c 0,-14.0547 -4.031,-20.8321 -12.754,-20.8321 -8.555,0 -14.043,6.125 -14.043,20.6641 0,14.0548 4.844,19.3868 13.887,19.3868 7.746,0 12.91,-4.524 12.91,-19.2188 m 6.785,-66.211 c 0,-7.4336 -5,-15.19529 -20.34,-15.19529 -13.574,0 -18.906,6.47269 -18.906,14.38279 0,8.5547 4.863,15.6563 19.387,15.6563 14.051,0 19.859,-6.6133 19.859,-14.8438 m 23.418,93.0158 -23.894,-2.098 c -4.524,1.289 -11.953,3.387 -18.731,3.387 -21.164,0 -35.058,-12.109 -35.058,-27.7813 0,-14.6875 9.218,-21.9532 21.328,-25.8399 v -0.3125 c -11.145,-0.9765 -15.828,-5.0117 -15.828,-10.1758 0,-5.4882 3.718,-8.2422 14.539,-10.3437 V 43.6133 C 546.289,42.4805 532.891,36.5039 532.891,23.418 532.891,10.3438 544.023,0 569.551,0 c 27.129,0 41.98,8.87891 41.98,23.8984 0,19.0625 -15.176,21.3282 -30.359,22.4493 -17.774,1.289 -20.684,2.9101 -20.684,7.4336 0,5.332 7.278,6.1406 12.61,6.9531 l 3.875,0.6328 c 22.617,3.7226 29.707,15.832 29.707,28.75 0,6.9453 -3.067,13.2418 -7.09,16.3088 v 0.324 h 15.652 z m -190.726,-9.688 h 5.976 c 6.461,0 7.262,-1.453 7.262,-12.2731 V 55.7227 c 0,-7.4297 -0.801,-10.1758 -9.039,-10.1758 h -5.168 v -7.918 h 45.219 v 7.918 h -2.262 c -8.227,0 -9.039,2.7461 -9.039,10.1758 V 82.207 c 0,15.1875 8.07,23.574 19.859,23.574 8.723,0 14.207,-5.164 14.207,-16.6287 V 55.7227 c 0,-7.4297 -0.793,-10.1758 -9.035,-10.1758 h -2.262 v -7.918 h 44.258 v 7.918 h -4.211 c -8.23,0 -9.031,2.7461 -9.031,10.1758 v 38.1054 c 0,17.4529 -12.285,24.5509 -28.105,24.5509 -13.09,0 -22.29,-5.488 -27.778,-18.5626 h -0.324 v 17.9296 c -7.918,-0.976 -22.289,-1.945 -30.527,-1.945 z m -43.758,36.008 c 0,-6.933 4.187,-12.109 11.777,-12.109 7.602,0 11.789,5.176 11.789,12.109 0,6.953 -4.187,12.117 -11.789,12.117 -7.59,0 -11.777,-5.164 -11.777,-12.117 m -10.992,-36.008 h 5.98 c 6.461,0 7.266,-1.453 7.266,-12.2731 V 55.7227 c 0,-7.4297 -0.805,-10.1758 -9.047,-10.1758 h -5.172 v -7.918 h 47.164 v 7.918 h -4.203 c -8.231,0 -9.039,2.7461 -9.039,10.1758 v 62.0233 c -10.34,-0.976 -24.711,-1.945 -32.949,-1.945 z m -108.52,0 h 5.973 c 6.457,0 7.269,-1.453 7.269,-12.2731 V 55.7227 c 0,-7.4297 -0.812,-10.1758 -9.043,-10.1758 h -5.172 v -7.918 h 45.219 v 7.918 h -2.254 c -8.242,0 -9.054,2.7461 -9.054,10.1758 V 82.207 c 0,15.1875 8.082,23.574 19.871,23.574 8.718,0 14.211,-5.164 14.211,-16.6287 V 55.7227 c 0,-7.4297 -0.809,-10.1758 -9.043,-10.1758 h -2.27 v -7.918 h 44.262 v 7.918 h -4.199 c -8.243,0 -9.051,2.7461 -9.051,10.1758 v 38.1054 c 0,17.4529 -12.274,24.5509 -28.102,24.5509 -13.078,0 -22.289,-5.488 -27.777,-18.5626 h -0.324 v 17.9296 c -7.907,-0.976 -22.289,-1.945 -30.516,-1.945 z m -88.34,-30.6911 c 0,-23.8984 11.621,-41.6601 38.758,-41.6601 27.129,0 38.762,17.7617 38.762,41.6601 0,23.9061 -11.633,41.6681 -38.762,41.6681 -27.137,0 -38.758,-17.762 -38.758,-41.6681 m 20.668,0 c 0,21.9727 4.84,32.3051 18.09,32.3051 13.242,0 18.082,-10.3324 18.082,-32.3051 0,-21.9648 -4.84,-32.2968 -18.082,-32.2968 -13.25,0 -18.09,10.332 -18.09,32.2968 M 92.9258,107.402 h 6.9375 c 6.4607,0 7.2697,-1.453 7.2697,-12.2731 V 55.7227 c 0,-7.4297 -0.809,-10.1758 -9.0353,-10.1758 h -5.1719 v -7.918 h 51.5152 v 7.918 h -8.558 c -8.238,0 -9.047,2.7461 -9.047,10.1758 V 82.207 c 0,13.5664 7.426,23.574 14.859,23.574 6.297,0 8.078,-4.519 8.243,-12.5857 h 15.496 v 23.2427 c -3.711,1.308 -8.227,1.941 -12.918,1.941 -13.082,0 -22.282,-5.488 -27.782,-18.5626 h -0.32 v 17.9296 c -7.91,-0.976 -22.289,-1.945 -31.4882,-1.945 z M 55.293,90.2852 c 0,-14.0547 -4.0391,-20.8321 -12.7578,-20.8321 -8.5586,0 -14.0508,6.125 -14.0508,20.6641 0,14.0548 4.8515,19.3868 13.8867,19.3868 7.7578,0 12.9219,-4.524 12.9219,-19.2188 m 6.7812,-66.211 c 0,-7.4336 -5,-15.19529 -20.3515,-15.19529 -13.5586,0 -18.8868,6.47269 -18.8868,14.38279 0,8.5547 4.8399,15.6563 19.3829,15.6563 14.0468,0 19.8554,-6.6133 19.8554,-14.8438 m 23.418,93.0158 -23.8945,-2.098 c -4.5235,1.289 -11.9532,3.387 -18.7422,3.387 -21.1524,0 -35.03909,-12.109 -35.03909,-27.7813 0,-14.6875 9.19919,-21.9532 21.32029,-25.8399 v -0.3125 c -11.1523,-0.9765 -15.832,-5.0117 -15.832,-10.1758 0,-5.4882 3.7109,-8.2422 14.5312,-10.3437 V 43.6133 C 16.5313,42.4805 3.13672,36.5039 3.13672,23.418 3.13672,10.3438 14.2773,0 39.7969,0 c 27.1289,0 41.9883,8.87891 41.9883,23.8984 0,19.0625 -15.1875,21.3282 -30.3672,22.4493 -17.7617,1.289 -20.6719,2.9101 -20.6719,7.4336 0,5.332 7.2656,6.1406 12.5977,6.9531 l 3.875,0.6328 c 22.6054,3.7226 29.7148,15.832 29.7148,28.75 0,6.9453 -3.0664,13.2418 -7.1094,16.3088 v 0.324 h 15.668 v 10.34" />
      <path
         inkscape:connector-curvature="0"
         id="path61"
         style="fill:#ed1639;fill-opacity:1;fill-rule:nonzero;stroke:none"
         d="m 937.297,267.93 h 14.207 v -50.703 c 0,-7.43 -0.801,-10.184 -9.043,-10.184 h -5.164 v -7.91 h 51.519 v 7.91 h -8.562 c -8.242,0 -9.043,2.754 -9.043,10.184 v 50.703 h 21.152 v 9.375 h -21.152 v 15.976 c 0,9.688 3.879,14.387 10.5,14.387 5.965,0 8.062,-3.566 8.062,-14.219 h 13.567 v 21.317 c -6.453,1.3 -13.567,2.265 -21.477,2.265 -29.383,0 -30.359,-17.773 -30.359,-39.726 h -14.207 z m -87.375,-29.715 c 0,-23.899 11.621,-41.66 38.769,-41.66 27.129,0 38.75,17.761 38.75,41.66 0,23.894 -11.621,41.668 -38.75,41.668 -27.148,0 -38.769,-17.774 -38.769,-41.668 m 20.676,0 c 0,21.973 4.832,32.293 18.093,32.293 13.243,0 18.079,-10.32 18.079,-32.293 0,-21.965 -4.836,-32.305 -18.079,-32.305 -13.261,0 -18.093,10.34 -18.093,32.305 m -99.817,-37.141 -7.746,-19.715 c -2.097,-5.644 -4.195,-9.035 -10.34,-9.035 h -7.265 v -7.91 h 43.281 v 7.91 h -5.32 c -6.301,0 -8.078,1.446 -8.078,4.844 0,2.59 1.621,6.301 2.578,8.566 l 31.66,75.743 c 2.258,5.332 3.711,7.91 7.109,7.91 h 3.543 v 7.918 h -34.234 v -7.918 h 6.785 c 2.746,0 3.867,-0.481 3.867,-2.746 0,-1.453 -0.801,-3.387 -1.777,-5.653 l -14.688,-37.629 -13.242,35.852 c -0.969,2.578 -2.109,4.844 -2.109,7.273 0,2.258 1.621,2.903 4.375,2.903 h 5.965 v 7.918 h -40.047 v -7.918 h 2.422 c 3.875,0 5.82,-2.422 9.043,-10.176 z M 662.59,267.93 h 14.207 v -46.348 c 0,-20.027 9.043,-25.359 25.359,-25.359 15.657,0 24.699,7.754 24.699,25.039 v 3.554 h -13.554 v -8.242 c 0,-6.945 -2.598,-10.011 -8.399,-10.011 -5.82,0 -8.398,3.066 -8.398,10.011 v 51.356 h 25.84 v 9.375 h -25.84 v 22.765 h -14.063 c -1.289,-16.308 -4.836,-20.996 -19.851,-22.765 z m -42.805,36.984 c 0,-6.945 4.199,-12.109 11.797,-12.109 7.578,0 11.785,5.164 11.785,12.109 0,6.953 -4.207,12.117 -11.785,12.117 -7.598,0 -11.797,-5.164 -11.797,-12.117 m -10.976,-36.008 h 5.964 c 6.457,0 7.278,-1.465 7.278,-12.285 v -39.394 c 0,-7.43 -0.821,-10.184 -9.043,-10.184 h -5.176 v -7.91 H 655 v 7.91 h -4.199 c -8.242,0 -9.051,2.754 -9.051,10.184 v 62.003 c -10.332,-0.968 -24.719,-1.925 -32.941,-1.925 z m -77.364,-67.195 c 4.688,-1.926 16.465,-5.156 29.727,-5.156 16.941,0 34.875,7.254 34.875,26.16 0,12.265 -6.145,16.953 -20.031,21.476 l -13.243,4.364 c -7.421,2.422 -11.621,6.777 -11.621,12.922 0,6.453 4.688,9.531 12.11,9.531 11.621,0 14.699,-5.176 14.699,-17.617 h 13.562 v 22.129 c -4.687,2.097 -15.507,4.363 -27.773,4.363 -19.062,0 -32.305,-8.875 -32.305,-23.582 0,-12.598 9.043,-19.375 27.785,-25.031 14.852,-4.52 17.118,-8.075 17.118,-14.043 0,-7.43 -6.797,-11.797 -17.118,-11.797 -11.156,0 -14.21,7.433 -14.21,18.898 h -13.575 z m -83.847,67.195 h 6.949 c 6.461,0 7.262,-1.465 7.262,-12.285 v -39.394 c 0,-7.43 -0.801,-10.184 -9.039,-10.184 h -5.172 v -7.91 h 51.519 v 7.91 h -8.558 c -8.231,0 -9.039,2.754 -9.039,10.184 v 26.476 c 0,13.574 7.425,23.582 14.859,23.582 6.289,0 8.074,-4.519 8.23,-12.597 h 15.508 v 23.253 c -3.722,1.289 -8.242,1.942 -12.922,1.942 -13.09,0 -22.289,-5.488 -27.777,-18.574 h -0.32 v 17.921 c -7.922,-0.968 -22.289,-1.925 -31.5,-1.925 z m -11.793,-31.98 v 3.719 c 0,27.128 -10.821,39.238 -36.817,39.238 -27.133,0 -38.761,-17.774 -38.761,-41.668 0,-23.899 11.628,-41.66 38.761,-41.66 26.969,0 35.051,13.875 35.211,27.773 h -16.472 c -0.168,-12.109 -5.012,-18.418 -16.797,-18.418 -19.875,0 -20.032,20.028 -20.032,31.016 z m -54.907,9.363 c 0,13.566 4.04,24.719 17.93,24.719 13.887,0 17.281,-11.477 17.281,-24.719 z m -59.761,23.098 h 6.777 c 3.711,0 4.684,-0.977 4.684,-2.102 0,-1.289 -0.325,-2.898 -0.801,-4.031 l -16.801,-47.969 h -0.316 l -15.516,45.535 c -0.476,1.621 -1.449,3.567 -1.449,5.664 0,1.77 1.609,2.903 6.461,2.903 h 5.332 v 7.918 h -40.383 v -7.918 h 1.945 c 3.547,0 4.516,-0.977 6.618,-6.301 l 25.039,-64.922 h 19.05 l 25.032,65.734 c 1.621,4.2 3.07,5.489 6.457,5.489 h 2.101 v 7.918 h -34.23 z m -89.809,35.527 c 0,-6.945 4.199,-12.109 11.785,-12.109 7.594,0 11.793,5.164 11.793,12.109 0,6.953 -4.199,12.117 -11.793,12.117 -7.586,0 -11.785,-5.164 -11.785,-12.117 m -10.98,-36.008 h 5.968 c 6.461,0 7.274,-1.465 7.274,-12.285 v -39.394 c 0,-7.43 -0.813,-10.184 -9.043,-10.184 h -5.172 v -7.91 h 47.164 v 7.91 h -4.199 c -8.242,0 -9.055,2.754 -9.055,10.184 v 62.003 c -10.324,-0.968 -24.707,-1.925 -32.937,-1.925 z m -108.532,0 h 5.981 c 6.461,0 7.262,-1.465 7.262,-12.285 v -39.394 c 0,-7.43 -0.801,-10.184 -9.043,-10.184 h -5.172 v -7.91 h 45.226 v 7.91 h -2.261 c -8.235,0 -9.043,2.754 -9.043,10.184 v 26.476 c 0,15.195 8.07,23.582 19.863,23.582 8.715,0 14.211,-5.176 14.211,-16.629 v -33.429 c 0,-7.43 -0.805,-10.184 -9.043,-10.184 h -2.258 v -7.91 h 44.246 v 7.91 h -4.195 c -8.242,0 -9.043,2.754 -9.043,10.184 v 38.105 c 0,17.441 -12.281,24.551 -28.098,24.551 -13.09,0 -22.289,-5.488 -27.781,-18.574 h -0.32 v 17.921 c -7.918,-0.968 -22.289,-1.925 -30.532,-1.925 z M 72.7383,199.133 h 30.5197 v 7.91 h -4.1994 c -8.2344,0 -9.043,2.754 -9.043,10.184 v 62.003 c -10.3359,-0.968 -24.707,-1.925 -32.9492,-1.925 v -8.399 h 5.9805 c 6.4609,0 7.2695,-1.465 7.2695,-12.285 v -22.117 c 0,-16.641 -5.9805,-25.363 -19.7109,-25.363 -9.1992,0 -14.3711,4.687 -14.3711,14.218 v 55.871 c -10.336,-0.968 -24.7071,-1.925 -32.94924,-1.925 v -8.399 h 5.98437 c 6.45707,0 7.26957,-1.465 7.26957,-12.285 v -37.793 c 0,-15.019 9.6875,-22.273 25.6797,-22.273 16.3046,0 26.4765,7.097 30.1992,17.918 h 0.3203 v -15.34" />
      <path
         inkscape:connector-curvature="0"
         id="path63"
         style="fill:#ed1639;fill-opacity:1;fill-rule:nonzero;stroke:none"
         d="M 691.973,749.133 405.18,395.156 l -22.785,0.032 286.753,353.925 22.825,0.02" />
      <path
         inkscape:connector-curvature="0"
         id="path65"
         style="fill:#ed1639;fill-opacity:1;fill-rule:nonzero;stroke:none"
         d="m 138.535,818.059 c -2.082,-0.325 -5.019,-1.153 -6.738,2.566 -1.555,3.371 4.277,8.828 6.207,10.598 2.5,2.285 -0.746,4.734 -2.656,2.07 -0.535,-0.742 -5.106,-7.207 -8.692,-7.207 -5.562,0 -5.238,6.531 -5.238,6.531 0,0 -6.215,3.946 -6.215,16.535 0,11.172 7.391,16.524 7.391,16.524 0,0 0.051,6.375 5.035,6.211 4.965,-0.157 8.187,-7.012 8.504,-7.481 2.512,-3.781 5.676,-0.558 3.472,2.129 -5.21,6.356 -6.308,11.367 -0.613,14.043 2.071,4.715 8.321,8.035 15.145,8.574 l 0.226,0.008 0.223,0.02 c 6.82,-0.567 13.07,-3.887 15.141,-8.602 5.699,-2.676 4.597,-7.687 -0.61,-14.043 -2.203,-2.687 0.957,-5.91 3.477,-2.129 0.312,0.469 3.527,7.324 8.511,7.481 4.969,0.164 5.028,-6.211 5.028,-6.211 0,0 7.383,-5.352 7.383,-16.524 0,-12.589 -6.211,-16.535 -6.211,-16.535 0,0 0.324,-6.531 -5.239,-6.531 -3.582,0 -8.148,6.465 -8.691,7.207 -1.898,2.664 -5.16,0.215 -2.66,-2.07 1.93,-1.77 7.769,-7.227 6.211,-10.598 -1.711,-3.719 -4.653,-2.891 -6.738,-2.566 0,0 -1.911,-3.321 -4.801,-3.332 14.437,-10.789 37.109,-4.676 40.148,3.222 0,0 -3.84,-0.761 -3.801,3.262 0.028,2.434 2.508,3.762 5.86,4.25 -0.699,1.531 -1.051,3.387 -0.93,5.398 0.332,5.657 4.231,10.411 8.731,10.606 4.488,0.195 7.863,-4.227 7.531,-9.891 -0.16,-2.844 -1.242,-5.469 -2.844,-7.394 3.293,-1.121 5.609,-2.813 5.305,-4.785 -0.801,-5.184 -5.614,-3.907 -5.614,-3.907 -0.578,-11.875 17.524,-14.14 22.153,-11.082 -1.832,6.856 0.902,8.914 2.992,10.762 1.488,1.309 5.918,4.043 6.527,4.441 1.383,0.899 2.102,2.825 1.231,3.528 -0.813,0.672 -2.621,-0.481 -3.481,-1.438 -1.222,-1.386 -3.371,-4.636 -6.738,-3.75 -4.074,1.067 -2.312,5.735 -3.004,8.242 -4.336,15.832 -0.629,26.868 15.199,33.497 0,0 6.024,6.339 11.422,3.476 5.172,-2.734 1.961,-11.191 1.961,-11.191 l 1.598,-0.743 c 5.781,10.489 14.14,18.098 26.133,18.399 8.496,0.207 12.597,-4.805 12.929,-11.66 0.739,-15.281 -14.882,-9.59 -13.66,-3.875 0,0 -3.781,-0.391 -5.859,-3.711 0,0.957 0.121,10.027 -7.981,5.234 -2.308,-1.367 -6.39,-8.234 -6.687,-9.101 -1.012,-3 0.449,-3.477 -1.125,-6.418 -1.231,-2.305 -2.949,-2.832 -3.688,-4.442 -0.75,-1.601 0.321,-4.758 -0.703,-6.789 -1.238,-2.488 -2.945,-2.676 -4.066,-4.929 -0.895,-1.778 -12.199,-30.606 -12.199,-30.606 0,0 4.5,-2.883 3.64,-7.168 -1.14,-5.734 -4.789,-4.492 -6.734,-8.262 -61.418,15.801 -124.988,15.887 -190.6877,0.262 -1.9726,3.449 -5.4687,2.402 -6.5898,8 -0.8633,4.285 3.6406,7.168 3.6406,7.168 0,0 -11.3125,28.828 -12.2031,30.606 -1.1172,2.253 -2.8242,2.441 -4.0664,4.929 -1.0196,2.031 0.0468,5.188 -0.7032,6.789 -0.7382,1.61 -2.457,2.137 -3.6757,4.442 -1.5743,2.941 -0.1211,3.418 -1.1329,6.418 -0.289,0.867 -4.3789,7.734 -6.6914,9.101 -8.0898,4.793 -7.9687,-4.277 -7.9765,-5.234 -2.0703,3.32 -5.8594,3.711 -5.8594,3.711 1.2188,-5.715 -14.402344,-11.406 -13.6640625,3.875 0.3320315,6.855 4.4296925,11.867 12.9296625,11.66 12.0039,-0.301 20.3516,-7.91 26.1328,-18.399 l 1.6055,0.743 c 0,0 -3.207,8.457 1.9649,11.191 5.3906,2.863 11.4101,-3.476 11.4101,-3.476 15.8281,-6.629 19.5391,-17.665 15.1953,-33.497 -0.6875,-2.507 1.0742,-7.175 -2.9961,-8.242 -3.3711,-0.886 -5.5078,2.364 -6.7383,3.75 -0.8515,0.957 -2.664,2.11 -3.4804,1.438 -0.8594,-0.703 -0.1524,-2.629 1.2265,-3.528 0.6133,-0.398 5.0391,-3.132 6.5313,-4.441 2.0898,-1.848 4.8164,-3.906 3.0039,-10.762 4.6172,-3.058 22.7187,-0.793 22.1445,11.082 0,0 -4.8164,-1.277 -5.6172,3.907 -0.3007,1.972 2.0118,3.664 5.2969,4.785 -1.5976,1.925 -2.664,4.55 -2.8359,7.394 -0.3321,5.664 3.0351,10.086 7.539,9.891 4.4922,-0.195 8.3981,-4.949 8.7301,-10.606 0.106,-2.011 -0.242,-3.867 -0.945,-5.398 3.352,-0.488 5.844,-1.816 5.867,-4.25 0.039,-4.023 -3.804,-3.262 -3.804,-3.262 3.043,-7.898 25.711,-14.011 40.16,-3.222 -2.899,0.011 -4.809,3.332 -4.809,3.332 m 5.211,29.558 c 0,-5.859 4.75,-10.625 10.609,-10.625 5.872,0 10.622,4.766 10.622,10.625 0,5.86 -4.75,10.606 -10.622,10.606 -5.859,0 -10.609,-4.746 -10.609,-10.606 m 58.578,-46.043 c 4.571,0.137 13.512,-1.738 13.512,-1.738 0,0 -3.801,4.258 -5.543,7.137 0,0 -2.027,-1.895 -3.258,-2.782 -0.961,-0.703 -4.711,-2.617 -4.711,-2.617 m -47.961,9.317 c -1.789,-1.993 -5.246,-5.403 -9.008,-6.692 0,0 6.188,0.156 8.868,0.196 h 0.273 c 2.676,-0.04 8.879,-0.196 8.879,-0.196 -3.77,1.289 -7.23,4.699 -9.012,6.692 m -47.968,-9.317 c 0,0 -3.75,1.914 -4.711,2.617 -1.231,0.887 -3.2621,2.782 -3.2621,2.782 -1.7383,-2.879 -5.5352,-7.137 -5.5352,-7.137 0,0 8.9373,1.875 13.5083,1.738 m 140.531,-28.672 c 2.937,-0.793 7.078,-3.691 5.941,-7.941 -1.144,-4.266 -6.172,-4.707 -9.121,-3.914 -2.949,0.789 -7.082,3.691 -5.941,7.937 1.14,4.258 6.172,4.707 9.121,3.918 m -38.59,1.141 -8.949,-7.52 -7.512,8.965 8.949,7.512 z M 66.0078,761.047 c -2.9492,-0.793 -7.9805,-0.352 -9.1211,3.914 -1.1406,4.25 2.9961,7.148 5.9414,7.941 2.9492,0.789 7.9766,0.34 9.1133,-3.918 1.1445,-4.246 -2.9883,-7.148 -5.9336,-7.937 m 79.5392,15.828 c 0,3.371 4.18,6.113 9.324,6.113 5.152,0 9.332,-2.742 9.332,-6.113 0,-3.379 -4.18,-6.113 -9.332,-6.113 -5.144,0 -9.324,2.734 -9.324,6.113 m -44.129,-2.832 7.508,8.957 8.949,-7.512 -7.508,-8.965 z M 24.8438,503.82 c 1.0195,4.071 5.3515,3.153 5.3515,3.153 0,0 -1.0312,3.75 2.7891,5.48 4.2422,1.895 6.3515,-2.785 6.3515,-2.785 l 1.7774,-12.051 -12.8477,0.43 c 0,0 -4.5508,1.262 -3.4218,5.773 m 18.2031,19.95 c 1.0078,4.054 5.3476,3.144 5.3476,3.144 0,0 -1.0312,3.75 2.793,5.469 4.2383,1.914 6.3359,-2.762 6.3359,-2.762 l 1.7852,-12.062 -12.8438,0.429 c 0,0 -4.5507,1.27 -3.4179,5.782 m 18.1875,19.953 c 1.0234,4.05 5.3515,3.144 5.3515,3.144 0,0 -1.0273,3.75 2.7891,5.469 4.2383,1.902 6.3477,-2.773 6.3477,-2.773 l 1.7812,-12.051 -12.8516,0.429 c 0,0 -4.5468,1.27 -3.4179,5.782 m 93.2386,184.715 c 1.019,4.074 5.351,3.164 5.351,3.164 0,0 -1.031,3.75 2.793,5.468 4.238,1.895 6.336,-2.781 6.336,-2.781 l 1.793,-12.051 -12.851,0.43 c 0,0 -4.551,1.27 -3.422,5.77 m 17.785,-68.028 c 1.019,4.063 5.347,3.156 5.347,3.156 0,0 -1.027,3.75 2.79,5.457 4.238,1.915 6.339,-2.761 6.339,-2.761 l 1.789,-12.051 -12.847,0.418 c 0,0 -4.555,1.269 -3.418,5.781 m 21.347,22.61 c 1.02,4.07 5.348,3.144 5.348,3.144 0,0 -1.019,3.77 2.801,5.477 4.242,1.906 6.344,-2.774 6.344,-2.774 l 1.773,-12.058 -12.836,0.429 c 0,0 -4.551,1.27 -3.43,5.782 m 21.36,22.605 c 1.019,4.063 5.351,3.156 5.351,3.156 0,0 -1.031,3.75 2.797,5.469 4.231,1.902 6.34,-2.773 6.34,-2.773 l 1.781,-12.063 -12.839,0.43 c 0,0 -4.563,1.269 -3.43,5.781 m 21.359,22.609 c 1.02,4.063 5.352,3.153 5.352,3.153 0,0 -1.031,3.75 2.789,5.468 4.242,1.915 6.351,-2.781 6.351,-2.781 l 1.778,-12.043 -12.848,0.43 c 0,0 -4.551,1.269 -3.422,5.773 M 12.7539,576.035 c 1.0195,4.063 5.3516,3.156 5.3516,3.156 0,0 -1.0313,3.758 2.789,5.469 4.2422,1.903 6.3516,-2.773 6.3516,-2.773 l 1.7773,-12.063 -12.8476,0.43 c 0,0 -4.5508,1.269 -3.4219,5.781 M 62.3438,455.02 c 1.0195,4.054 5.3515,3.144 5.3515,3.144 0,0 -1.0312,3.75 2.7891,5.469 4.2422,1.914 6.3515,-2.774 6.3515,-2.774 l 1.7774,-12.05 -12.8477,0.429 c 0,0 -4.5508,1.27 -3.4218,5.782 m 21.1132,22.96 c 1.0157,4.063 5.3477,3.145 5.3477,3.145 0,0 -1.0234,3.75 2.8008,5.477 4.2304,1.906 6.3398,-2.782 6.3398,-2.782 l 1.7813,-12.05 -12.8399,0.429 c 0,0 -4.5625,1.27 -3.4297,5.781 m 21.117,22.958 c 1.024,4.062 5.352,3.156 5.352,3.156 0,0 -1.031,3.75 2.789,5.469 4.238,1.902 6.34,-2.774 6.34,-2.774 l 1.789,-12.062 -12.852,0.429 c 0,0 -4.547,1.27 -3.418,5.782 m 21.11,22.96 c 1.019,4.071 5.351,3.165 5.351,3.165 0,0 -1.031,3.75 2.789,5.457 4.242,1.906 6.352,-2.774 6.352,-2.774 l 1.777,-12.058 -12.848,0.429 c 0,0 -4.55,1.27 -3.421,5.781 m 92.992,97.618 c 1.019,4.07 5.347,3.164 5.347,3.164 0,0 -1.031,3.75 2.801,5.457 4.231,1.914 6.34,-2.774 6.34,-2.774 l 1.781,-12.058 -12.84,0.429 c 0,0 -4.562,1.278 -3.429,5.782 m 19.039,20.769 c 1.019,4.063 5.351,3.156 5.351,3.156 0,0 -1.031,3.758 2.789,5.469 4.239,1.903 6.352,-2.773 6.352,-2.773 l 1.777,-12.063 -12.851,0.43 c 0,0 -4.547,1.269 -3.418,5.781 m 19.039,20.774 c 1.019,4.062 5.351,3.152 5.351,3.152 0,0 -1.031,3.75 2.79,5.469 4.242,1.906 6.351,-2.782 6.351,-2.782 l 1.781,-12.05 -12.851,0.429 c 0,0 -4.551,1.27 -3.422,5.782 m 19.043,20.769 c 1.019,4.063 5.348,3.145 5.348,3.145 0,0 -1.028,3.75 2.793,5.48 4.238,1.902 6.343,-2.785 6.343,-2.785 l 1.785,-12.051 -12.851,0.43 c 0,0 -4.551,1.269 -3.418,5.781 M 128.012,434.641 c 1.019,4.062 5.351,3.144 5.351,3.144 0,0 -1.027,3.75 2.793,5.477 4.239,1.906 6.348,-2.782 6.348,-2.782 l 1.781,-12.05 -12.847,0.429 c 0,0 -4.551,1.27 -3.426,5.782 m 147.89,163.672 c 1.024,4.062 5.352,3.152 5.352,3.152 0,0 -1.027,3.75 2.789,5.469 4.242,1.906 6.352,-2.774 6.352,-2.774 l 1.777,-12.051 -12.848,0.422 c 0,0 -4.551,1.27 -3.422,5.782 M 132.855,581.875 c 0,0.637 1.012,0.527 2.93,0.852 1.918,0.32 3.629,0.964 3.629,0.32 0,-0.957 -1.328,-0.203 -1.328,-1.758 v -15 c 0,-0.75 1.012,-0.215 1.012,-0.801 0,-0.75 -1.813,-0.429 -3.153,-0.429 -1.39,0 -3.152,-0.321 -3.152,0.265 0,1.016 1.23,0 1.23,0.965 v 14.25 c 0,1.504 -1.168,0.106 -1.168,1.336 m -16.289,-6.484 c 0,0.422 0.528,0.468 1.493,0.957 0.964,0.468 1.546,1.007 2.406,0.265 0.848,-0.754 5.492,-6.086 5.492,-6.086 v 7.578 c 0,0.852 -1.492,-0.261 -1.492,0.586 0,0.637 0.64,0.637 1.703,1.067 1.066,0.43 2.617,1.601 2.617,0.859 0,-0.91 -1.117,-0.637 -1.117,-1.816 V 564.18 c 0,-1.231 -0.113,-1.231 -0.641,-1.231 -0.324,0 -7.711,9.309 -7.711,9.309 v -9.934 c 0,-0.898 1.789,0.352 1.789,-0.496 0,-0.48 -1.07,-0.754 -2.14,-1.183 -1.07,-0.418 -2.559,-1.114 -2.559,-0.575 0,0.899 1.328,0.575 1.328,1.485 v 12.859 c 0,0.977 -1.168,0.227 -1.168,0.977 m -5.781,-9.149 c 0,6.192 -3.949,3.887 -3.949,3.887 v -12.734 c 0,0 3.949,0.085 3.949,8.847 m -9.23,2.559 c 0,0.449 1.922,1.16 3.203,1.758 2.297,1.074 9.715,4.863 9.715,-4.27 0,-8.379 -5.879,-9.773 -7.739,-10.625 -1.871,-0.859 -4.398,-2.09 -4.589,-1.68 -0.329,0.664 1.007,0.774 1.007,2.266 v 10.41 c 0,2.617 -1.597,1.262 -1.597,2.141 m 25.851,37.82 c -0.043,0.391 1.512,0.656 2.301,0.871 1.34,0.36 2.188,0.613 2.75,0.059 0.555,-0.578 3.301,-4.992 3.301,-4.992 0,0 3.527,4.992 3.808,5.324 0.278,0.332 0.391,0.808 1.801,0.84 1.617,0.027 2.348,0.195 2.348,-0.149 0,-0.605 -1.012,-0.301 -1.07,-1.601 -0.04,-0.996 0,-12.938 0,-13.602 0,-1.523 1.043,-1.016 1.043,-1.523 0,-0.5 -0.676,-0.305 -3.051,-0.285 -1.961,0.039 -3.282,-0.243 -3.282,0.128 0,0.664 1.04,0.106 1.04,1.473 v 9.113 c 0,0 -3.418,-4.992 -3.59,-4.992 -0.2,0 -4.371,6.36 -4.371,6.36 v -10.899 c 0,-1.738 1.73,-0.715 1.73,-1.398 0,-0.34 -1.32,-0.489 -2.293,-0.731 -1.117,-0.273 -2.098,-0.703 -2.215,-0.39 -0.238,0.683 1.211,0.312 1.211,2.273 0,1.738 0.02,11.738 0,12.473 -0.062,1.922 -1.402,1.082 -1.461,1.648 m -4.929,-1.902 c 0.582,0.273 2.109,1.101 2.289,0.847 0.269,-0.371 -0.61,-0.449 -1.219,-3.086 -0.231,-0.964 -3.102,-16.074 -4.172,-16.601 -0.344,-0.184 -5.211,11.894 -5.66,12.863 -0.801,1.707 -1.649,0.555 -1.813,1.16 -0.093,0.391 1.235,0.899 2.34,1.399 0.594,0.262 2.746,1.57 2.977,1.308 0.449,-0.507 -1.184,-0.527 -0.403,-2.382 0.52,-1.243 3.247,-7.247 3.247,-7.247 0,0 1.601,6.778 2.089,9.071 0.477,2.285 -1.277,1.144 -1.336,1.652 -0.031,0.281 0.848,0.664 1.602,0.985 z m -18.692,-15.86 v -8.3 c 0,0 4.274,0.886 4.274,6.062 0,4.426 -4.274,2.238 -4.274,2.238 m -0.058,7.274 v -5.496 c 0,0 3.097,1.16 3.097,3.828 0,3.203 -3.097,1.668 -3.097,1.668 m 0.328,1.437 c 1.808,0.692 6.558,1.649 6.558,-2.461 0,-2.941 -1.918,-3.632 -1.918,-3.632 0,0 3.469,-0.637 3.469,-3.516 0,-3.313 -1.598,-5.617 -3.41,-6.574 -0.926,-0.489 -6.621,-3.25 -7.156,-3.574 -0.535,-0.313 -1.8011,-1.004 -1.9457,-0.692 -0.3281,0.723 0.9337,0.586 0.9337,2.723 v 13.312 c 0,2.832 -1.3321,1.582 -1.3321,2.324 0,0.458 2.9411,1.375 4.8011,2.09 m 29.621,37.469 v -6.719 c 0,0 3.16,0.207 3.16,3.84 0,4.317 -3.16,2.879 -3.16,2.879 m 8.351,-15 c 0.957,-0.125 1.387,0.254 1.387,0.254 0,0 -0.316,-2.391 -2.828,-2.391 -3.414,0 -3.359,5.868 -4.32,7.578 -0.961,1.708 -2.571,0.801 -2.571,0.801 v -5.988 c 0,-1.914 1.2,-1.082 1.2,-1.785 0,-0.293 -0.93,-0.449 -0.93,-0.449 0,0 -2.61,-0.754 -3.57,-0.957 -0.961,-0.215 -1.379,-0.43 -1.379,0 0,0.761 0.949,0.261 0.949,2.363 v 12.363 c 0,2.402 -1.379,1.602 -1.41,2.274 -0.02,0.39 0.961,0.586 1.918,0.832 1.613,0.39 2.222,0.898 4.511,1.433 2.211,0.508 6.09,-0.535 6.09,-3.633 0,-3.418 -1.929,-4.109 -2.988,-4.91 3.941,-1.914 2.18,-7.578 3.941,-7.785 m -25.933,8.781 c 1.601,0.528 4.433,1.727 7.469,3.438 0.414,0.234 1.652,1.004 2.242,-0.11 0.613,-1.152 1.07,-2.675 0.699,-2.832 -0.547,-0.222 -0.906,0.227 -1.598,0.586 -0.609,0.325 -1.39,0.696 -2.14,0.489 -0.75,-0.215 -1.77,-0.664 -1.77,-0.664 l 0.012,-5.262 c 0,0 1.859,0 2.078,1.015 0.172,0.809 0.5,1.864 1.09,2.032 0.34,0.086 0.238,-0.996 0.277,-2.5 0.02,-0.528 0.055,-0.813 0.063,-1.094 0.039,-1.855 -0.075,-2.473 -0.34,-2.52 -0.508,-0.097 -0.938,1.25 -1.063,1.571 -0.218,0.558 -2.105,0.051 -2.105,-0.262 v -7.559 c 0,0 1.437,0.77 2.078,1.153 0.867,0.508 2.34,2.195 2.91,3.191 0.559,0.996 0.781,1.809 1.301,1.719 0.332,-0.059 -0.371,-3.309 -0.371,-3.309 0,0 -0.051,-1.281 -1.121,-1.816 -1.059,-0.539 -7.032,-3.332 -7.547,-3.574 -1.024,-0.481 -2.25,-1.367 -2.274,-0.879 -0.027,0.742 0.989,0.34 0.989,2.558 l -0.032,12.618 c 0,0 -0.039,1.062 -0.847,1.211 -0.621,0.097 -1.199,0.39 0,0.8 m -13.961,-5.8 c 0.859,0.3 3.293,1.335 3.426,1.043 0.336,-0.75 -1.262,-0.586 -0.735,-2.11 0.449,-1.277 3.262,-7.957 3.262,-7.957 l 2.461,9.609 c 0.527,2.079 -1.152,1.368 -1.293,1.875 -0.09,0.352 1.23,0.75 1.98,1.063 0.614,0.293 2.59,1.145 2.704,0.891 0.257,-0.676 -0.754,-0.676 -1.282,-2.551 -0.64,-2.207 -4.379,-17.246 -5.422,-17.813 -0.589,-0.32 -5.742,12.649 -6.14,13.653 -0.403,1.015 -1.7854,0.636 -1.9182,1.23 -0.0586,0.246 2.0972,0.774 2.9572,1.067 m 67.625,-41.653 c -0.031,0.403 0.578,0.246 1.488,-0.039 0.906,-0.273 2,-0.535 2.746,-1.758 0.742,-1.218 6.375,-10.84 6.375,-10.84 l -0.039,8.672 c 0,1.153 -1.019,1.184 -1.019,1.661 0,0.449 0.773,0 1.593,-0.274 0.813,-0.273 2.004,-0.398 2.004,-0.781 0,-0.371 -1.051,0.168 -1.051,-0.84 v -16.367 c 0,0 0,-0.711 -0.476,-0.067 -0.383,0.528 -8.816,14.09 -8.816,14.09 0,0 0.031,-8.496 0,-9.383 -0.028,-1.015 1.093,-0.91 1.093,-1.425 0,-0.508 -1.191,-0.235 -1.933,-0.098 -0.746,0.137 -1.868,0.027 -1.868,0.684 0,0.632 1.02,-0.344 1.02,1.179 v 13.926 c 0,1.055 -1.09,1.125 -1.117,1.66 m 7.957,25.071 c 0,0.613 2.68,-0.469 4.781,-1.075 2.098,-0.617 6.059,-1.261 6.059,-2.55 0,-1.571 0.41,-3.086 -0.098,-3.086 -0.312,0 -0.953,2.003 -1.594,2.648 -0.98,0.984 -2.976,1.426 -3.519,1.523 -0.551,0.098 -0.41,0.067 -0.41,-0.312 v -5.078 c 0,0 1.351,-0.664 2.101,-0.344 0.75,0.344 0.848,1.535 1.289,1.438 0.43,-0.11 0.274,-1.028 0.199,-2.786 -0.07,-1.757 0.141,-3.359 -0.308,-3.191 -0.43,0.176 -0.469,1.66 -1.379,2.559 -0.918,0.879 -1.93,1.004 -1.93,1.004 v -8.301 c 0,0 1.012,-1.121 3.11,-0.438 2.097,0.684 3.589,2.098 3.929,1.758 0.336,-0.344 0.172,-0.812 -0.84,-2.402 -1.019,-1.594 -1.562,-2.61 -2.582,-2.168 -1.019,0.437 -3.32,1.316 -4.738,1.961 -1.418,0.644 -4.367,1.359 -4.367,1.972 0,0.606 1.449,-0.515 1.449,1.25 v 14.2 c 0,0.703 -1.152,0.937 -1.152,1.418 m -3.43,2.429 c 0.75,0 0.598,-2.762 0.711,-3.66 0.207,-1.711 0.719,-3.223 0.18,-3.254 -0.813,-0.039 -1.781,2.695 -3.09,4.043 -1.231,1.27 -5.754,3.586 -5.754,-5.976 0,-8.184 3.551,-8.008 5.492,-7.403 1.903,0.598 2.692,2.102 2.91,1.953 0.231,-0.156 -1.57,-4.043 -5.531,-4.492 -3.961,-0.437 -7.836,3.438 -7.836,9.531 0,6.086 2.988,9.817 6.758,9.817 3.031,0 3.922,-2.09 5.219,-2.09 0.871,0 0.078,1.531 0.941,1.531 m 10.211,21.692 c 0.149,0.769 1.52,-0.196 3.762,-1.114 2.226,-0.918 3.855,-1.386 3.73,-1.769 -0.14,-0.371 -1.734,0.246 -1.535,-0.809 0.199,-1.047 2.711,-9.277 2.711,-9.277 0,0 2.91,6.894 2.981,7.176 0.21,0.851 -0.778,0.976 -0.68,1.386 0.109,0.442 0.988,-0.136 1.699,-0.535 0.711,-0.41 1.859,-0.781 1.66,-1.262 -0.203,-0.468 -1.051,0.618 -1.386,-0.195 -0.344,-0.808 -6.172,-13.894 -6.172,-13.894 l -5.832,18.797 c -0.329,1.093 -1.039,0.996 -0.938,1.496 m -13.32,5.046 c 0,0.442 0.82,0.071 0.82,0.071 l 5.176,-1.856 c 0,0 0.914,-0.312 0.887,-0.722 -0.032,-0.403 -1.766,0.507 -1.766,-1.047 v -14.598 c 0,0 0.371,-0.988 2.102,-0.273 1.734,0.711 4.3,2.41 4.3,2.41 0,0 1.223,0.605 0.918,-0.242 -0.308,-0.852 -1.527,-3.555 -1.527,-3.555 0,0 -0.27,-1.055 -1.66,-0.813 -1.395,0.235 -4.813,1.29 -5.762,1.555 -0.949,0.274 -3.59,1.082 -3.59,1.082 0,0 -0.539,0.098 -0.539,0.508 0,0.41 1.66,-0.027 1.66,1.289 v 14.27 c 0,1.289 -1.019,1.316 -1.019,1.921 m 20.078,-51.589 c 0,1.015 1.391,-0.383 1.391,1.218 v 14.102 c 0,1.758 -0.797,1.699 -0.797,2.402 0,0.696 1.547,-0.32 1.918,-0.488 0.371,-0.156 4.425,-2.246 4.855,-2.449 0.422,-0.215 4.754,-1.985 4.754,-6.719 0,-3.262 -2.723,-2.734 -2.723,-2.734 0,0 2.723,-1.602 2.871,-3.996 0.172,-2.403 0.493,-4.434 0.493,-4.754 0,-0.325 0.48,-1.711 1.968,-0.43 0,0 0.172,-2.871 -3.089,-1.809 -2.129,0.684 -2.727,2.668 -2.879,3.996 -0.172,1.348 -0.911,7.782 -3.801,7.684 v -6.465 c 0,-1.707 1.012,-1.23 1.012,-2.234 0,-0.656 -1.489,0.379 -2.825,0.918 -1.976,0.867 -3.148,1.172 -3.148,1.758 m 4.973,14.355 v -6.562 c 0.429,-0.157 3.679,-2.239 3.679,1.804 0,4.063 -3.679,4.758 -3.679,4.758 m -7.149,-24.582 c 0.309,1.016 -0.656,1.309 -0.465,1.738 0.141,0.325 1.469,-0.398 2.27,-0.769 0.801,-0.383 2.031,-0.703 2.355,-1.789 0.317,-1.094 4.504,-15.379 4.907,-16.707 0.449,-1.496 1.328,-1.074 1.07,-1.77 -0.11,-0.262 -1.34,0.324 -3.77,1.289 -2.023,0.793 -3.019,1.055 -3.019,1.379 0,0.653 2.039,-0.43 1.558,0.957 -0.316,0.926 -1.019,3.379 -1.019,3.379 l -5.629,1.836 -0.805,-2.727 c -0.398,-1.355 0.887,-1.14 0.641,-1.648 -0.125,-0.273 -0.926,0.078 -1.969,0.508 -1,0.398 -1.43,0.488 -1.39,0.769 0.054,0.481 0.851,-0.203 1.222,0.774 0.379,0.984 3.758,11.914 4.043,12.781 m 0.887,-1.875 -1.961,-6.316 4.379,-1.465 z m 112.801,176.77 V 561.359 C 304.844,449.453 213.305,409.758 152.914,409.758 92.5156,409.758 0.976563,449.453 3.05859,561.359 V 748.684 H 58.918 c -0.3047,3.457 0.6367,5.867 0.7265,5.976 76.3125,15.281 113.2225,15.996 189.4725,-0.039 1.641,-1.984 1.946,-4.101 1.668,-5.937 z M 30.9844,477.16 89.4883,539.453 v 18.203 l -6.6328,0.227 c 0,0 -4.5586,1.269 -3.4297,5.769 1.0195,4.075 5.3476,3.164 5.3476,3.164 0,0 -1.0195,3.75 2.8008,5.461 0.6914,0.321 1.3321,0.45 1.9141,0.457 l 0.0078,12.071 -73.1016,-77.84 c 3.75,-11.055 8.711,-20.969 14.5899,-29.805 m 72.8086,159.199 c 0.793,0.36 1.594,0.731 2.395,1.133 2.816,1.414 7.898,4.071 13.367,6.387 5.383,2.266 11.738,4.492 16.84,4.492 5.128,0 9.25,-1.543 12.082,-3.066 1.418,-0.754 2.531,-1.524 3.3,-2.121 l 0.278,-0.223 c 0.097,0.144 0.218,0.312 0.363,0.477 0.586,0.722 1.449,1.554 2.687,2.335 2.5,1.571 6.321,2.801 12.102,2.801 6.059,0 12.856,-2.422 18.34,-4.89 l 1.262,-0.586 93.988,100.086 h -42.582 l -82.781,-88.145 v 42.434 l 42.929,45.711 H 8.53516 V 561.309 C 8.41406,554.512 8.64453,548 9.20313,541.738 l 40.95317,43.625 h 39.3398 v 34.754 c -0.7305,-1.015 -1.8516,-0.828 -1.8516,-0.828 0,0 0.9883,2.996 -1.7422,3.426 -0.2109,0.031 -0.4296,0.051 -0.6757,0.051 -1.5508,0 -2.4219,-0.782 -3.3516,-1.516 -1.4492,-1.16 -5.7539,-6.199 -6.5937,-7.02 -0.8399,0.821 -5.1446,5.86 -6.6055,7.02 -0.9219,0.734 -1.8008,1.516 -3.3399,1.516 -0.2539,0 -0.4804,-0.02 -0.6836,-0.051 -2.7382,-0.43 -1.7382,-3.426 -1.7382,-3.426 0,0 -2.4805,-0.41 -2.4805,3.359 0,2.657 2.1211,4.227 4,4.727 2.8398,0.652 5.6484,0.848 6.1797,5.555 0.0312,0.937 -0.1289,1.125 -0.1289,1.125 0,0 -1.0196,-1.543 -3.543,-2.746 -2.918,-1.524 -10.8086,-1.426 -10.6094,-5.938 -0.0586,-1.816 1.9258,-1.641 1.9258,-1.641 0,0 -0.1055,-0.82 -1.4336,-1.023 -0.2929,-0.039 -0.6367,-0.059 -1.0586,-0.031 -1.8281,0.265 -2.4414,2.187 -2.3086,4.629 0.1055,1.535 -0.914,3.554 -2.8906,3.261 -0.3398,-0.058 -0.7226,-0.175 -1.125,-0.39 -1.5078,-0.879 -0.9726,-2.313 -0.9726,-2.313 0,0 -1.7149,0.957 -1.4532,2.95 0.2305,1.707 1.3594,2.488 2.961,3.144 0.1992,0.039 0.3906,0.078 0.582,0.106 2.0469,0.312 3.7656,-0.293 3.7656,-0.293 0,0 -0.5195,1.554 -0.332,3.105 0.1719,1.34 0.8711,2.688 2.8711,3.059 2.9805,0.554 3.6211,-1.446 3.1719,-2.551 -0.1641,-0.098 -0.6875,0.695 -1.5391,0.566 -0.1211,-0.019 -0.25,-0.058 -0.3906,-0.125 -0.5,-0.254 -0.793,-0.586 -0.9414,-0.949 -0.5,-1.18 0.4804,-2.664 0.6523,-2.918 0.5977,-0.801 2.4375,-1.348 4.7266,-0.918 2.6601,0.566 4.5508,2.305 5.4687,3.836 0.4961,0.801 0.7031,1.555 0.6328,2.051 l 1.4493,16.105 c 0,0 0.4648,4.141 -2.3594,4.617 -0.3281,0.071 -0.6602,0.071 -1,0.02 -2.3789,-0.379 -4.8594,-3.555 -4.0781,-7.52 0.6015,-3.046 -0.961,-5.378 -2.461,-5.722 -1.9101,-0.449 -3.0703,-0.067 -3.7422,1.32 3.3321,0.223 3.1211,2.891 2.0703,3.856 -0.4492,0.39 -1.0976,0.507 -1.8476,0.39 -3.1133,-0.488 -8.0313,-4.765 -8.8203,-7.324 -0.711,-2.305 1.0117,-1.707 1.7383,-3.652 0.5937,-1.563 -0.7266,-2.801 -0.7266,-2.801 -0.043,-0.52 -0.1133,-0.969 -0.1992,-1.34 -0.3633,-1.348 -1.0625,-1.785 -1.7149,-1.883 -0.5078,-0.09 -0.9843,0.059 -1.2383,0.137 0.8282,0.359 1.0821,1.133 1.1485,1.746 0.0508,0.441 0.0117,0.801 0.0117,0.801 0,0 -0.9297,-0.098 -1.7383,1.152 -0.9414,1.457 0.2188,1.914 -0.8125,3.488 -1.0469,1.582 -3.9492,3.262 -6.2187,3.555 -0.1524,0.02 -0.2891,0.008 -0.4297,-0.012 -0.4414,-0.058 -0.8594,-0.293 -1.543,-0.39 -0.1875,-0.039 -0.4101,-0.059 -0.6601,-0.059 -1.7852,-0.039 -1.2969,1.047 -2.7696,0.93 -0.7617,-0.156 -1.1992,-0.879 -0.9492,-1.934 0.043,-0.148 -0.0781,-0.246 -0.0781,-0.246 -0.8125,0.547 -1.1485,1.301 -1.211,2.18 -0.0117,2.312 1.4688,3.953 2.8711,4.09 1.6602,0.156 2.4297,-0.867 2.5586,-1.063 0.9141,3.848 -2.1093,2.539 -3.5703,4.403 -0.9804,1.281 -0.5898,1.914 -0.4609,2.375 0.2031,0.703 -1.0078,0.781 -1.9258,0.644 -0.2656,-0.039 -0.5039,-0.098 -0.6758,-0.156 -0.1758,0.164 0.293,1.961 2.1914,2.246 0.6524,0.105 1.4805,0.027 2.5313,-0.363 0.9804,0.293 1.9179,-0.184 2.2695,-0.86 0.4219,-0.801 0.0703,-1.718 0.1836,-2.703 0.2969,-2.57 1.8672,-2.492 2.1094,-2.461 -1.3946,3.653 0.3594,4.746 0.539,5.313 0.1758,0.586 -0.0429,1.355 -0.9492,1.668 -0.1914,0.078 -0.4492,0.234 -0.1523,0.312 0,0 3.5078,0.156 4.0508,-2.137 0,0 1.5117,-0.8 1.5507,-2.695 0.0352,-2.363 -1.2421,-2.59 -1.7304,-3.058 0.3633,-2.469 1.8203,-2.879 3.1875,-2.665 1.3437,0.204 2.5859,0.997 2.5859,0.997 2.3086,0.918 7.0977,3.886 5.8047,6.296 -0.5859,1.114 -1.5586,1.582 -2.6289,1.426 -0.5117,-0.078 -1.0313,-0.301 -1.543,-0.664 -1.3867,-1.328 -0.6992,-3.066 -0.6992,-3.066 -2.1094,-0.567 -3.0977,3.097 -1.7773,4.66 0.9179,1.094 2.0468,1.523 3.2578,1.738 1.3828,0.242 2.8711,0.184 4.2929,0.469 1.6875,0.34 2.9766,1.394 4.2266,3.582 0.9258,1.535 0.9531,3.645 0.1523,5.324 -0.8203,1.836 -2.5078,4.141 -4.8828,4.571 -0.4492,-3.977 -2.6367,-7.102 -5.3164,-9.016 -0.6601,-0.457 -1.5273,-0.723 -2.1093,-0.809 -0.4727,-0.07 -0.7696,-0.039 -0.6602,0.098 3.4883,4.082 2.5898,8.359 2.4922,8.769 -0.2539,-0.468 -2.9844,-5.48 -7.8516,-7.617 -0.4687,-0.195 -0.9609,-0.332 -1.4609,-0.41 -2.6211,-0.41 -5.2383,0.809 -4.1992,0.938 1.7265,0.242 8.707,4.297 6.6054,12.89 -0.2695,-0.488 -3.3398,-5.968 -7.1172,-8.554 -1.6093,-1.114 -3.2929,-1.661 -4.7812,-1.895 -2.9805,-0.469 -5.2383,0.359 -4.8203,0.75 0,0 8.2226,3.887 8.3203,7.598 -0.2656,-0.203 -2.4883,-1.922 -5.0781,-2.325 -0.3516,-0.046 -0.711,-0.085 -1.0586,-0.085 -7.0117,0 -7.0117,5.046 -7.0117,5.046 0.4882,-0.058 7.039,-0.488 12.3867,10.879 0,0 -3.4844,-1.23 -7.5078,-1.668 -2.3789,-0.273 -3.3789,1.231 -3.0977,1.211 0.4219,-0.148 0.8906,-0.187 1.4922,-0.097 1.3164,0.214 3.1953,1.043 5.5859,2.871 -0.6406,0.293 -9.2304,4.101 -5.9101,9.988 0,0 2.3711,-2.07 5.2929,-2.324 2.1485,-0.184 5.8907,0.215 6.7969,2.363 0,0 -4.6289,0.274 -9.1719,3.137 -2.6796,1.668 -3.7265,5.633 -2.746,4.492 1,-1.184 2.0312,-1.535 3.5703,-1.926 1.1992,-0.312 2.0195,-0.019 2.0195,-0.019 0,0 -6.6719,6.32 -2.4492,11.222 0,0 2.25,-6.289 7.7773,-6.308 0,0 -2.8008,2.597 -3.3594,5.711 -0.3906,2.148 -0.2304,4.98 0.1602,4.172 0.2695,-0.559 0.8672,-1.563 1.2617,-2.297 0.6875,-1.239 2.1563,-2.899 3.3399,-3.914 0,0 -0.8399,3.281 0.3086,6.277 0.1679,0.461 1.7109,2.969 1.8203,2.336 0,0 0.0156,-1.973 0.1289,-2.598 0.3437,-2.121 1.1484,-4.785 5.1523,-8.847 5.0664,-5.176 10.5664,-5.137 10.6094,-8.36 -0.1992,-3.859 -4.9414,-3.351 -8.0508,-3.086 -1.0781,0 -0.9414,-1.652 -0.039,-2.832 2.5859,-3.457 13.5703,-4.297 17.0078,1.328 1.2187,1.961 1.5507,4.325 0.7304,6.512 -1.039,2.922 -3.3984,3.02 -7.8789,3.996 -3.1797,0.684 -2.3203,2.11 -1.8515,2.11 0,0 0.9726,-0.547 1.9101,-0.547 2.3516,-0.02 0.9219,3.007 0.6719,2.968 -0.6016,-0.089 -3.1406,-1.113 -5.332,-1.3 -2.7774,-0.243 -6.1055,0.871 -6.1055,2.793 0,2.324 2.9102,2.968 2.7773,2.363 -0.0312,-0.145 -1.75,-3.289 3.3789,-3.113 1.6211,0.046 4.8907,0.234 4.8829,0.371 -0.1055,0.859 -1.6211,2.09 -2.7852,2.09 -0.8594,0 -1.6484,-0.215 -3.2148,-0.059 -0.5625,1.387 0.9336,2.781 1.9648,3.289 1.0313,0.52 1.7734,0.285 2.2227,0.441 0.6015,0.215 0.9609,2.098 4.3906,2.149 1.8008,0.027 4.4101,-1.223 5.6211,-1.223 1.1992,0 3.3398,0.781 3.5586,0.403 0.207,-0.403 -0.8594,-1.622 -0.6524,-2.707 -0.0976,-2.508 4.2383,-12.43 8.8203,-13.368 4.5704,0.938 8.9297,10.86 8.8243,13.368 0.2109,1.085 -0.8594,2.304 -0.6524,2.707 0.2227,0.378 2.3711,-0.403 3.5703,-0.403 1.1992,0 3.8086,1.25 5.6211,1.223 3.4258,-0.051 3.7891,-1.934 4.3906,-2.149 0.4493,-0.156 1.1758,0.079 2.2071,-0.441 1.0316,-0.508 2.5276,-1.902 1.9726,-3.289 -1.5625,-0.156 -2.3632,0.059 -3.2226,0.059 -1.1602,0 -2.6797,-1.231 -2.7696,-2.09 -0.0195,-0.137 3.254,-0.325 4.8792,-0.371 5.133,-0.176 3.414,2.968 3.375,3.113 -0.133,0.605 2.785,-0.039 2.785,-2.363 0,-1.922 -3.34,-3.036 -6.117,-2.793 -2.1839,0.187 -4.7229,1.211 -5.3245,1.3 -0.2461,0.039 -1.6875,-2.988 0.6719,-2.968 0.9414,0 1.9101,0.547 1.9101,0.547 0.4727,0 1.3321,-1.426 -1.8476,-2.11 -4.4844,-0.976 -6.8516,-1.074 -7.8906,-3.996 -0.8086,-2.187 -0.4844,-4.551 0.7265,-6.512 3.4414,-5.625 14.4332,-4.785 17.0232,-1.328 0.887,1.18 1.039,2.832 -0.051,2.832 -3.097,-0.265 -7.8394,-0.773 -8.0503,3.086 0.0508,3.223 5.5503,3.184 10.6213,8.36 3.988,4.062 4.808,6.726 5.148,8.847 0.102,0.625 0.129,2.598 0.129,2.598 0.102,0.633 1.652,-1.875 1.82,-2.336 1.145,-2.996 0.305,-6.277 0.305,-6.277 1.176,1.015 2.656,2.675 3.34,3.914 0.398,0.734 0.996,1.738 1.258,2.297 0.39,0.808 0.547,-2.024 0.168,-4.172 -0.559,-3.114 -3.36,-5.711 -3.36,-5.711 5.532,0.019 7.774,6.308 7.774,6.308 4.219,-4.902 -2.453,-11.222 -2.453,-11.222 0,0 0.82,-0.293 2.031,0.019 1.539,0.391 2.559,0.742 3.559,1.926 0.988,1.141 -0.063,-2.824 -2.739,-4.492 -4.539,-2.863 -9.168,-3.137 -9.168,-3.137 0.899,-2.148 4.649,-2.547 6.785,-2.363 2.922,0.254 5.305,2.324 5.305,2.324 3.305,-5.887 -5.285,-9.695 -5.914,-9.988 2.383,-1.828 4.274,-2.657 5.582,-2.871 0.602,-0.09 1.078,-0.051 1.496,0.097 0.285,0.02 -0.715,-1.484 -3.109,-1.211 -4.008,0.438 -7.5,1.668 -7.5,1.668 5.351,-11.367 11.89,-10.937 12.394,-10.879 0,0 0,-5.046 -7.011,-5.046 -0.364,0 -0.707,0.039 -1.063,0.085 -2.586,0.403 -4.816,2.122 -5.086,2.325 0.11,-3.711 8.317,-7.598 8.317,-7.598 0.433,-0.391 -1.836,-1.219 -4.813,-0.75 -1.496,0.234 -3.168,0.781 -4.777,1.895 -3.789,2.586 -6.856,8.066 -7.129,8.554 -2.102,-8.593 4.883,-12.648 6.609,-12.89 1.039,-0.129 -1.582,-1.348 -4.199,-0.938 -0.492,0.078 -0.98,0.215 -1.449,0.41 -4.883,2.137 -7.602,7.149 -7.852,7.617 -0.097,-0.41 -1.011,-4.687 2.481,-8.769 0.121,-0.137 -0.18,-0.168 -0.649,-0.098 -0.593,0.086 -1.453,0.352 -2.109,0.809 -2.6837,1.914 -4.8751,5.039 -5.3322,9.016 -2.3671,-0.43 -4.0468,-2.735 -4.8671,-4.571 -0.8008,-1.679 -0.7735,-3.789 0.1406,-5.324 1.2578,-2.188 2.5469,-3.242 4.2383,-3.582 1.4101,-0.285 2.8984,-0.227 4.2774,-0.469 1.219,-0.215 2.351,-0.644 3.269,-1.738 1.321,-1.563 0.325,-5.227 -1.785,-4.66 0,0 0.7,1.738 -0.695,3.066 -0.508,0.363 -1.039,0.586 -1.5469,0.664 -1.0586,0.156 -2.043,-0.312 -2.6328,-1.426 -1.2891,-2.41 3.5117,-5.378 5.8127,-6.296 0,0 1.238,-0.793 2.586,-0.997 1.363,-0.214 2.832,0.196 3.183,2.665 -0.492,0.468 -1.769,0.695 -1.73,3.058 0.043,1.895 1.558,2.695 1.558,2.695 0.543,2.293 4.04,2.137 4.04,2.137 0.312,-0.078 0.042,-0.234 -0.145,-0.312 -0.902,-0.313 -1.125,-1.082 -0.941,-1.668 0.168,-0.567 1.925,-1.66 0.539,-5.313 0.23,-0.031 1.808,-0.109 2.101,2.461 0.106,0.985 -0.23,1.902 0.192,2.703 0.343,0.676 1.277,1.153 2.269,0.86 1.039,0.39 1.867,0.468 2.527,0.363 1.903,-0.285 2.36,-2.082 2.36,-2.082 0,0 0.027,-0.223 -0.18,-0.164 -0.172,0.058 -0.402,0.117 -0.66,0.156 -0.918,0.137 -2.129,0.059 -1.93,-0.644 0.129,-0.461 0.52,-1.094 -0.472,-2.375 -1.446,-1.864 -4.469,-0.555 -3.559,-4.403 0.121,0.196 0.895,1.219 2.563,1.063 1.394,-0.137 2.867,-1.778 2.855,-4.09 -0.047,-0.879 -0.387,-1.633 -1.195,-2.18 0,0 -0.133,0.098 -0.094,0.246 0.25,1.055 -0.18,1.778 -0.945,1.934 -1.461,0.117 -0.985,-0.969 -2.774,-0.93 -0.238,0 -0.461,0.02 -0.66,0.059 -0.68,0.097 -1.098,0.332 -1.539,0.39 -0.141,0.02 -0.281,0.032 -0.418,0.012 -2.269,-0.293 -5.172,-1.973 -6.223,-3.555 -1.039,-1.574 0.133,-2.031 -0.82,-3.488 -0.809,-1.25 -1.738,-1.152 -1.738,-1.152 0,0 -0.043,-0.36 0.012,-0.801 0.019,-0.164 0.046,-0.34 0.105,-0.516 m -6,-2.257 c 1.4218,0.421 2.984,0.976 4.59,1.64 -0.188,0.285 -0.356,0.656 -0.488,1.133 -0.098,0.371 -0.172,0.82 -0.2,1.34 0,0 -1.32,1.238 -0.726,2.801 0.726,1.945 2.445,1.347 1.734,3.652 -0.801,2.559 -5.7147,6.836 -8.8241,7.324 -0.7539,0.117 -1.3945,0 -1.8437,-0.39 -1.0508,-0.965 -1.2579,-3.633 2.0703,-3.856 -0.6836,-1.387 -1.8321,-1.769 -3.7383,-1.32 -1.5117,0.344 -3.0703,2.676 -2.4727,5.722 0.793,3.965 -1.6875,7.141 -4.082,7.52 -0.3281,0.051 -0.668,0.051 -0.9844,-0.02 -2.8242,-0.476 -2.3633,-4.617 -2.3633,-4.617 l 1.4493,-16.105 c -0.0782,-0.496 0.1406,-1.25 0.6211,-2.051 0.9336,-1.531 2.8125,-3.27 5.4765,-3.836 2.293,-0.43 4.1211,0.117 4.7305,0.918 0.1641,0.254 1.1523,1.738 0.6523,2.918 -0.1562,0.363 -0.4492,0.695 -0.9375,0.949 -0.1445,0.067 -0.2734,0.106 -0.4023,0.125 -0.8399,0.129 -1.3789,-0.664 -1.543,-0.566 -0.4375,1.105 0.2031,3.105 3.1758,2.551 2.0039,-0.371 2.707,-1.719 2.8672,-3.059 0.1992,-1.551 -0.3281,-3.105 -0.3281,-3.105 0,0 0.6289,0.214 1.5664,0.332 m -8.2969,-5.743 c -0.0313,0.227 -0.0625,0.704 0.0195,1.282 -2.1797,0.613 -4.5703,0.964 -5.9101,1.668 -2.5117,1.203 -3.543,2.746 -3.543,2.746 0,0 -0.1445,-0.188 -0.1172,-1.125 0.5274,-4.707 3.3399,-4.903 6.168,-5.555 1.25,-0.324 2.6133,-1.133 3.3828,-2.422 z M 190.934,537.773 c -0.442,-0.906 -0.422,-2.636 0.222,-3.484 2.352,-3.137 11.598,-4.113 15.871,-0.078 -5.535,0.859 -10.742,2.285 -16.093,3.562 m 25.75,8.665 c 1.382,-1.856 2.968,-3.321 4.589,-3.653 4.582,0.938 8.93,10.86 8.821,13.367 0.211,1.075 -0.852,2.317 -0.641,2.715 0.219,0.383 2.363,-0.398 3.559,-0.398 1.203,0 3.824,1.25 5.621,1.219 3.433,-0.047 3.793,-1.942 4.394,-2.149 0.45,-0.164 1.188,0.078 2.207,-0.437 1.039,-0.508 2.539,-1.914 1.985,-3.293 -1.574,-0.164 -2.364,0.058 -3.227,0.058 -1.156,0 -2.679,-1.23 -2.777,-2.09 -0.008,-0.136 3.258,-0.332 4.879,-0.379 5.133,-0.168 3.414,2.969 3.371,3.125 -0.117,0.594 2.793,-0.05 2.793,-2.363 0,-1.945 -3.34,-3.039 -6.113,-2.805 -2.192,0.196 -4.727,1.211 -5.329,1.301 -0.25,0.039 -1.679,-2.988 0.668,-2.968 0.942,0 1.911,0.546 1.911,0.546 0.472,0 1.332,-1.425 -1.852,-2.109 -4.477,-0.977 -6.836,-1.066 -7.887,-3.984 -0.808,-2.188 -0.48,-4.551 0.731,-6.524 3.441,-5.617 14.426,-4.777 17.019,-1.328 0.891,1.191 1.039,2.84 -0.051,2.84 -3.097,-0.274 -7.839,-0.77 -8.05,3.078 0.05,3.231 5.55,3.191 10.621,8.359 4,4.071 4.808,6.727 5.152,8.848 0.098,0.633 0.125,2.606 0.125,2.606 0.106,0.625 1.652,-1.883 1.82,-2.344 1.141,-2.988 0.301,-6.278 0.301,-6.278 1.18,1.004 2.66,2.676 3.348,3.915 0.391,0.734 0.992,1.75 1.25,2.296 0.391,0.821 0.562,-2.023 0.172,-4.16 -0.559,-3.125 -3.36,-5.734 -3.36,-5.734 5.532,0.031 7.778,6.32 7.778,6.32 4.215,-4.894 -2.453,-11.222 -2.453,-11.222 0,0 0.828,-0.282 2.023,0.011 1.543,0.399 2.574,0.75 3.574,1.934 0.977,1.152 -0.07,-2.824 -2.754,-4.492 -4.535,-2.864 -9.168,-3.125 -9.168,-3.125 0.903,-2.149 4.653,-2.559 6.789,-2.375 2.922,0.265 5.301,2.336 5.301,2.336 3.321,-5.891 -5.277,-9.707 -5.91,-9.993 2.379,-1.836 4.27,-2.664 5.594,-2.871 0.59,-0.086 1.066,-0.047 1.488,0.09 0.277,0.02 -0.719,-1.476 -3.109,-1.211 -4.012,0.43 -7.5,1.668 -7.5,1.668 5.347,-11.355 11.886,-10.926 12.39,-10.879 0,0 0,-5.039 -7.011,-5.039 -0.364,0 -0.711,0.031 -1.059,0.078 -2.594,0.403 -4.82,2.121 -5.094,2.336 0.114,-3.711 8.321,-7.597 8.321,-7.597 0.429,-0.391 -1.84,-1.223 -4.809,-0.754 -1.5,0.226 -3.172,0.781 -4.781,1.886 -3.781,2.586 -6.852,8.075 -7.117,8.563 -2.102,-8.602 4.867,-12.656 6.609,-12.891 1.039,-0.125 -1.582,-1.347 -4.199,-0.937 -0.504,0.07 -0.992,0.207 -1.461,0.41 -4.883,2.141 -7.602,7.148 -7.852,7.617 -0.101,-0.41 -1,-4.687 2.492,-8.777 0.106,-0.137 -0.191,-0.168 -0.66,-0.09 -0.582,0.09 -1.449,0.344 -2.109,0.812 -2.68,1.903 -4.871,5.04 -5.332,9.004 -2.367,-0.429 -4.047,-2.726 -4.867,-4.57 -0.801,-1.68 -0.774,-3.789 0.144,-5.324 1.25,-2.188 2.543,-3.231 4.235,-3.582 1.406,-0.285 2.902,-0.235 4.277,-0.469 1.223,-0.215 2.351,-0.644 3.269,-1.73 1.321,-1.563 0.332,-5.223 -1.789,-4.668 0,0 0.704,1.75 -0.687,3.066 -0.512,0.371 -1.043,0.586 -1.539,0.664 -1.074,0.168 -2.043,-0.301 -2.645,-1.414 -1.289,-2.422 3.512,-5.383 5.813,-6.301 0,0 1.25,-0.789 2.59,-1.004 1.371,-0.207 2.832,0.203 3.191,2.676 -0.504,0.469 -1.781,0.684 -1.734,3.047 0.031,1.895 1.554,2.703 1.554,2.703 0.536,2.285 4.047,2.141 4.047,2.141 0.305,-0.078 0.039,-0.246 -0.16,-0.313 -0.898,-0.324 -1.117,-1.094 -0.937,-1.672 0.179,-0.566 1.925,-1.66 0.535,-5.32 0.246,-0.031 1.812,-0.098 2.105,2.461 0.117,0.984 -0.234,1.914 0.188,2.715 0.347,0.664 1.281,1.14 2.269,0.859 1.047,0.391 1.867,0.469 2.531,0.36 1.903,-0.282 2.372,-2.079 2.372,-2.079 0,0 0.019,-0.234 -0.18,-0.187 -0.172,0.07 -0.41,0.129 -0.672,0.176 -0.922,0.136 -2.129,0.058 -1.93,-0.645 0.129,-0.457 0.52,-1.101 -0.472,-2.383 -1.45,-1.855 -4.465,-0.546 -3.559,-4.402 0.133,0.195 0.891,1.231 2.559,1.063 1.402,-0.125 2.882,-1.766 2.863,-4.102 -0.051,-0.867 -0.395,-1.609 -1.203,-2.168 0,0 -0.117,0.098 -0.086,0.246 0.258,1.055 -0.184,1.777 -0.953,1.934 -1.461,0.125 -0.969,-0.969 -2.77,-0.93 -0.238,0 -0.461,0.02 -0.66,0.051 -0.668,0.117 -1.09,0.34 -1.535,0.398 -0.133,0.02 -0.274,0.031 -0.422,0.012 -2.269,-0.285 -5.172,-1.965 -6.223,-3.547 -1.039,-1.582 0.129,-2.031 -0.816,-3.496 -0.805,-1.25 -1.746,-1.152 -1.746,-1.152 0,0 -0.039,-0.352 0.012,-0.789 0.082,-0.625 0.332,-1.407 1.132,-1.575 0,0 0.247,-0.117 0.028,-0.175 -0.246,-0.086 -0.727,-0.223 -1.25,-0.145 -0.641,0.098 -1.348,0.535 -1.699,1.895 -0.102,0.371 -0.168,0.82 -0.2,1.336 0,0 -1.316,1.242 -0.73,2.804 0.73,1.934 2.449,1.348 1.742,3.641 -0.793,2.57 -5.723,6.847 -8.836,7.336 -0.746,0.105 -1.387,0 -1.836,-0.41 -1.047,-0.95 -1.258,-3.625 2.07,-3.84 -0.671,-1.395 -1.828,-1.766 -3.738,-1.328 -1.504,0.343 -3.07,2.675 -2.472,5.714 0.789,3.985 -1.688,7.157 -4.071,7.528 -0.336,0.058 -0.679,0.058 -1,-0.02 -2.816,-0.476 -2.359,-4.617 -2.359,-4.617 l 1.449,-16.094 c -0.078,-0.507 0.145,-1.25 0.621,-2.05 0.93,-1.543 2.82,-3.274 5.481,-3.84 2.289,-0.438 4.129,0.117 4.73,0.918 0.16,0.246 1.149,1.738 0.649,2.922 -0.161,0.359 -0.45,0.683 -0.938,0.945 -0.141,0.058 -0.273,0.098 -0.391,0.117 -0.847,0.129 -1.382,-0.652 -1.55,-0.555 -0.442,1.102 0.199,3.094 3.179,2.528 2,-0.371 2.7,-1.699 2.868,-3.035 0.191,-1.555 -0.336,-3.118 -0.336,-3.118 0,0 1.726,0.618 3.781,0.305 0.187,-0.031 0.379,-0.07 0.578,-0.117 1.598,-0.656 2.73,-1.438 2.961,-3.145 0.258,-1.992 -1.449,-2.949 -1.449,-2.949 0,0 0.523,1.434 -0.985,2.313 -0.41,0.207 -0.781,0.332 -1.129,0.39 -1.98,0.293 -2.992,-1.726 -2.879,-3.25 0.133,-2.441 -0.476,-4.375 -2.308,-4.629 -0.422,-0.031 -0.774,-0.011 -1.063,0.028 -1.332,0.195 -1.429,1.015 -1.429,1.015 0,0 1.976,-0.175 1.922,1.641 0.199,4.523 -7.704,4.426 -10.622,5.937 -2.511,1.204 -3.531,2.754 -3.531,2.754 0,0 -0.16,-0.183 -0.129,-1.132 0.532,-4.696 3.34,-4.903 6.168,-5.547 1.879,-0.496 4.008,-2.071 4.008,-4.727 0,-3.769 -2.476,-3.359 -2.476,-3.359 0,0 0.988,3 -1.743,3.429 -0.199,0.028 -0.425,0.047 -0.675,0.047 -1.543,0 -2.422,-0.781 -3.352,-1.523 -1.449,-1.16 -5.75,-6.199 -6.59,-7.02 -0.84,0.821 -5.152,5.86 -6.601,7.02 -0.93,0.742 -1.809,1.523 -3.352,1.523 -0.246,0 -0.469,-0.019 -0.68,-0.047 -2.726,-0.429 -1.734,-3.429 -1.734,-3.429 0,0 -2.48,-0.41 -2.48,3.359 0,2.656 2.125,4.231 4.007,4.727 2.832,0.644 5.641,0.851 6.172,5.547 0.028,0.949 -0.133,1.132 -0.133,1.132 0,0 -1.019,-1.55 -3.531,-2.754 -2.918,-1.511 -10.82,-1.414 -10.617,-5.937 -0.063,-1.816 1.918,-1.641 1.918,-1.641 0,0 -0.098,-0.82 -1.426,-1.015 -0.293,-0.039 -0.644,-0.059 -1.066,-0.028 -1.824,0.254 -2.438,2.188 -2.309,4.629 0.113,1.524 -0.898,3.543 -2.875,3.25 -0.351,-0.058 -0.723,-0.183 -1.133,-0.39 -1.507,-0.879 -0.98,-2.313 -0.98,-2.313 0,0 -1.711,0.957 -1.453,2.949 0.234,1.707 1.363,2.489 2.965,3.145 0.199,0.047 0.39,0.086 0.578,0.117 2.058,0.313 3.781,-0.305 3.781,-0.305 0,0 -0.531,1.563 -0.34,3.118 0.172,1.336 0.867,2.664 2.879,3.035 2.969,0.566 3.609,-1.426 3.172,-2.528 -0.172,-0.097 -0.699,0.684 -1.551,0.555 -0.121,-0.019 -0.254,-0.059 -0.391,-0.117 -0.492,-0.262 -0.781,-0.586 -0.941,-0.945 -0.496,-1.184 0.492,-2.676 0.649,-2.922 0.601,-0.801 2.441,-1.356 4.734,-0.918 2.66,0.566 4.551,2.297 5.476,3.84 0.485,0.8 0.704,1.543 0.622,2.05 l 1.449,16.094 c 0,0 0.461,4.141 -2.36,4.617 -0.32,0.078 -0.66,0.078 -0.992,0.02 -2.387,-0.371 -4.867,-3.543 -4.074,-7.528 0.594,-3.039 -0.965,-5.371 -2.473,-5.714 -1.91,-0.438 -3.07,-0.067 -3.738,1.328 3.328,0.215 3.117,2.89 2.07,3.84 -0.449,0.41 -1.093,0.515 -1.839,0.41 -3.114,-0.489 -8.043,-4.766 -8.833,-7.336 -0.71,-2.293 1.008,-1.707 1.743,-3.641 0.59,-1.562 -0.735,-2.804 -0.735,-2.804 -0.027,-0.516 -0.097,-0.965 -0.199,-1.336 -0.348,-1.36 -1.059,-1.797 -1.699,-1.895 -0.52,-0.078 -1,0.059 -1.25,0.145 0.828,0.343 1.078,1.125 1.16,1.75 0.051,0.437 0.012,0.789 0.012,0.789 0,0 -0.946,-0.098 -1.742,1.152 -0.95,1.465 0.222,1.914 -0.817,3.496 -1.051,1.582 -3.949,3.262 -6.223,3.547 -0.152,0.019 -0.292,0.008 -0.417,-0.012 -0.45,-0.058 -0.872,-0.281 -1.543,-0.398 -0.204,-0.031 -0.422,-0.051 -0.661,-0.051 -1.8,-0.039 -1.308,1.055 -2.769,0.93 -0.77,-0.157 -1.211,-0.879 -0.949,-1.934 0.027,-0.148 -0.09,-0.246 -0.09,-0.246 -0.813,0.559 -1.153,1.301 -1.199,2.168 -0.024,2.336 1.457,3.977 2.859,4.102 1.672,0.168 2.441,-0.868 2.559,-1.063 0.91,3.856 -2.11,2.547 -3.559,4.402 -0.992,1.282 -0.602,1.926 -0.469,2.383 0.199,0.703 -1.012,0.781 -1.933,0.645 -0.258,-0.047 -0.5,-0.106 -0.661,-0.176 -0.191,0.187 0.286,1.984 2.184,2.266 0.656,0.109 1.488,0.031 2.527,-0.36 0.993,0.281 1.918,-0.195 2.274,-0.859 0.418,-0.801 0.066,-1.731 0.187,-2.715 0.289,-2.559 1.864,-2.492 2.102,-2.461 -1.395,3.66 0.359,4.754 0.535,5.32 0.184,0.578 -0.039,1.348 -0.937,1.672 -0.2,0.067 -0.457,0.235 -0.161,0.313 0,0 3.512,0.144 4.051,-2.141 0,0 1.52,-0.808 1.551,-2.703 0.047,-2.363 -1.231,-2.578 -1.731,-3.047 0.36,-2.473 1.817,-2.883 3.192,-2.676 1.336,0.215 2.586,1.004 2.586,1.004 2.301,0.918 7.105,3.879 5.808,6.301 -0.597,1.113 -1.566,1.582 -2.632,1.414 -0.504,-0.078 -1.032,-0.293 -1.543,-0.664 -1.387,-1.316 -0.692,-3.066 -0.692,-3.066 -2.117,-0.555 -3.109,3.105 -1.793,4.668 0.926,1.086 2.055,1.515 3.274,1.73 1.383,0.234 2.871,0.184 4.281,0.469 1.691,0.351 2.98,1.394 4.23,3.582 0.918,1.535 0.946,3.644 0.153,5.324 -0.824,1.844 -2.5,4.141 -4.875,4.57 -0.457,-3.964 -2.649,-7.101 -5.328,-9.004 -0.661,-0.468 -1.532,-0.722 -2.11,-0.812 -0.472,-0.078 -0.769,-0.047 -0.664,0.09 3.5,4.09 2.594,8.367 2.492,8.777 -0.25,-0.469 -2.968,-5.476 -7.847,-7.617 -0.473,-0.203 -0.961,-0.34 -1.461,-0.41 -2.613,-0.41 -5.231,0.812 -4.203,0.937 1.742,0.235 8.711,4.289 6.613,12.891 -0.27,-0.488 -3.332,-5.977 -7.121,-8.563 -1.61,-1.105 -3.281,-1.66 -4.781,-1.886 -2.969,-0.469 -5.239,0.363 -4.809,0.754 0,0 8.207,3.886 8.32,7.597 -0.269,-0.215 -2.5,-1.933 -5.09,-2.336 -0.347,-0.047 -0.703,-0.078 -1.062,-0.078 -7.008,0 -7.008,5.039 -7.008,5.039 0.5,-0.047 7.043,-0.476 12.391,10.879 0,0 -3.492,-1.238 -7.5,-1.668 -2.391,-0.265 -3.391,1.231 -3.113,1.211 0.421,-0.137 0.906,-0.176 1.492,-0.09 1.32,0.207 3.211,1.035 5.59,2.871 -0.629,0.286 -9.231,4.102 -5.911,9.993 0,0 2.379,-2.071 5.297,-2.336 2.145,-0.184 5.895,0.226 6.793,2.375 0,0 -4.629,0.261 -9.168,3.125 -0.14,0.097 -0.277,0.183 -0.41,0.281 -2.07,0.012 -4.211,-0.098 -6.433,-0.332 -1.469,-5.75 -6.239,-9.969 -11.887,-9.969 -5.629,0 -10.383,4.18 -11.871,9.891 -3.672,0.656 -7.2,0.742 -10.649,0.461 L 49.9063,454.863 c 7.7695,-7.265 16.2695,-13.425 25.1367,-18.562 l 75.273,80.144 v -42.429 l -47.269,-50.332 c 17.187,-5.813 34.516,-8.45 49.867,-8.45 58.703,0 146.371,38.469 144.371,146.075 v 69.218 l -37.613,-40.058 h -39.848 l 77.461,82.5 v 45.351 l -81.211,-86.492 c 0.371,-0.312 0.59,-0.664 0.59,-1.035 z m -8.758,-25.95 h 26.719 v 10.742 h -26.731 z m 13.359,-20.957 c 12.012,0 13.063,11.348 13.063,11.348 h -26.211 c 0,0 1.125,-11.348 13.148,-11.348 M 61.9258,686.516 h 26.7187 v 10.742 H 61.9141 Z m 13.3555,-20.957 c 12.0156,0 13.0625,11.347 13.0625,11.347 h -26.211 c 0,0 1.1328,-11.347 13.1485,-11.347 M 147.363,542.031 c 0,-3.172 2.582,-5.75 5.75,-5.75 3.18,0 5.754,2.578 5.754,5.75 0,3.164 -2.574,5.742 -5.754,5.742 -3.168,0 -5.75,-2.578 -5.75,-5.742 M 93.1523,628.605 V 540.48 c 0,0 0.9649,-1.183 6.8517,0.43 6.781,1.844 15.191,10.488 26.969,13.055 8.843,1.926 20.761,-0.86 23.539,-2.781 v 88.281 c 0,0 -5.336,5.242 -14.117,5.242 -8.567,0 -23.02,-7.695 -28.579,-10.488 -4.843,-2.41 -9.9293,-4.239 -13.6402,-4.598 -1.1172,-0.098 -1.0235,-1.016 -1.0235,-1.016 M 170.414,554.18 c 15.309,0 23.281,-9.492 28.473,-11.563 12.09,-4.812 14.117,-2.351 14.117,-2.351 v 88.601 c 0,0.86 -1.281,0.86 -1.281,0.86 0,0 -11.785,1.808 -15.84,4.277 -3.848,2.355 -18.188,10.93 -28.676,10.93 -10.523,0 -12.41,-4.504 -12.41,-4.504 v -89.461 c 0,0 4.922,3.211 15.617,3.211" />
    </g>
  </g>
  <g
     id="g157"
     transform="translate(-62.69414,45.700955)"
     style="stroke:none">
    <path
       inkscape:connector-curvature="0"
       id="path86"
       d="m 753.08239,419.68943 c -0.67957,-0.38848 -1.94795,-0.71421 -2.81861,-0.72384 -0.87066,-0.01 -2.09389,-0.21676 -2.7183,-0.46028 -0.62441,-0.24352 -2.13612,-0.71369 -3.35936,-1.04481 -1.22323,-0.33112 -2.66888,-0.76828 -3.21254,-0.97146 -2.08538,-0.77936 -4.54383,-1.49486 -5.13633,-1.49486 -0.3399,0 -0.91449,-0.29648 -1.27686,-0.65885 -0.36237,-0.36237 -1.95893,-1.04263 -3.54792,-1.51169 -1.58898,-0.46905 -3.27525,-1.0622 -3.74727,-1.31809 -0.47201,-0.2559 -1.26156,-0.46527 -1.75454,-0.46527 -0.49298,0 -1.10762,-0.18896 -1.36586,-0.41991 -0.25824,-0.23096 -1.47036,-0.80523 -2.69359,-1.27617 -1.22324,-0.47094 -2.89129,-1.15271 -3.70678,-1.51503 -0.81549,-0.36232 -2.70272,-1.17809 -4.19385,-1.81281 -1.49112,-0.63473 -4.99828,-2.32168 -7.79369,-3.74879 -2.79541,-1.42711 -5.30071,-2.59475 -5.56735,-2.59475 -0.26662,0 -0.92959,-0.44481 -1.47325,-0.98847 -0.54366,-0.54366 -1.33147,-0.98848 -1.75069,-0.98848 -0.41922,0 -1.03084,-0.23537 -1.35915,-0.52305 -0.32831,-0.28768 -2.89321,-1.90013 -5.69977,-3.58322 -2.80656,-1.68309 -5.47544,-3.28541 -5.93085,-3.5607 -0.45541,-0.2753 -1.90217,-1.14084 -3.21503,-1.92344 -1.79852,-1.0721 -2.22499,-1.53897 -1.72983,-1.89371 0.49727,-0.35625 0.45467,-0.40616 -0.17506,-0.20512 -0.47399,0.15132 -1.58361,-0.30731 -2.57769,-1.06541 -0.95999,-0.73211 -2.80955,-2.10569 -4.11012,-3.05241 -2.61216,-1.90144 -7.38583,-5.86659 -9.82802,-8.16344 -3.40818,-3.20536 -5.98491,-5.72999 -8.29183,-8.12417 -1.32591,-1.37606 -2.60475,-2.50194 -2.84186,-2.50194 -0.23711,0 -0.43111,-0.31507 -0.43111,-0.70017 0,-0.38509 -0.19142,-0.7743 -0.42537,-0.86491 -0.52412,-0.203 -6.17421,-6.77212 -7.23531,-8.4122 -0.27183,-0.42015 -1.66188,-2.45162 -3.08899,-4.51438 -1.42711,-2.06276 -2.59474,-3.95569 -2.59474,-4.20651 0,-0.25083 -0.31888,-0.7207 -0.70863,-1.04415 -0.58431,-0.48494 -2.53985,-3.912 -4.24582,-7.44073 -0.19712,-0.40774 -0.84034,-1.72497 -1.42936,-2.92717 -0.90277,-1.84253 -0.96544,-2.29133 -0.39905,-2.85772 1.00757,-1.00757 13.45784,-5.11963 19.88015,-6.566 1.08732,-0.24487 2.97778,-0.69395 4.20101,-0.99795 1.22324,-0.30401 3.55851,-0.77717 5.1895,-1.05148 1.63098,-0.2743 4.18866,-0.71334 5.68372,-0.97563 1.49507,-0.26229 4.38636,-0.59152 6.42509,-0.73163 2.03873,-0.14011 4.15182,-0.47329 4.69576,-0.7404 2.03133,-0.9975 28.32349,-0.0242 34.5961,1.28077 0.81549,0.16965 2.59475,0.52308 3.9539,0.78541 4.24144,0.81862 11.8158,2.54536 12.85017,2.92948 0.54366,0.20189 3.99097,1.32824 7.66068,2.50299 3.66971,1.17476 7.22822,2.42313 7.9078,2.77416 0.67957,0.35103 1.3958,0.63961 1.59162,0.64128 0.19582,0.002 1.53026,0.53644 2.96542,1.18838 3.87412,1.75983 6.38135,2.76856 6.88137,2.76856 0.24446,0 0.70507,-0.57194 1.02357,-1.27098 0.44657,-0.98011 0.44274,-1.35526 -0.0167,-1.63922 -0.45144,-0.279 -0.56439,-4.81583 -0.46614,-18.72296 l 0.12967,-18.35473 5.43661,2.24656 c 2.99013,1.2356 6.38779,2.67105 7.55034,3.18988 1.16255,0.51882 2.64526,0.94332 3.29492,0.94332 0.64965,0 1.25531,0.21935 1.34593,0.48745 0.31104,0.92033 14.08201,4.46136 20.42847,5.25292 1.08732,0.13562 2.42176,0.44176 2.96542,0.68032 1.56074,0.68485 17.43788,1.94782 24.46475,1.94608 3.29676,-7.9e-4 15.29885,-0.78489 18.03966,-1.1785 1.08732,-0.15615 3.93048,-0.53627 6.31812,-0.84471 2.38764,-0.30844 4.45803,-0.74989 4.60086,-0.981 0.14284,-0.2311 1.23428,-0.42019 2.42543,-0.42019 1.19115,0 2.30318,-0.22241 2.47118,-0.49424 0.168,-0.27183 0.96632,-0.49423 1.77405,-0.49423 2.18802,0 11.78361,-2.50792 12.55782,-3.28214 0.36947,-0.36947 1.24669,-0.67176 1.94937,-0.67176 0.70268,0 1.66379,-0.19646 2.13581,-0.43658 1.21717,-0.61917 2.88852,-1.28555 6.29482,-2.50979 2.83998,-1.02069 4.94231,-1.93493 8.59764,-3.73884 1.46479,-0.72287 1.64107,-0.73118 1.38554,-0.0653 -0.16102,0.41961 -0.33611,2.56128 -0.38908,4.75925 -0.053,2.19796 -0.28726,4.11431 -0.52064,4.25854 -0.23337,0.14423 -0.42431,1.31667 -0.42431,2.60541 0,1.28875 -0.19088,2.55446 -0.42418,2.8127 -0.23329,0.25824 -0.72715,1.91517 -1.09746,3.68207 -0.82389,3.93118 -0.7363,3.55835 -1.04501,4.44813 -2.26651,6.53267 -3.02192,8.87437 -3.22863,10.00831 -0.13627,0.74753 -0.44492,1.35915 -0.6859,1.35915 -0.24098,0 -0.43814,0.33663 -0.43814,0.74806 0,0.41144 -0.21344,1.13426 -0.4743,1.60627 -0.26087,0.47202 -1.1951,2.41506 -2.07607,4.31787 -0.88097,1.90282 -2.55799,5.04468 -3.72672,6.98192 -1.16872,1.93723 -2.12495,3.75355 -2.12495,4.03627 0,0.28271 -0.18223,0.58815 -0.40495,0.67876 -0.22273,0.0906 -1.36648,1.58928 -2.54166,3.33039 -1.17519,1.7411 -2.41711,3.52035 -2.75982,3.9539 -2.20723,2.7922 -6.59433,7.97436 -7.97728,9.42299 -0.9007,0.94349 -1.63764,1.91251 -1.63764,2.15339 0,0.24088 -0.34516,0.30552 -0.76703,0.14363 -0.4428,-0.16991 -0.63847,-0.0863 -0.46291,0.19774 0.16726,0.27063 -0.0351,0.62224 -0.44975,0.78135 -0.41463,0.15911 -0.89363,0.72964 -1.06445,1.26784 -0.1777,0.55989 -0.5979,0.86831 -0.98212,0.72087 -0.43399,-0.16654 -0.57432,-0.004 -0.39671,0.4585 0.15115,0.3939 0.0647,0.71618 -0.19215,0.71618 -0.25683,0 -1.44826,0.99916 -2.64762,2.22035 -1.19936,1.22119 -2.45866,2.22202 -2.79845,2.22407 -0.33979,0.002 -0.61779,0.18906 -0.61779,0.41558 0,1.58295 -19.71924,16.3922 -21.82702,16.3922 -0.49934,0 -0.9079,0.33361 -0.9079,0.74136 0,0.40775 -0.2605,0.74136 -0.57888,0.74136 -0.31838,0 -0.93,0.30478 -1.35915,0.67729 -0.42915,0.37251 -1.78111,1.23169 -3.00434,1.90929 -1.22324,0.6776 -3.05078,1.72491 -4.0612,2.32735 -1.03119,0.61484 -2.11528,0.93498 -2.47118,0.72978 -0.34874,-0.20107 -0.4748,-0.18919 -0.28015,0.0264 0.63454,0.70276 -1.92564,2.22666 -9.00307,5.35894 -1.49506,0.66167 -3.83033,1.70614 -5.18949,2.32103 -3.61299,1.63454 -7.69525,3.46836 -9.39051,4.21837 -0.81549,0.36078 -2.42794,0.92761 -3.58322,1.25962 -1.15528,0.33201 -2.1005,0.79086 -2.1005,1.01966 0,0.2288 -0.44784,0.41601 -0.99519,0.41601 -0.54734,0 -1.38137,0.21729 -1.85339,0.48287 -0.47201,0.26558 -1.80343,0.71897 -2.95871,1.00753 -1.15528,0.28855 -2.10051,0.73848 -2.10051,0.99983 0,0.26135 -0.37342,0.47519 -0.82983,0.47519 -0.81363,0 -3.39074,0.7345 -5.34814,1.52427 -0.54366,0.21936 -2.32291,0.66954 -3.9539,1.00042 -1.63098,0.33088 -3.37045,0.8041 -3.86549,1.05161 -1.07273,0.53633 -6.06379,1.86771 -6.90828,1.84279 -0.32653,-0.01 -1.1497,-0.33536 -1.82928,-0.72384 z"
       style="fill:#004c92;fill-opacity:1;stroke:none;stroke-width:0.33490789;stroke-miterlimit:4;stroke-dasharray:0.66981579, 1.33963158000000004;stroke-dashoffset:0" />
    <path
       inkscape:connector-curvature="0"
       id="path88"
       d="m 620.15685,145.63486 c -0.0616,-21.63187 -0.0566,-21.74644 0.95384,-21.74644 1.07719,0 9.54962,-2.68082 11.00042,-3.48073 0.47202,-0.26024 1.40412,-0.47317 2.07134,-0.47317 0.66722,0 1.35059,-0.22241 1.51859,-0.49424 0.168,-0.27183 0.91507,-0.49424 1.66015,-0.49424 0.74508,0 1.56974,-0.21504 1.83257,-0.47787 0.26283,-0.26283 1.54867,-0.58273 2.85741,-0.71089 1.30875,-0.12817 2.86184,-0.54781 3.45132,-0.93256 0.58947,-0.38474 1.73899,-0.8333 2.55448,-0.99681 3.34805,-0.67127 6.20786,-1.30599 11.35844,-2.52092 2.98518,-0.70414 5.48726,-1.28027 5.56017,-1.28027 0.0729,0 0.13258,-0.47105 0.13258,-1.04678 0,-0.57574 -0.61162,-1.76723 -1.35916,-2.64776 -2.14802,-2.5302 -2.71668,-3.29301 -4.80267,-6.44237 -1.07844,-1.62821 -2.19047,-3.185637 -2.47118,-3.460967 -0.7047,-0.69117 -2.24334,-3.271 -2.57544,-4.31822 -0.15087,-0.4757 -0.47077,-0.86491 -0.71089,-0.86491 -0.24013,0 -0.4366,-0.41759 -0.4366,-0.92796 0,-0.51038 -0.32499,-1.19768 -0.72221,-1.52735 -0.39722,-0.32966 -0.87453,-1.07971 -1.06068,-1.66679 -0.18615,-0.58707 -0.86199,-1.897 -1.50185,-2.91097 -0.63987,-1.01396 -1.16339,-2.17622 -1.16339,-2.5828 0,-0.40657 -0.44398,-1.46743 -0.98663,-2.35744 -0.54264,-0.89002 -0.98746,-2.11863 -0.98847,-2.73025 -10e-4,-0.61162 -0.1972,-1.11204 -0.43597,-1.11204 -0.23876,0 -0.66323,-0.83402 -0.94324,-1.85339 -0.50752,-1.84754 -1.37987,-4.42548 -2.13237,-6.30152 -0.41114,-1.025 -0.94988,-5.32344 -0.99112,-7.9078 -0.0402,-2.52107 0.64807,-7.1706 1.10315,-7.45185 0.23775,-0.146939 0.43228,-0.92126 0.43228,-1.720709 0,-0.799448 0.19825,-1.453542 0.44057,-1.453542 0.24231,0 0.78388,-0.858001 1.20347,-1.906668 1.30211,-3.254296 6.058,-6.771353 11.94748,-8.835362 2.76156,-0.967805 6.91108,-1.704308 8.64915,-1.535145 l 1.72983,0.168362 0.31883,4.448135 c 0.30272,4.223337 0.76034,7.26255 1.93489,12.850169 0.2857,1.35915 0.64289,3.19607 0.79375,4.08204 0.15086,0.88597 0.47213,1.73312 0.71392,1.88256 0.2418,0.14944 0.43963,1.02388 0.43963,1.9432 0,0.91932 0.24692,1.82409 0.54871,2.01061 0.33139,0.20481 0.43481,1.04828 0.26112,2.12968 -0.19031,1.18496 -0.13415,1.5445 0.16607,1.06305 0.50453,-0.80911 0.67122,-0.52858 1.16647,1.9631 0.29746,1.49658 2.84391,8.90623 4.58276,13.33495 1.35827,3.45937 1.82546,4.51277 5.37455,12.11827 1.26849,2.7183 2.55988,5.498387 2.86976,6.177957 0.30988,0.67958 0.99315,1.8716 1.51837,2.64893 1.05278,1.5581 1.12895,1.56059 9.95389,0.32586 1.90281,-0.26623 5.06361,-0.62836 7.024,-0.80473 2.54942,-0.22936 3.80064,-0.58177 4.39419,-1.23764 0.78479,-0.86719 0.67452,-1.23264 -2.03139,-6.731977 -4.27111,-8.68039 -4.59269,-9.44389 -9.42267,-22.37196 -0.35545,-0.95141 -1.33515,-3.9539 -2.17712,-6.6722 -0.84197,-2.71831 -1.72817,-5.38719 -1.96933,-5.93085 -0.45721,-1.0307 -0.89169,-2.82941 -1.34416,-5.56475 -0.14656,-0.88597 -0.4643,-1.73312 -0.7061,-1.88256 -0.24179,-0.14944 -0.43963,-1.35749 -0.43963,-2.684556 0,-1.327067 -0.23307,-2.556897 -0.51795,-2.73296 -0.31307,-0.193488 -0.39427,-1.144856 -0.20528,-2.405116 0.23704,-1.580695 0.12323,-2.242226 -0.47052,-2.735001 -1.1478,-0.952578 -1.15718,-16.302787 -0.011,-18.052017 0.42468,-0.648147 0.71468,-1.474349 0.64446,-1.836002 -0.3416,-1.759094 2.16573,-6.87317 4.76135,-9.711486 2.48901,-2.72174 6.68338,-5.203029 10.16399,-6.012772 1.4774,-0.343703 3.33099,-0.819619 4.11908,-1.057579 0.78808,-0.237965 4.81984,-0.43266 8.95946,-0.43266 5.72964,0 7.97109,0.185734 9.38851,0.777974 1.52713,0.63807 1.93656,0.660291 2.27686,0.123559 0.2282,-0.359928 0.41832,-10.721084 0.42248,-23.024791 l 0.008,-22.370376 2.59474,-1.610838 c 2.76363,-1.715685 6.28605,-3.151753 9.51407,-3.87883 3.56341,-0.802619 7.37206,-1.48472 9.76119,-1.748155 l 2.34762,-0.258859 V 59.589873 c 0,108.389567 0.0385,106.149477 -1.79082,104.320197 -0.27819,-0.27819 -0.93429,-0.59815 -1.458,-0.71102 -1.66998,-0.35989 -6.03044,-2.03039 -6.71581,-2.57283 -0.3638,-0.28795 -1.65126,-0.67485 -2.86102,-0.8598 -1.20975,-0.18495 -2.43298,-0.52072 -2.7183,-0.74616 -1.61805,-1.27846 -19.26531,-4.97098 -29.92588,-6.26171 -8.62594,-1.04439 -31.94448,-1.00418 -39.29186,0.0677 -7.96705,1.16232 -14.08829,2.20588 -17.79254,3.03328 -3.48955,0.77944 -12.50335,3.37681 -14.33289,4.13008 -0.54366,0.22384 -1.8781,0.67829 -2.96542,1.00987 -1.89772,0.57873 -3.30677,1.12305 -6.79576,2.62521 -0.88345,0.38037 -2.3291,0.99068 -3.21254,1.35625 -0.88345,0.36556 -1.60628,0.83278 -1.60628,1.03826 0,0.20547 -0.43168,0.37358 -0.9593,0.37358 -0.52762,0 -1.09676,0.22241 -1.26476,0.49424 -0.168,0.27183 -0.49534,0.49424 -0.72742,0.49424 -0.23207,0 -0.44983,-9.7859 -0.48389,-21.74644 z"
       style="fill:#f3a401;fill-opacity:1;stroke:none;stroke-width:0.33490789;stroke-miterlimit:4;stroke-dasharray:0.66981579, 1.33963158000000004;stroke-dashoffset:0" />
    <path
       inkscape:connector-curvature="0"
       id="path90"
       d="m 788.57326,102.10182 c -3.72153,-0.21335 -7.22444,-0.63302 -7.78424,-0.93262 -1.01643,-0.54397 -1.01781,-0.60725 -1.01781,-46.677987 0,-42.28983 0.068,-46.189796 0.81644,-46.811597 0.62824,-0.521949 2.87838,-0.672873 9.76119,-0.654714 8.83614,0.02331 13.41187,0.443035 13.92763,1.277549 0.14572,0.235775 0.7947,0.428682 1.44219,0.428682 0.6475,0 1.31508,0.222992 1.48352,0.495539 0.16844,0.272546 1.238,0.924203 2.3768,1.448125 4.09333,1.883215 8.93653,8.584369 10.02581,13.871929 0.85148,4.13325 0.22779,24.131999 -0.79379,25.45322 -0.21019,0.271831 -0.63438,1.828678 -0.94265,3.459661 -0.30828,1.630986 -0.77719,3.799446 -1.04204,4.818816 -1.33243,5.12832 -1.61238,6.13082 -1.96675,7.04288 -0.21124,0.54366 -0.7237,2.10051 -1.13881,3.45966 -1.09296,3.57856 -2.35146,7.11703 -3.36439,9.45953 -0.48659,1.12528 -1.03094,2.62863 -1.20968,3.34077 -0.17874,0.71214 -0.52274,1.41703 -0.76446,1.56642 -0.24172,0.14939 -0.43949,0.58551 -0.43949,0.96916 0,0.38364 -0.58002,1.98297 -1.28893,3.55405 -0.70891,1.57108 -1.61724,3.63493 -2.0185,4.58634 -0.40126,0.95141 -0.97312,2.17465 -1.27081,2.71831 -0.29768,0.54366 -1.2952,2.48972 -2.2167,4.32457 l -1.67547,3.336097 -2.06632,-0.0733 c -1.13647,-0.0403 -5.11121,-0.24781 -8.83274,-0.46114 z"
       style="fill:#f3a401;fill-opacity:1;stroke:none;stroke-width:0.33490789;stroke-miterlimit:4;stroke-dasharray:0.66981579, 1.33963158000000004;stroke-dashoffset:0" />
    <path
       inkscape:connector-curvature="0"
       id="path94"
       d="m 841.78425,110.075 c -1.21477,-0.49254 -11.64921,-2.43653 -17.65525,-3.28926 -1.33597,-0.18968 -2.34762,-0.5932 -2.34762,-0.93641 0,-0.33169 0.65055,-1.91316 1.44567,-3.51437 0.79511,-1.60121 2.15144,-4.468137 3.01406,-6.370947 2.1481,-4.73842 2.8516,-5.9489 3.38485,-5.82419 0.25084,0.0587 0.35227,-0.29027 0.2254,-0.77541 -0.12686,-0.48514 0.31369,-2.08999 0.979,-3.56632 0.66532,-1.47634 1.94929,-4.90832 2.85327,-7.62662 0.90398,-2.71831 2.01683,-5.43939 2.47299,-6.04686 0.45616,-0.60747 0.84213,-2.02848 0.85772,-3.1578 0.0156,-1.12933 0.26425,-2.28924 0.5526,-2.57758 0.28835,-0.28835 0.52427,-1.24509 0.52427,-2.12608 0,-0.881 0.19783,-1.72409 0.43963,-1.87353 0.24179,-0.14943 0.56306,-0.99659 0.71392,-1.88255 0.15086,-0.88597 0.52077,-2.72289 0.82203,-4.08204 0.83853,-3.783188 1.51667,-8.468027 1.88844,-13.046045 0.42757,-5.265138 0.61807,-5.406159 6.10396,-4.518607 2.26478,0.366414 4.45139,0.851216 4.85914,1.077339 0.40774,0.226123 1.96459,0.942947 3.45966,1.592942 2.9663,1.289628 6.91932,4.439984 6.91932,5.514348 0,0.37115 0.40154,0.965438 0.89232,1.32064 0.98975,0.716342 2.77359,5.003514 3.35341,8.059383 0.66956,3.52888 0.13106,11.81023 -0.83399,12.82546 -0.24547,0.25823 -0.44632,1.07913 -0.44632,1.82422 0,0.74508 -0.2224,1.49215 -0.49424,1.66015 -0.27183,0.168 -0.49423,0.80386 -0.49423,1.41303 0,0.60917 -0.17701,1.31886 -0.39335,1.5771 -0.21633,0.25824 -0.68068,1.35916 -1.03189,2.44648 -0.3512,1.08732 -1.84224,4.43917 -3.31343,7.44855 -1.47119,3.00939 -2.67489,5.63196 -2.67489,5.82796 0,0.19599 -0.41491,0.80169 -0.92201,1.34601 -0.50711,0.54432 -1.4317,1.98066 -2.05466,3.19188 -0.62295,1.21121 -1.32008,2.20221 -1.54917,2.20221 -0.22909,0 -0.41653,0.23275 -0.41653,0.51722 0,0.56709 -5.60695,8.306967 -7.59163,10.479557 -1.29681,1.41958 -1.87706,1.56539 -3.54245,0.89014 z"
       style="fill:#f3a401;fill-opacity:1;stroke:none;stroke-width:0.33490789;stroke-miterlimit:4;stroke-dasharray:0.66981579, 1.33963158000000004;stroke-dashoffset:0" />
    <path
       inkscape:connector-curvature="0"
       id="path96"
       d="m 829.27993,263.88113 c 0.55984,-1.2912 1.77057,-3.95375 2.69052,-5.91679 0.91994,-1.96303 1.67262,-3.69704 1.67262,-3.85333 0,-0.2471 2.78428,-6.32019 4.01479,-8.75707 0.23834,-0.47202 0.43335,-1.19484 0.43335,-1.60627 0,-0.41144 0.2224,-0.74807 0.49423,-0.74807 0.27183,0 0.49424,-0.29095 0.49424,-0.64656 0,-0.35561 0.88633,-2.41287 1.96961,-4.5717 1.08329,-2.15882 1.97291,-4.1759 1.97695,-4.48241 0.004,-0.3065 0.32773,-0.82318 0.71932,-1.14817 0.39159,-0.32498 0.5902,-0.90823 0.44136,-1.29611 -0.14884,-0.38787 -0.0244,-0.70522 0.27649,-0.70522 0.30092,0 0.54712,-0.33662 0.54712,-0.74806 0,-0.41143 0.21458,-1.13425 0.47685,-1.60627 0.73402,-1.32104 4.95976,-10.57508 4.95976,-10.86148 0,-0.13939 0.67882,-1.58927 1.5085,-3.22196 2.65828,-5.23116 3.0278,-5.04009 -10.04546,-5.19442 l -11.25527,-0.13286 0.13493,-8.76341 0.13493,-8.7634 29.56776,-0.1136 29.56776,-0.1136 -0.34431,1.59631 c -0.18937,0.87797 -0.53967,1.67045 -0.77844,1.76106 -0.23877,0.0906 -0.43413,0.59102 -0.43413,1.11203 0,0.52101 -0.19543,0.94729 -0.43428,0.94729 -0.23885,0 -0.70611,0.72282 -1.03835,1.60627 -0.33224,0.88345 -0.77681,2.05109 -0.98793,2.59475 -0.4479,1.15341 -3.16665,7.0592 -4.5151,9.80789 -0.51267,1.04505 -0.93214,2.20164 -0.93214,2.57019 0,0.36855 -0.34056,0.86068 -0.75681,1.09362 -0.41624,0.23294 -0.86792,1.0363 -1.00373,1.78525 -0.13581,0.74894 -1.25371,3.62749 -2.48421,6.39679 -1.23051,2.76929 -2.5807,5.8135 -3.00043,6.7649 -1.07862,2.44494 -4.12268,8.97816 -4.6601,10.0016 -0.24786,0.47202 -0.45065,1.19484 -0.45065,1.60627 0,0.41143 -0.22241,0.74806 -0.49424,0.74806 -0.27183,0 -0.49423,0.29184 -0.49423,0.64853 0,0.35668 -0.45349,1.58713 -1.00775,2.73432 -0.55426,1.14718 -0.87474,2.30099 -0.71219,2.56401 0.1765,0.28558 4.84685,0.47823 11.59343,0.47823 6.21383,0 11.64967,0.13499 12.07964,0.3 0.67367,0.25851 0.78178,1.55708 0.78178,9.3905 v 9.09052 h -30.86204 -30.86204 z"
       style="fill:#004c92;fill-opacity:1;stroke:none;stroke-width:0.33490789;stroke-miterlimit:4;stroke-dasharray:0.66981579, 1.33963158000000004;stroke-dashoffset:0" />
    <path
       inkscape:connector-curvature="0"
       id="path98"
       d="m 778.46206,268.7335 c -1.3996,-0.2242 -2.79589,-0.56287 -3.10286,-0.75258 -0.30697,-0.18972 -1.18419,-0.42418 -1.94938,-0.52102 -0.76519,-0.0968 -2.14899,-0.63688 -3.0751,-1.2001 -0.92612,-0.56321 -2.3736,-1.34578 -3.21662,-1.73905 -1.45719,-0.67976 -2.68022,-1.80128 -6.62215,-6.07249 -1.80216,-1.9527 -2.48414,-2.99885 -4.11038,-6.30527 -0.93189,-1.89469 -1.30053,-2.76679 -2.08914,-4.94237 -0.58307,-1.60856 -1.29625,-5.30768 -1.38167,-7.16644 -0.0437,-0.95141 -0.24974,-1.99218 -0.45783,-2.31283 -0.65386,-1.00757 -0.72322,-13.05557 -0.10192,-17.70378 0.6032,-4.51277 0.76868,-5.16414 2.04168,-8.03683 0.39282,-0.88646 0.57829,-1.83169 0.41215,-2.10051 -0.16614,-0.26882 -0.0925,-0.48876 0.16369,-0.48876 0.25617,0 0.59645,-0.38921 0.75618,-0.86492 0.15972,-0.4757 0.50871,-1.19852 0.77552,-1.60627 0.26681,-0.40774 0.85462,-1.57538 1.30626,-2.59474 0.45163,-1.01937 1.12643,-1.85339 1.49955,-1.85339 0.37313,0 0.98207,-0.72283 1.35321,-1.60628 0.37114,-0.88344 1.4146,-2.16228 2.3188,-2.84186 0.9042,-0.67958 2.24808,-1.73601 2.9864,-2.34763 0.73832,-0.61162 1.68638,-1.11203 2.1068,-1.11203 0.42042,0 0.89305,-0.20816 1.05029,-0.46259 0.5695,-0.92146 5.52914,-2.90618 8.66872,-3.46899 1.7669,-0.31675 4.02196,-0.81243 5.01124,-1.10152 1.66983,-0.48797 2.93285,-0.44177 11.17503,0.4087 1.42711,0.14726 2.59474,0.46957 2.59474,0.71624 0,0.24668 0.52185,0.4485 1.15966,0.4485 0.63782,0 1.80545,0.31998 2.59475,0.71106 0.7893,0.39108 1.9911,0.95665 2.67068,1.25681 2.44082,1.0781 6.38178,3.84872 8.08974,5.68735 2.21573,2.38524 6.05015,8.62774 6.46793,10.52991 0.18314,0.83383 0.6523,1.78107 1.04257,2.10496 0.39028,0.3239 0.70959,1.29562 0.70959,2.15937 0,0.86376 0.20441,1.78176 0.45425,2.04 0.24984,0.25823 0.5869,2.02637 0.74903,3.92918 0.16213,1.90282 0.4221,4.99457 0.57771,6.87056 0.16333,1.96896 0.0667,3.84938 -0.22854,4.44813 -0.28131,0.57049 -0.6295,2.7053 -0.77375,4.74402 -0.36953,5.22261 -0.80782,8.07858 -1.32356,8.62444 -0.24399,0.25824 -0.44361,0.87288 -0.44361,1.36586 0,0.49299 -0.20371,1.28253 -0.45269,1.75455 -0.24898,0.47201 -0.77861,1.63663 -1.17696,2.58804 -1.79166,4.27914 -2.59091,5.60828 -4.76478,7.92374 -1.27633,1.35946 -2.24679,2.54554 -2.1566,2.63574 0.0902,0.0902 -0.42335,0.58691 -1.14122,1.10378 -0.71787,0.51688 -1.99405,1.5514 -2.83596,2.29894 -0.8419,0.74753 -1.8401,1.35915 -2.21821,1.35915 -0.37811,0 -1.49618,0.43418 -2.4846,0.96485 -0.98841,0.53066 -3.23206,1.31598 -4.98587,1.74516 -3.73438,0.91384 -13.98624,1.36895 -17.64277,0.78321 z m 11.44101,-19.80305 c 0.168,-0.27183 0.66721,-0.49424 1.10935,-0.49424 1.11029,0 3.09167,-1.95568 3.09167,-3.05157 0,-0.49628 0.18681,-0.90232 0.41513,-0.90232 0.45759,0 1.18322,-2.26158 2.0615,-6.42509 0.65748,-3.11682 0.41041,-17.34273 -0.35753,-20.58576 -1.39098,-5.87416 -4.74196,-9.06848 -9.51322,-9.06848 -4.21456,0 -7.15512,2.21876 -8.84279,6.67221 -1.20754,3.18646 -2.2292,11.66076 -1.85486,15.38533 0.69633,6.92826 1.30371,10.58528 2.0933,12.60361 0.97265,2.48629 3.50213,5.35911 4.7254,5.36681 0.45966,0.003 0.9732,0.22767 1.1412,0.4995 0.168,0.27183 1.50245,0.49424 2.96543,0.49424 1.46298,0 2.79742,-0.22241 2.96542,-0.49424 z"
       style="fill:#004c92;fill-opacity:1;stroke:none;stroke-width:0.33490789;stroke-miterlimit:4;stroke-dasharray:0.66981579, 1.33963158000000004;stroke-dashoffset:0" />
    <path
       inkscape:connector-curvature="0"
       id="path100"
       d="m 710.20731,265.90143 c -0.90464,-0.36503 -0.90464,-74.05852 0,-74.64401 0.33979,-0.21992 6.17036,-0.46993 12.95683,-0.55559 11.36337,-0.14342 12.38987,-0.0862 12.98201,0.72359 0.51462,0.70379 0.63776,8.15748 0.61685,37.33925 -0.0253,35.2877 -0.0563,36.47608 -0.96427,36.96201 -0.94557,0.50605 -24.37389,0.66604 -25.59142,0.17475 z"
       style="fill:#f3a401;fill-opacity:1;stroke:none;stroke-width:0.33490789;stroke-miterlimit:4;stroke-dasharray:0.66981579, 1.33963158000000004;stroke-dashoffset:0" />
    <path
       inkscape:connector-curvature="0"
       id="path102"
       d="m 620.25303,228.55281 0.12665,-37.69524 1.97695,-0.16432 c 1.08732,-0.0904 3.34913,-0.019 5.02625,0.15865 2.55489,0.2706 3.32317,0.58895 4.73846,1.96347 0.92904,0.90227 2.37481,1.99505 3.21281,2.4284 0.838,0.43335 2.59781,1.7859 3.91069,3.00567 1.31287,1.21977 2.66505,2.22406 3.00484,2.23176 0.33979,0.008 0.6178,0.22572 0.6178,0.48449 0,0.25877 0.94523,1.12894 2.10051,1.9337 1.15528,0.80476 3.01829,2.31669 4.14004,3.35984 1.12174,1.04316 2.54072,2.23025 3.15329,2.638 0.61258,0.40775 2.03006,1.46576 3.14997,2.35113 1.1199,0.88538 2.2661,1.77501 2.5471,1.97695 0.28101,0.20195 1.8759,1.53481 3.5442,2.96192 1.66831,1.42711 3.16884,2.59475 3.33452,2.59475 0.16569,0 0.99474,0.78984 1.84233,1.7552 0.99552,1.13383 1.7108,1.5855 2.02046,1.27584 0.28545,-0.28546 0.50564,-6.50045 0.54432,-15.36432 0.0485,-11.10777 0.21773,-14.97948 0.667,-15.25748 0.72933,-0.45128 19.49546,-0.70836 20.60581,-0.28228 0.70839,0.27184 0.7857,3.92636 0.7857,37.13838 0,42.36151 0.58928,38.13987 -5.32733,38.16572 -3.47989,0.0152 -3.66312,-0.0449 -5.60429,-1.83767 -1.10373,-1.01937 -2.64071,-2.43447 -3.41552,-3.14467 -0.7748,-0.7102 -2.5898,-2.07808 -4.03333,-3.03974 -1.44354,-0.96167 -3.1638,-2.32665 -3.8228,-3.03331 -0.659,-0.70665 -1.50001,-1.28483 -1.8689,-1.28483 -0.36889,0 -0.79163,-0.3151 -0.93942,-0.70022 -0.14778,-0.38513 -1.12176,-1.26476 -2.16439,-1.95474 -1.04264,-0.68998 -2.8414,-2.15414 -3.99725,-3.25367 -1.15586,-1.09954 -2.27765,-1.99916 -2.49288,-1.99916 -0.21523,0 -0.90368,-0.50042 -1.52988,-1.11204 -0.62621,-0.61162 -1.87877,-1.66805 -2.78346,-2.34762 -0.9047,-0.67958 -1.90522,-1.458 -2.22339,-1.72983 -6.38535,-5.45545 -8.05567,-6.55241 -8.81738,-5.7907 -0.28444,0.28445 -0.51372,6.67371 -0.56474,15.73782 l -0.0859,15.25898 -10.75276,0.1332 -10.75275,0.13321 z"
       style="fill:#f3a401;fill-opacity:1;stroke:none;stroke-width:0.33490789;stroke-miterlimit:4;stroke-dasharray:0.66981579, 1.33963158000000004;stroke-dashoffset:0" />
  </g>
</svg>
