<?xml version="1.0" encoding="UTF-8" standalone="no"?>
<!-- Created with Inkscape (http://www.inkscape.org/) -->

<svg
   xmlns:dc="http://purl.org/dc/elements/1.1/"
   xmlns:cc="http://creativecommons.org/ns#"
   xmlns:rdf="http://www.w3.org/1999/02/22-rdf-syntax-ns#"
   xmlns:svg="http://www.w3.org/2000/svg"
   xmlns="http://www.w3.org/2000/svg"
   xmlns:sodipodi="http://sodipodi.sourceforge.net/DTD/sodipodi-0.dtd"
   xmlns:inkscape="http://www.inkscape.org/namespaces/inkscape"
   version="1.1"
   id="svg2"
   xml:space="preserve"
   width="200mm"
   height="200mm"
   viewBox="0 0 755.9055 755.9055"
   sodipodi:docname="figure_ann.svg"
   inkscape:version="0.92.3 (2405546, 2018-03-11)"
   inkscape:export-filename="/home/pratik/git/knots/knots_texts/grc/figure_ann.png"
   inkscape:export-xdpi="300"
   inkscape:export-ydpi="300"><metadata
     id="metadata8"><rdf:RDF><cc:Work
         rdf:about=""><dc:format>image/svg+xml</dc:format><dc:type
           rdf:resource="http://purl.org/dc/dcmitype/StillImage" /><dc:title></dc:title></cc:Work></rdf:RDF></metadata><defs
     id="defs6"><marker
       inkscape:stockid="Arrow2Mend"
       orient="auto"
       refY="0.0"
       refX="0.0"
       id="marker3534"
       style="overflow:visible;"
       inkscape:isstock="true"><path
         id="path3532"
         style="fill-rule:evenodd;stroke-width:0.625;stroke-linejoin:round;stroke:#000000;stroke-opacity:1;fill:#000000;fill-opacity:1"
         d="M 8.7185878,4.0337352 L -2.2072895,0.016013256 L 8.7185884,-4.0017078 C 6.9730900,-1.6296469 6.9831476,1.6157441 8.7185878,4.0337352 z "
         transform="scale(0.6) rotate(180) translate(0,0)" /></marker><marker
       inkscape:isstock="true"
       style="overflow:visible;"
       id="marker3360"
       refX="0.0"
       refY="0.0"
       orient="auto"
       inkscape:stockid="Arrow2Mend"
       inkscape:collect="always"><path
         transform="scale(0.6) rotate(180) translate(0,0)"
         d="M 8.7185878,4.0337352 L -2.2072895,0.016013256 L 8.7185884,-4.0017078 C 6.9730900,-1.6296469 6.9831476,1.6157441 8.7185878,4.0337352 z "
         style="fill-rule:evenodd;stroke-width:0.625;stroke-linejoin:round;stroke:#000000;stroke-opacity:1;fill:#000000;fill-opacity:1"
         id="path3358" /></marker><marker
       inkscape:isstock="true"
       style="overflow:visible;"
       id="marker3212"
       refX="0.0"
       refY="0.0"
       orient="auto"
       inkscape:stockid="Arrow2Mend"><path
         transform="scale(0.6) rotate(180) translate(0,0)"
         d="M 8.7185878,4.0337352 L -2.2072895,0.016013256 L 8.7185884,-4.0017078 C 6.9730900,-1.6296469 6.9831476,1.6157441 8.7185878,4.0337352 z "
         style="fill-rule:evenodd;stroke-width:0.625;stroke-linejoin:round;stroke:#000000;stroke-opacity:1;fill:#000000;fill-opacity:1"
         id="path3210" /></marker><marker
       inkscape:isstock="true"
       style="overflow:visible;"
       id="marker3070"
       refX="0.0"
       refY="0.0"
       orient="auto"
       inkscape:stockid="Arrow2Mend"><path
         transform="scale(0.6) rotate(180) translate(0,0)"
         d="M 8.7185878,4.0337352 L -2.2072895,0.016013256 L 8.7185884,-4.0017078 C 6.9730900,-1.6296469 6.9831476,1.6157441 8.7185878,4.0337352 z "
         style="fill-rule:evenodd;stroke-width:0.625;stroke-linejoin:round;stroke:#000000;stroke-opacity:1;fill:#000000;fill-opacity:1"
         id="path3068" /></marker><marker
       inkscape:isstock="true"
       style="overflow:visible;"
       id="marker2934"
       refX="0.0"
       refY="0.0"
       orient="auto"
       inkscape:stockid="Arrow2Mend"><path
         transform="scale(0.6) rotate(180) translate(0,0)"
         d="M 8.7185878,4.0337352 L -2.2072895,0.016013256 L 8.7185884,-4.0017078 C 6.9730900,-1.6296469 6.9831476,1.6157441 8.7185878,4.0337352 z "
         style="fill-rule:evenodd;stroke-width:0.625;stroke-linejoin:round;stroke:#000000;stroke-opacity:1;fill:#000000;fill-opacity:1"
         id="path2932" /></marker><marker
       inkscape:isstock="true"
       style="overflow:visible;"
       id="marker2804"
       refX="0.0"
       refY="0.0"
       orient="auto"
       inkscape:stockid="Arrow2Mend"><path
         transform="scale(0.6) rotate(180) translate(0,0)"
         d="M 8.7185878,4.0337352 L -2.2072895,0.016013256 L 8.7185884,-4.0017078 C 6.9730900,-1.6296469 6.9831476,1.6157441 8.7185878,4.0337352 z "
         style="fill-rule:evenodd;stroke-width:0.625;stroke-linejoin:round;stroke:#000000;stroke-opacity:1;fill:#000000;fill-opacity:1"
         id="path2802" /></marker><marker
       inkscape:isstock="true"
       style="overflow:visible;"
       id="marker2680"
       refX="0.0"
       refY="0.0"
       orient="auto"
       inkscape:stockid="Arrow2Mend"><path
         transform="scale(0.6) rotate(180) translate(0,0)"
         d="M 8.7185878,4.0337352 L -2.2072895,0.016013256 L 8.7185884,-4.0017078 C 6.9730900,-1.6296469 6.9831476,1.6157441 8.7185878,4.0337352 z "
         style="fill-rule:evenodd;stroke-width:0.625;stroke-linejoin:round;stroke:#000000;stroke-opacity:1;fill:#000000;fill-opacity:1"
         id="path2678" /></marker><marker
       inkscape:isstock="true"
       style="overflow:visible;"
       id="marker2562"
       refX="0.0"
       refY="0.0"
       orient="auto"
       inkscape:stockid="Arrow2Mend"><path
         transform="scale(0.6) rotate(180) translate(0,0)"
         d="M 8.7185878,4.0337352 L -2.2072895,0.016013256 L 8.7185884,-4.0017078 C 6.9730900,-1.6296469 6.9831476,1.6157441 8.7185878,4.0337352 z "
         style="fill-rule:evenodd;stroke-width:0.625;stroke-linejoin:round;stroke:#000000;stroke-opacity:1;fill:#000000;fill-opacity:1"
         id="path2560" /></marker><marker
       inkscape:isstock="true"
       style="overflow:visible;"
       id="marker2450"
       refX="0.0"
       refY="0.0"
       orient="auto"
       inkscape:stockid="Arrow2Mend"><path
         transform="scale(0.6) rotate(180) translate(0,0)"
         d="M 8.7185878,4.0337352 L -2.2072895,0.016013256 L 8.7185884,-4.0017078 C 6.9730900,-1.6296469 6.9831476,1.6157441 8.7185878,4.0337352 z "
         style="fill-rule:evenodd;stroke-width:0.625;stroke-linejoin:round;stroke:#000000;stroke-opacity:1;fill:#000000;fill-opacity:1"
         id="path2448" /></marker><marker
       inkscape:isstock="true"
       style="overflow:visible;"
       id="marker2344"
       refX="0.0"
       refY="0.0"
       orient="auto"
       inkscape:stockid="Arrow2Mend"><path
         transform="scale(0.6) rotate(180) translate(0,0)"
         d="M 8.7185878,4.0337352 L -2.2072895,0.016013256 L 8.7185884,-4.0017078 C 6.9730900,-1.6296469 6.9831476,1.6157441 8.7185878,4.0337352 z "
         style="fill-rule:evenodd;stroke-width:0.625;stroke-linejoin:round;stroke:#000000;stroke-opacity:1;fill:#000000;fill-opacity:1"
         id="path2342" /></marker><marker
       inkscape:isstock="true"
       style="overflow:visible;"
       id="marker2244"
       refX="0.0"
       refY="0.0"
       orient="auto"
       inkscape:stockid="Arrow2Mend"><path
         transform="scale(0.6) rotate(180) translate(0,0)"
         d="M 8.7185878,4.0337352 L -2.2072895,0.016013256 L 8.7185884,-4.0017078 C 6.9730900,-1.6296469 6.9831476,1.6157441 8.7185878,4.0337352 z "
         style="fill-rule:evenodd;stroke-width:0.625;stroke-linejoin:round;stroke:#000000;stroke-opacity:1;fill:#000000;fill-opacity:1"
         id="path2242" /></marker><marker
       inkscape:isstock="true"
       style="overflow:visible;"
       id="marker2150"
       refX="0.0"
       refY="0.0"
       orient="auto"
       inkscape:stockid="Arrow2Mend"><path
         transform="scale(0.6) rotate(180) translate(0,0)"
         d="M 8.7185878,4.0337352 L -2.2072895,0.016013256 L 8.7185884,-4.0017078 C 6.9730900,-1.6296469 6.9831476,1.6157441 8.7185878,4.0337352 z "
         style="fill-rule:evenodd;stroke-width:0.625;stroke-linejoin:round;stroke:#000000;stroke-opacity:1;fill:#000000;fill-opacity:1"
         id="path2148" /></marker><marker
       inkscape:isstock="true"
       style="overflow:visible;"
       id="marker2062"
       refX="0.0"
       refY="0.0"
       orient="auto"
       inkscape:stockid="Arrow2Mend"><path
         transform="scale(0.6) rotate(180) translate(0,0)"
         d="M 8.7185878,4.0337352 L -2.2072895,0.016013256 L 8.7185884,-4.0017078 C 6.9730900,-1.6296469 6.9831476,1.6157441 8.7185878,4.0337352 z "
         style="fill-rule:evenodd;stroke-width:0.625;stroke-linejoin:round;stroke:#000000;stroke-opacity:1;fill:#000000;fill-opacity:1"
         id="path2060" /></marker><marker
       inkscape:isstock="true"
       style="overflow:visible;"
       id="marker1980"
       refX="0.0"
       refY="0.0"
       orient="auto"
       inkscape:stockid="Arrow2Mend"><path
         transform="scale(0.6) rotate(180) translate(0,0)"
         d="M 8.7185878,4.0337352 L -2.2072895,0.016013256 L 8.7185884,-4.0017078 C 6.9730900,-1.6296469 6.9831476,1.6157441 8.7185878,4.0337352 z "
         style="fill-rule:evenodd;stroke-width:0.625;stroke-linejoin:round;stroke:#000000;stroke-opacity:1;fill:#000000;fill-opacity:1"
         id="path1978" /></marker><marker
       inkscape:isstock="true"
       style="overflow:visible;"
       id="marker1904"
       refX="0.0"
       refY="0.0"
       orient="auto"
       inkscape:stockid="Arrow2Mend"><path
         transform="scale(0.6) rotate(180) translate(0,0)"
         d="M 8.7185878,4.0337352 L -2.2072895,0.016013256 L 8.7185884,-4.0017078 C 6.9730900,-1.6296469 6.9831476,1.6157441 8.7185878,4.0337352 z "
         style="fill-rule:evenodd;stroke-width:0.625;stroke-linejoin:round;stroke:#000000;stroke-opacity:1;fill:#000000;fill-opacity:1"
         id="path1902" /></marker><marker
       inkscape:isstock="true"
       style="overflow:visible;"
       id="marker1834"
       refX="0.0"
       refY="0.0"
       orient="auto"
       inkscape:stockid="Arrow2Mend"><path
         transform="scale(0.6) rotate(180) translate(0,0)"
         d="M 8.7185878,4.0337352 L -2.2072895,0.016013256 L 8.7185884,-4.0017078 C 6.9730900,-1.6296469 6.9831476,1.6157441 8.7185878,4.0337352 z "
         style="fill-rule:evenodd;stroke-width:0.625;stroke-linejoin:round;stroke:#000000;stroke-opacity:1;fill:#000000;fill-opacity:1"
         id="path1832" /></marker><marker
       inkscape:isstock="true"
       style="overflow:visible;"
       id="marker1770"
       refX="0.0"
       refY="0.0"
       orient="auto"
       inkscape:stockid="Arrow2Mend"><path
         transform="scale(0.6) rotate(180) translate(0,0)"
         d="M 8.7185878,4.0337352 L -2.2072895,0.016013256 L 8.7185884,-4.0017078 C 6.9730900,-1.6296469 6.9831476,1.6157441 8.7185878,4.0337352 z "
         style="fill-rule:evenodd;stroke-width:0.625;stroke-linejoin:round;stroke:#000000;stroke-opacity:1;fill:#000000;fill-opacity:1"
         id="path1768" /></marker><marker
       inkscape:isstock="true"
       style="overflow:visible;"
       id="marker1712"
       refX="0.0"
       refY="0.0"
       orient="auto"
       inkscape:stockid="Arrow2Mend"><path
         transform="scale(0.6) rotate(180) translate(0,0)"
         d="M 8.7185878,4.0337352 L -2.2072895,0.016013256 L 8.7185884,-4.0017078 C 6.9730900,-1.6296469 6.9831476,1.6157441 8.7185878,4.0337352 z "
         style="fill-rule:evenodd;stroke-width:0.625;stroke-linejoin:round;stroke:#000000;stroke-opacity:1;fill:#000000;fill-opacity:1"
         id="path1710" /></marker><marker
       inkscape:isstock="true"
       style="overflow:visible;"
       id="marker1660"
       refX="0.0"
       refY="0.0"
       orient="auto"
       inkscape:stockid="Arrow2Mend"><path
         transform="scale(0.6) rotate(180) translate(0,0)"
         d="M 8.7185878,4.0337352 L -2.2072895,0.016013256 L 8.7185884,-4.0017078 C 6.9730900,-1.6296469 6.9831476,1.6157441 8.7185878,4.0337352 z "
         style="fill-rule:evenodd;stroke-width:0.625;stroke-linejoin:round;stroke:#000000;stroke-opacity:1;fill:#000000;fill-opacity:1"
         id="path1658" /></marker><marker
       inkscape:isstock="true"
       style="overflow:visible;"
       id="marker1614"
       refX="0.0"
       refY="0.0"
       orient="auto"
       inkscape:stockid="Arrow2Mend"><path
         transform="scale(0.6) rotate(180) translate(0,0)"
         d="M 8.7185878,4.0337352 L -2.2072895,0.016013256 L 8.7185884,-4.0017078 C 6.9730900,-1.6296469 6.9831476,1.6157441 8.7185878,4.0337352 z "
         style="fill-rule:evenodd;stroke-width:0.625;stroke-linejoin:round;stroke:#000000;stroke-opacity:1;fill:#000000;fill-opacity:1"
         id="path1612" /></marker><marker
       inkscape:isstock="true"
       style="overflow:visible;"
       id="marker1574"
       refX="0.0"
       refY="0.0"
       orient="auto"
       inkscape:stockid="Arrow2Mend"><path
         transform="scale(0.6) rotate(180) translate(0,0)"
         d="M 8.7185878,4.0337352 L -2.2072895,0.016013256 L 8.7185884,-4.0017078 C 6.9730900,-1.6296469 6.9831476,1.6157441 8.7185878,4.0337352 z "
         style="fill-rule:evenodd;stroke-width:0.625;stroke-linejoin:round;stroke:#000000;stroke-opacity:1;fill:#000000;fill-opacity:1"
         id="path1572" /></marker><marker
       inkscape:isstock="true"
       style="overflow:visible;"
       id="marker1540"
       refX="0.0"
       refY="0.0"
       orient="auto"
       inkscape:stockid="Arrow2Mend"><path
         transform="scale(0.6) rotate(180) translate(0,0)"
         d="M 8.7185878,4.0337352 L -2.2072895,0.016013256 L 8.7185884,-4.0017078 C 6.9730900,-1.6296469 6.9831476,1.6157441 8.7185878,4.0337352 z "
         style="fill-rule:evenodd;stroke-width:0.625;stroke-linejoin:round;stroke:#000000;stroke-opacity:1;fill:#000000;fill-opacity:1"
         id="path1538" /></marker><marker
       inkscape:isstock="true"
       style="overflow:visible;"
       id="marker1512"
       refX="0.0"
       refY="0.0"
       orient="auto"
       inkscape:stockid="Arrow2Mend"><path
         transform="scale(0.6) rotate(180) translate(0,0)"
         d="M 8.7185878,4.0337352 L -2.2072895,0.016013256 L 8.7185884,-4.0017078 C 6.9730900,-1.6296469 6.9831476,1.6157441 8.7185878,4.0337352 z "
         style="fill-rule:evenodd;stroke-width:0.625;stroke-linejoin:round;stroke:#000000;stroke-opacity:1;fill:#000000;fill-opacity:1"
         id="path1510" /></marker><marker
       inkscape:isstock="true"
       style="overflow:visible;"
       id="marker1490"
       refX="0.0"
       refY="0.0"
       orient="auto"
       inkscape:stockid="Arrow2Mend"><path
         transform="scale(0.6) rotate(180) translate(0,0)"
         d="M 8.7185878,4.0337352 L -2.2072895,0.016013256 L 8.7185884,-4.0017078 C 6.9730900,-1.6296469 6.9831476,1.6157441 8.7185878,4.0337352 z "
         style="fill-rule:evenodd;stroke-width:0.625;stroke-linejoin:round;stroke:#000000;stroke-opacity:1;fill:#000000;fill-opacity:1"
         id="path1488" /></marker><marker
       inkscape:stockid="Arrow2Mend"
       orient="auto"
       refY="0.0"
       refX="0.0"
       id="Arrow2Mend"
       style="overflow:visible;"
       inkscape:isstock="true"
       inkscape:collect="always"><path
         id="path1233"
         style="fill-rule:evenodd;stroke-width:0.625;stroke-linejoin:round;stroke:#000000;stroke-opacity:1;fill:#000000;fill-opacity:1"
         d="M 8.7185878,4.0337352 L -2.2072895,0.016013256 L 8.7185884,-4.0017078 C 6.9730900,-1.6296469 6.9831476,1.6157441 8.7185878,4.0337352 z "
         transform="scale(0.6) rotate(180) translate(0,0)" /></marker><clipPath
       clipPathUnits="userSpaceOnUse"
       id="clipPath18"><path
         d="M 0,566.929 H 566.929 V 0 H 0 Z"
         id="path16"
         inkscape:connector-curvature="0" /></clipPath><clipPath
       clipPathUnits="userSpaceOnUse"
       id="clipPath74"><path
         d="M 0,566.929 H 566.929 V 0 H 0 Z"
         id="path72"
         inkscape:connector-curvature="0" /></clipPath><clipPath
       clipPathUnits="userSpaceOnUse"
       id="clipPath146"><path
         d="M 0,566.929 H 566.929 V 0 H 0 Z"
         id="path144"
         inkscape:connector-curvature="0" /></clipPath><clipPath
       clipPathUnits="userSpaceOnUse"
       id="clipPath314"><path
         d="M 205.956,503.173 H 382.002 V 111.894 H 205.956 Z"
         id="path312"
         inkscape:connector-curvature="0" /></clipPath><clipPath
       clipPathUnits="userSpaceOnUse"
       id="clipPath328"><path
         d="m 145.389,376.574 h 83.742 v -70.122 h -83.742 z"
         id="path326"
         inkscape:connector-curvature="0" /></clipPath><clipPath
       clipPathUnits="userSpaceOnUse"
       id="clipPath348"><path
         d="m 145.107,452.021 h 86.774 V 306.783 h -86.774 z"
         id="path346"
         inkscape:connector-curvature="0" /></clipPath><clipPath
       clipPathUnits="userSpaceOnUse"
       id="clipPath368"><path
         d="m 143.575,308.558 h 81.819 v -73.329 h -81.819 z"
         id="path366"
         inkscape:connector-curvature="0" /></clipPath><clipPath
       clipPathUnits="userSpaceOnUse"
       id="clipPath388"><path
         d="m 145.106,308.441 h 84.025 V 167.34 h -84.025 z"
         id="path386"
         inkscape:connector-curvature="0" /></clipPath><clipPath
       clipPathUnits="userSpaceOnUse"
       id="clipPath408"><path
         d="m 146.254,313.528 h 79.347 v -12.185 h -79.347 z"
         id="path406"
         inkscape:connector-curvature="0" /></clipPath><clipPath
       clipPathUnits="userSpaceOnUse"
       id="clipPath428"><path
         d="m 360.975,237.565 h 60.37 v -70.987 h -60.37 z"
         id="path426"
         inkscape:connector-curvature="0" /></clipPath><clipPath
       clipPathUnits="userSpaceOnUse"
       id="clipPath448"><path
         d="m 358.939,341.828 h 60.476 V 246.84 h -60.476 z"
         id="path446"
         inkscape:connector-curvature="0" /></clipPath><clipPath
       clipPathUnits="userSpaceOnUse"
       id="clipPath468"><path
         d="m 359.83,453.618 h 62.024 V 372.012 H 359.83 Z"
         id="path466"
         inkscape:connector-curvature="0" /></clipPath><clipPath
       clipPathUnits="userSpaceOnUse"
       id="clipPath488"><path
         d="m 359.727,372.625 h 58.865 V 266.203 h -58.865 z"
         id="path486"
         inkscape:connector-curvature="0" /></clipPath><clipPath
       clipPathUnits="userSpaceOnUse"
       id="clipPath508"><path
         d="m 367.498,251.019 h 46.166 V 233.18 h -46.166 z"
         id="path506"
         inkscape:connector-curvature="0" /></clipPath><clipPath
       clipPathUnits="userSpaceOnUse"
       id="clipPath528"><path
         d="m 364.525,350.522 h 49.318 v -32.897 h -49.318 z"
         id="path526"
         inkscape:connector-curvature="0" /></clipPath><clipPath
       clipPathUnits="userSpaceOnUse"
       id="clipPath548"><path
         d="m 366.14,382.236 h 47.703 V 359.795 H 366.14 Z"
         id="path546"
         inkscape:connector-curvature="0" /></clipPath><clipPath
       clipPathUnits="userSpaceOnUse"
       id="clipPath568"><path
         d="m 364.207,300.507 h 49.457 v -42.76 h -49.457 z"
         id="path566"
         inkscape:connector-curvature="0" /></clipPath><clipPath
       clipPathUnits="userSpaceOnUse"
       id="clipPath588"><path
         d="m 353.47,448.93 h 72.045 V 269.959 H 353.47 Z"
         id="path586"
         inkscape:connector-curvature="0" /></clipPath><clipPath
       clipPathUnits="userSpaceOnUse"
       id="clipPath608"><path
         d="m 356.287,338.232 h 70.791 V 169.781 h -70.791 z"
         id="path606"
         inkscape:connector-curvature="0" /></clipPath></defs><sodipodi:namedview
     pagecolor="#ffffff"
     bordercolor="#666666"
     borderopacity="1"
     objecttolerance="10"
     gridtolerance="10"
     guidetolerance="10"
     inkscape:pageopacity="0"
     inkscape:pageshadow="2"
     inkscape:window-width="1920"
     inkscape:window-height="1025"
     id="namedview4"
     showgrid="false"
     units="mm"
     inkscape:zoom="0.88305873"
     inkscape:cx="105.34034"
     inkscape:cy="315.08662"
     inkscape:window-x="0"
     inkscape:window-y="27"
     inkscape:window-maximized="1"
     inkscape:current-layer="g10" /><g
     id="g10"
     inkscape:groupmode="layer"
     inkscape:label="ANN for poster"
     transform="matrix(1.3333333,0,0,-1.3333333,0,755.9055)"><path
   inkscape:connector-curvature="0"
   id="path316"
   style="fill:#e7e8e9;fill-opacity:1;fill-rule:nonzero;stroke:none"
   d="M 373.07,77.324544 H 197.023 V 468.60454 H 373.07 Z" /><g
   id="g100"
   transform="translate(450.3989,334.84887)"><path
     d="m 0,0 c 0,-10.306 -8.354,-18.662 -18.663,-18.662 -10.307,0 -18.664,8.356 -18.664,18.662 0,10.309 8.357,18.665 18.664,18.665 C -8.354,18.665 0,10.309 0,0"
     style="fill:#21409a;fill-opacity:1;fill-rule:nonzero;stroke:none"
     id="path102"
     inkscape:connector-curvature="0" /></g><g
   id="g104"
   transform="translate(450.3989,232.07926)"><path
     d="m 0,0 c 0,-10.308 -8.354,-18.664 -18.663,-18.664 -10.307,0 -18.664,8.356 -18.664,18.664 0,10.307 8.357,18.663 18.664,18.663 C -8.354,18.663 0,10.307 0,0"
     style="fill:#21409a;fill-opacity:1;fill-rule:nonzero;stroke:none"
     id="path106"
     inkscape:connector-curvature="0" /></g><g
   id="g108"
   transform="translate(450.1548,337.07636)"><path
     d="M 0,0 H 23.053"
     style="fill:none;stroke:#231f20;stroke-width:2.56200004;stroke-linecap:butt;stroke-linejoin:miter;stroke-miterlimit:10;stroke-dasharray:none;stroke-opacity:1"
     id="path110"
     inkscape:connector-curvature="0" /></g><g
   id="g112"
   transform="translate(480.9399,337.07636)"><path
     d="M 0,0 C -3.639,-1.35 -8.152,-3.653 -10.951,-6.094 L -8.747,0 -10.951,6.092 C -8.152,3.652 -3.639,1.349 0,0"
     style="fill:#231f20;fill-opacity:1;fill-rule:nonzero;stroke:none"
     id="path114"
     inkscape:connector-curvature="0" /></g><g
   id="g116"
   transform="translate(449.5933,232.07836)"><path
     d="M 0,0 H 23.053"
     style="fill:none;stroke:#231f20;stroke-width:2.56200004;stroke-linecap:butt;stroke-linejoin:miter;stroke-miterlimit:10;stroke-dasharray:none;stroke-opacity:1"
     id="path118"
     inkscape:connector-curvature="0" /></g><g
   id="g120"
   transform="translate(480.3784,232.07836)"><path
     d="M 0,0 C -3.639,-1.35 -8.152,-3.653 -10.951,-6.094 L -8.747,0 -10.951,6.092 C -8.152,3.652 -3.639,1.349 0,0"
     style="fill:#231f20;fill-opacity:1;fill-rule:nonzero;stroke:none"
     id="path122"
     inkscape:connector-curvature="0" /></g><g
   id="g28"
   transform="translate(146.2095,272.96504)"><path
     d="m 0,0 c 0,-10.308 -8.355,-18.664 -18.663,-18.664 -10.307,0 -18.663,8.356 -18.663,18.664 0,10.307 8.356,18.663 18.663,18.663 C -8.355,18.663 0,10.307 0,0"
     style="fill:#ed1c24;fill-opacity:1;fill-rule:nonzero;stroke:none"
     id="path30"
     inkscape:connector-curvature="0" /></g><g
   id="g2285"
   transform="translate(0,-34.543762)"><path
     d="m 79.8521,307.79 h 22.266"
     style="fill:none;stroke:#231f20;stroke-width:2.56200004;stroke-linecap:butt;stroke-linejoin:miter;stroke-miterlimit:10;stroke-dasharray:none;stroke-opacity:1"
     id="path182"
     inkscape:connector-curvature="0" /><path
     d="m 109.8501,307.79 c -3.639,-1.35 -8.152,-3.653 -10.951,-6.094 l 2.204,6.094 -2.204,6.092 c 2.799,-2.44 7.312,-4.743 10.951,-6.092"
     style="fill:#231f20;fill-opacity:1;fill-rule:nonzero;stroke:none"
     id="path186"
     inkscape:connector-curvature="0" /></g><text
   xml:space="preserve"
   style="font-style:normal;font-weight:normal;font-size:30px;line-height:1.25;font-family:sans-serif;letter-spacing:0px;word-spacing:0px;fill:#000000;fill-opacity:1;stroke:none;stroke-width:0.75"
   x="4.7976971"
   y="-525.35223"
   id="text2157"
   transform="scale(1,-1)"><tspan
     sodipodi:role="line"
     id="tspan2155"
     x="4.7976971"
     y="-525.35223"
     style="font-style:normal;font-variant:normal;font-weight:normal;font-stretch:normal;font-family:'IBM Plex Sans Condensed Medium';-inkscape-font-specification:'IBM Plex Sans Condensed Medium, ';stroke-width:0.75">Input</tspan></text>

<text
   transform="scale(1,-1)"
   id="text2206"
   y="-524.67725"
   x="194.20262"
   style="font-style:normal;font-weight:normal;font-size:30px;line-height:1.25;font-family:sans-serif;letter-spacing:0px;word-spacing:0px;fill:#000000;fill-opacity:1;stroke:none;stroke-width:0.75"
   xml:space="preserve"><tspan
     style="font-style:normal;font-variant:normal;font-weight:normal;font-stretch:normal;font-family:'IBM Plex Sans Condensed Medium';-inkscape-font-specification:'IBM Plex Sans Condensed Medium, ';stroke-width:0.75"
     y="-524.67725"
     x="194.20262"
     id="tspan2204"
     sodipodi:role="line">Hidden Layers</tspan></text>

<text
   id="text2206-3"
   y="-525.17224"
   x="474.78482"
   style="font-style:normal;font-weight:normal;font-size:30px;line-height:1.25;font-family:sans-serif;letter-spacing:0px;word-spacing:0px;fill:#000000;fill-opacity:1;stroke:none;stroke-width:0.75"
   xml:space="preserve"
   transform="scale(1,-1)"><tspan
     style="font-style:normal;font-variant:normal;font-weight:normal;font-stretch:normal;font-family:'IBM Plex Sans Condensed Medium';-inkscape-font-specification:'IBM Plex Sans Condensed Medium, ';stroke-width:0.75"
     y="-525.17224"
     x="474.78482"
     id="tspan2204-6"
     sodipodi:role="line">Ouput</tspan></text>

<text
   transform="scale(1,-1)"
   id="text2299"
   y="-288.60455"
   x="13.941839"
   style="font-style:normal;font-weight:normal;font-size:30px;line-height:1.25;font-family:sans-serif;letter-spacing:0px;word-spacing:0px;fill:#000000;fill-opacity:1;stroke:none;stroke-width:0.75"
   xml:space="preserve"><tspan
     style="font-style:normal;font-variant:normal;font-weight:normal;font-stretch:normal;font-size:20px;font-family:'IBM Plex Sans Condensed Medium';-inkscape-font-specification:'IBM Plex Sans Condensed Medium, ';stroke-width:0.75"
     y="-288.60455"
     x="13.941839"
     id="tspan2297"
     sodipodi:role="line">Resource</tspan><tspan
     style="font-style:normal;font-variant:normal;font-weight:normal;font-stretch:normal;font-size:20px;font-family:'IBM Plex Sans Condensed Medium';-inkscape-font-specification:'IBM Plex Sans Condensed Medium, ';stroke-width:0.75"
     y="-251.10455"
     x="13.941839"
     sodipodi:role="line"
     id="tspan289">cues</tspan></text>

<g
   id="g2462"
   transform="translate(0,-22.146838)"><text
   transform="scale(1,-1)"
   xml:space="preserve"
   style="font-style:normal;font-weight:normal;font-size:30px;line-height:1.25;font-family:sans-serif;letter-spacing:0px;word-spacing:0px;fill:#000000;fill-opacity:1;stroke:none;stroke-width:0.75"
   x="489.83139"
   y="-352.7854"
   id="text2299-7"><tspan
     sodipodi:role="line"
     id="tspan2297-5"
     x="489.83139"
     y="-352.7854"
     style="font-style:normal;font-variant:normal;font-weight:normal;font-stretch:normal;font-size:20px;font-family:'IBM Plex Sans Condensed Medium';-inkscape-font-specification:'IBM Plex Sans Condensed Medium, ';stroke-width:0.75">Angle</tspan></text>

<text
   id="text2321"
   y="-247.63741"
   x="489.61139"
   style="font-style:normal;font-weight:normal;font-size:30px;line-height:1.25;font-family:sans-serif;letter-spacing:0px;word-spacing:0px;fill:#000000;fill-opacity:1;stroke:none;stroke-width:0.75"
   xml:space="preserve"
   transform="scale(1,-1)"><tspan
     style="font-style:normal;font-variant:normal;font-weight:normal;font-stretch:normal;font-size:20px;font-family:'IBM Plex Sans Condensed Medium';-inkscape-font-specification:'IBM Plex Sans Condensed Medium, ';stroke-width:0.75"
     y="-247.63741"
     x="489.61139"
     id="tspan2319"
     sodipodi:role="line">Step size</tspan></text>

</g><g
   transform="translate(146.2095,178.46506)"
   id="g267"><path
     inkscape:connector-curvature="0"
     id="path265"
     style="fill:#ed1c24;fill-opacity:1;fill-rule:nonzero;stroke:none"
     d="m 0,0 c 0,-10.308 -8.355,-18.664 -18.663,-18.664 -10.307,0 -18.663,8.356 -18.663,18.664 0,10.307 8.356,18.663 18.663,18.663 C -8.355,18.663 0,10.307 0,0" /></g><g
   id="g273"
   transform="translate(0,-129.04374)"><path
     inkscape:connector-curvature="0"
     id="path269"
     style="fill:none;stroke:#231f20;stroke-width:2.56200004;stroke-linecap:butt;stroke-linejoin:miter;stroke-miterlimit:10;stroke-dasharray:none;stroke-opacity:1"
     d="m 79.8521,307.79 h 22.266" /><path
     inkscape:connector-curvature="0"
     id="path271"
     style="fill:#231f20;fill-opacity:1;fill-rule:nonzero;stroke:none"
     d="m 109.8501,307.79 c -3.639,-1.35 -8.152,-3.653 -10.951,-6.094 l 2.204,6.094 -2.204,6.092 c 2.799,-2.44 7.312,-4.743 10.951,-6.092" /></g><g
   id="g279"
   transform="translate(146.2095,367.46502)"><path
     d="m 0,0 c 0,-10.308 -8.355,-18.664 -18.663,-18.664 -10.307,0 -18.663,8.356 -18.663,18.664 0,10.307 8.356,18.663 18.663,18.663 C -8.355,18.663 0,10.307 0,0"
     style="fill:#ed1c24;fill-opacity:1;fill-rule:nonzero;stroke:none"
     id="path277"
     inkscape:connector-curvature="0" /></g><g
   id="g285"
   transform="translate(0,59.956218)"><path
     d="m 79.8521,307.79 h 22.266"
     style="fill:none;stroke:#231f20;stroke-width:2.56200004;stroke-linecap:butt;stroke-linejoin:miter;stroke-miterlimit:10;stroke-dasharray:none;stroke-opacity:1"
     id="path281"
     inkscape:connector-curvature="0" /><path
     d="m 109.8501,307.79 c -3.639,-1.35 -8.152,-3.653 -10.951,-6.094 l 2.204,6.094 -2.204,6.092 c 2.799,-2.44 7.312,-4.743 10.951,-6.092"
     style="fill:#231f20;fill-opacity:1;fill-rule:nonzero;stroke:none"
     id="path283"
     inkscape:connector-curvature="0" /></g><path
   style="fill:none;fill-rule:evenodd;stroke:#000000;stroke-width:1.70078743;stroke-linecap:butt;stroke-linejoin:miter;stroke-miterlimit:4;stroke-dasharray:none;stroke-opacity:1;marker-end:url(#marker3212)"
   d="m 146.2095,367.46452 72.174,0"
   id="path347"
   inkscape:connector-type="polyline"
   inkscape:connector-curvature="0"
   inkscape:connection-start="#g279"
   inkscape:connection-end="#g333" /><path
   style="fill:none;fill-rule:evenodd;stroke:#000000;stroke-width:1.70078743;stroke-linecap:butt;stroke-linejoin:miter;stroke-miterlimit:4;stroke-dasharray:none;stroke-opacity:1;marker-end:url(#marker3070)"
   d="m 146.2095,272.96454 h 72.174"
   id="path349"
   inkscape:connector-type="polyline"
   inkscape:connector-curvature="0"
   inkscape:connection-start="#g28"
   inkscape:connection-end="#g324" /><path
   style="fill:none;fill-rule:evenodd;stroke:#000000;stroke-width:1.70078743;stroke-linecap:butt;stroke-linejoin:miter;stroke-miterlimit:4;stroke-dasharray:none;stroke-opacity:1;marker-end:url(#marker2934)"
   d="m 146.2095,178.46456 h 72.174"
   id="path353"
   inkscape:connector-type="polyline"
   inkscape:connector-curvature="0"
   inkscape:connection-start="#g267"
   inkscape:connection-end="#g329" /><path
   style="fill:none;fill-rule:evenodd;stroke:#000000;stroke-width:1.70078743;stroke-linecap:butt;stroke-linejoin:miter;stroke-miterlimit:4;stroke-dasharray:none;stroke-opacity:1;marker-end:url(#marker2450)"
   d="m 141.67592,355.27064 81.24127,-70.11232"
   id="path361"
   inkscape:connector-type="polyline"
   inkscape:connector-curvature="0"
   inkscape:connection-start="#g279"
   inkscape:connection-end="#g324" /><path
   style="fill:none;fill-rule:evenodd;stroke:#000000;stroke-width:1.70078743;stroke-linecap:butt;stroke-linejoin:miter;stroke-miterlimit:4;stroke-dasharray:none;stroke-opacity:1;marker-end:url(#marker2244)"
   d="m 141.676,190.65851 81.24127,70.11232"
   id="path367"
   inkscape:connector-type="polyline"
   inkscape:connector-curvature="0"
   inkscape:connection-start="#g267"
   inkscape:connection-end="#g324" /><path
   style="fill:none;fill-rule:evenodd;stroke:#000000;stroke-width:1.70078743;stroke-linecap:butt;stroke-linejoin:miter;stroke-miterlimit:4;stroke-dasharray:none;stroke-opacity:1;marker-end:url(#marker2150)"
   d="m 141.676,285.15849 81.24127,70.11232"
   id="path371"
   inkscape:connector-type="polyline"
   inkscape:connector-curvature="0"
   inkscape:connection-start="#g28"
   inkscape:connection-end="#g333" /><path
   style="fill:none;fill-rule:evenodd;stroke:#000000;stroke-width:1.70078743;stroke-linecap:butt;stroke-linejoin:miter;stroke-miterlimit:4;stroke-dasharray:none;stroke-opacity:1;marker-end:url(#marker1770)"
   d="m 350.77174,361.60678 63.2383,-20.89863"
   id="path381"
   inkscape:connector-type="polyline"
   inkscape:connector-curvature="0"
   inkscape:connection-start="#g345"
   inkscape:connection-end="#g100" /><path
   style="fill:none;fill-rule:evenodd;stroke:#000000;stroke-width:1.70078743;stroke-linecap:butt;stroke-linejoin:miter;stroke-miterlimit:4;stroke-dasharray:none;stroke-opacity:1;marker-end:url(#marker1712)"
   d="m 350.29298,265.81951 64.19561,-26.59558"
   id="path383"
   inkscape:connector-type="polyline"
   inkscape:connector-curvature="0"
   inkscape:connection-start="#g337"
   inkscape:connection-end="#g104" /><path
   style="fill:none;fill-rule:evenodd;stroke:#000000;stroke-width:1.70078743;stroke-linecap:butt;stroke-linejoin:miter;stroke-miterlimit:4;stroke-dasharray:none;stroke-opacity:1;marker-end:url(#marker1660)"
   d="m 349.44912,187.37553 65.88374,35.79231"
   id="path385"
   inkscape:connector-type="polyline"
   inkscape:connector-curvature="0"
   inkscape:connection-start="#g341"
   inkscape:connection-end="#g104" /><path
   style="fill:none;fill-rule:evenodd;stroke:#000000;stroke-width:1.70078743;stroke-linecap:butt;stroke-linejoin:miter;stroke-miterlimit:4;stroke-dasharray:none;stroke-opacity:1;marker-end:url(#marker1614)"
   d="m 348.86027,282.88104 67.06126,42.05277"
   id="path387"
   inkscape:connector-type="polyline"
   inkscape:connector-curvature="0"
   inkscape:connection-start="#g337"
   inkscape:connection-end="#g100" /><g
   id="g3725"
   style="fill:#666666"><g
     style="fill:#666666"
     id="g324"
     transform="translate(255.7095,272.96504)"><path
       d="m 0,0 c 0,-10.308 -8.355,-18.664 -18.663,-18.664 -10.307,0 -18.663,8.356 -18.663,18.664 0,10.307 8.356,18.663 18.663,18.663 C -8.355,18.663 0,10.307 0,0"
       style="fill:#666666;fill-opacity:1;fill-rule:nonzero;stroke:none"
       id="path322"
       inkscape:connector-curvature="0" /></g><g
     style="fill:#666666"
     transform="translate(255.7095,178.46506)"
     id="g329"><path
       inkscape:connector-curvature="0"
       id="path327"
       style="fill:#666666;fill-opacity:1;fill-rule:nonzero;stroke:none"
       d="m 0,0 c 0,-10.308 -8.355,-18.664 -18.663,-18.664 -10.307,0 -18.663,8.356 -18.663,18.664 0,10.307 8.356,18.663 18.663,18.663 C -8.355,18.663 0,10.307 0,0" /></g><g
     style="fill:#666666"
     id="g333"
     transform="translate(255.7095,367.46502)"><path
       d="m 0,0 c 0,-10.308 -8.355,-18.664 -18.663,-18.664 -10.307,0 -18.663,8.356 -18.663,18.664 0,10.307 8.356,18.663 18.663,18.663 C -8.355,18.663 0,10.307 0,0"
       style="fill:#666666;fill-opacity:1;fill-rule:nonzero;stroke:none"
       id="path331"
       inkscape:connector-curvature="0" /></g><g
     style="fill:#666666"
     transform="translate(351.7095,272.96504)"
     id="g337"><path
       inkscape:connector-curvature="0"
       id="path335"
       style="fill:#666666;fill-opacity:1;fill-rule:nonzero;stroke:none"
       d="m 0,0 c 0,-10.308 -8.355,-18.664 -18.663,-18.664 -10.307,0 -18.663,8.356 -18.663,18.664 0,10.307 8.356,18.663 18.663,18.663 C -8.355,18.663 0,10.307 0,0" /></g><g
     style="fill:#666666"
     id="g341"
     transform="translate(351.7095,178.46506)"><path
       d="m 0,0 c 0,-10.308 -8.355,-18.664 -18.663,-18.664 -10.307,0 -18.663,8.356 -18.663,18.664 0,10.307 8.356,18.663 18.663,18.663 C -8.355,18.663 0,10.307 0,0"
       style="fill:#666666;fill-opacity:1;fill-rule:nonzero;stroke:none"
       id="path339"
       inkscape:connector-curvature="0" /></g><g
     style="fill:#666666"
     transform="translate(351.7095,367.46502)"
     id="g345"><path
       inkscape:connector-curvature="0"
       id="path343"
       style="fill:#666666;fill-opacity:1;fill-rule:nonzero;stroke:none"
       d="m 0,0 c 0,-10.308 -8.355,-18.664 -18.663,-18.664 -10.307,0 -18.663,8.356 -18.663,18.664 0,10.307 8.356,18.663 18.663,18.663 C -8.355,18.663 0,10.307 0,0" /></g><path
     inkscape:connection-end="#g345"
     inkscape:connection-start="#g333"
     inkscape:connector-curvature="0"
     inkscape:connector-type="polyline"
     id="path355"
     d="m 255.7095,367.46452 58.674,0"
     style="fill:#666666;fill-rule:evenodd;stroke:#000000;stroke-width:1.70078743;stroke-linecap:butt;stroke-linejoin:miter;stroke-miterlimit:4;stroke-dasharray:none;stroke-opacity:1;marker-end:url(#marker2804)" /><path
     inkscape:connection-end="#g337"
     inkscape:connection-start="#g324"
     inkscape:connector-curvature="0"
     inkscape:connector-type="polyline"
     id="path357"
     d="m 255.7095,272.96454 h 58.674"
     style="fill:#666666;fill-rule:evenodd;stroke:#000000;stroke-width:1.70078743;stroke-linecap:butt;stroke-linejoin:miter;stroke-miterlimit:4;stroke-dasharray:none;stroke-opacity:1;marker-end:url(#marker2680)" /><path
     inkscape:connection-end="#g341"
     inkscape:connection-start="#g329"
     inkscape:connector-curvature="0"
     inkscape:connector-type="polyline"
     id="path359"
     d="m 255.7095,178.46456 h 58.674"
     style="fill:#666666;fill-rule:evenodd;stroke:#000000;stroke-width:1.70078743;stroke-linecap:butt;stroke-linejoin:miter;stroke-miterlimit:4;stroke-dasharray:none;stroke-opacity:1;marker-end:url(#marker2562)" /><path
     inkscape:connection-end="#g337"
     inkscape:connection-start="#g333"
     inkscape:connector-curvature="0"
     inkscape:connector-type="polyline"
     id="path373"
     d="M 250.347,354.37184 319.74612,286.0571"
     style="fill:#666666;fill-rule:evenodd;stroke:#000000;stroke-width:1.70078743;stroke-linecap:butt;stroke-linejoin:miter;stroke-miterlimit:4;stroke-dasharray:none;stroke-opacity:1;marker-end:url(#marker2062)" /><path
     inkscape:connection-end="#g341"
     inkscape:connection-start="#g324"
     inkscape:connector-curvature="0"
     inkscape:connector-type="polyline"
     id="path375"
     d="m 250.347,259.87186 69.39912,-68.31474"
     style="fill:#666666;fill-rule:evenodd;stroke:#000000;stroke-width:1.70078743;stroke-linecap:butt;stroke-linejoin:miter;stroke-miterlimit:4;stroke-dasharray:none;stroke-opacity:1;marker-end:url(#marker1980)" /><path
     inkscape:connection-end="#g337"
     inkscape:connection-start="#g329"
     inkscape:connector-curvature="0"
     inkscape:connector-type="polyline"
     id="path377"
     d="m 250.34707,191.5573 69.39912,68.31475"
     style="fill:#666666;fill-rule:evenodd;stroke:#000000;stroke-width:1.70078743;stroke-linecap:butt;stroke-linejoin:miter;stroke-miterlimit:4;stroke-dasharray:none;stroke-opacity:1;marker-end:url(#marker1904)" /><path
     inkscape:connection-end="#g345"
     inkscape:connection-start="#g324"
     inkscape:connector-curvature="0"
     inkscape:connector-type="polyline"
     id="path379"
     d="m 250.34707,286.05728 69.39912,68.31475"
     style="fill:#666666;fill-rule:evenodd;stroke:#000000;stroke-width:1.70078743;stroke-linecap:butt;stroke-linejoin:miter;stroke-miterlimit:4;stroke-dasharray:none;stroke-opacity:1;marker-end:url(#marker1834)" /><path
     inkscape:connection-end="#g345"
     inkscape:connection-start="#g329"
     inkscape:connector-curvature="0"
     inkscape:connector-type="polyline"
     id="path389"
     d="m 245.50038,195.10813 79.09234,155.71302"
     style="fill:#666666;fill-rule:evenodd;stroke:#000000;stroke-width:1.70078743;stroke-linecap:butt;stroke-linejoin:miter;stroke-miterlimit:4;stroke-dasharray:none;stroke-opacity:1;marker-end:url(#marker1574)" /><path
     inkscape:connection-end="#g341"
     inkscape:connection-start="#g333"
     inkscape:connector-curvature="0"
     inkscape:connector-type="polyline"
     id="path391"
     d="M 245.50037,350.82097 324.59271,195.10796"
     style="fill:#666666;fill-rule:evenodd;stroke:#000000;stroke-width:1.70078743;stroke-linecap:butt;stroke-linejoin:miter;stroke-miterlimit:4;stroke-dasharray:none;stroke-opacity:1;marker-end:url(#marker1540)" /></g><path
   style="fill:none;fill-rule:evenodd;stroke:#000000;stroke-width:1.70078743;stroke-linecap:butt;stroke-linejoin:miter;stroke-miterlimit:4;stroke-dasharray:none;stroke-opacity:1;marker-end:url(#marker1512)"
   d="M 136.90419,351.31289 227.68891,194.61602"
   id="path393"
   inkscape:connector-type="polyline"
   inkscape:connector-curvature="0"
   inkscape:connection-start="#g279"
   inkscape:connection-end="#g329" /><path
   style="fill:none;fill-rule:evenodd;stroke:#000000;stroke-width:1.70078743;stroke-linecap:butt;stroke-linejoin:miter;stroke-miterlimit:4;stroke-dasharray:none;stroke-opacity:1;marker-end:url(#marker1490)"
   d="m 136.90421,194.61621 90.78471,156.69688"
   id="path395"
   inkscape:connector-type="polyline"
   inkscape:connector-curvature="0"
   inkscape:connection-start="#g267"
   inkscape:connection-end="#g333" /><path
   style="fill:none;fill-rule:evenodd;stroke:#000000;stroke-width:1.70078743;stroke-linecap:butt;stroke-linejoin:miter;stroke-miterlimit:4;stroke-dasharray:none;stroke-opacity:1;marker-end:url(#Arrow2Mend)"
   d="M 344.04108,352.38167 420.74099,247.16138"
   id="path397"
   inkscape:connector-type="polyline"
   inkscape:connector-curvature="0"
   inkscape:connection-start="#g345"
   inkscape:connection-end="#g104" /><path
   style="fill:none;fill-rule:evenodd;stroke:#000000;stroke-width:1.70078743;stroke-linecap:butt;stroke-linejoin:miter;stroke-miterlimit:4;stroke-dasharray:none;stroke-opacity:1;marker-end:url(#marker3360)"
   d="m 343.00813,194.2501 78.7658,124.81499"
   id="path399"
   inkscape:connector-type="polyline"
   inkscape:connector-curvature="0"
   inkscape:connection-start="#g341"
   inkscape:connection-end="#g100" /><path
   style="fill:none;fill-rule:evenodd;stroke:#000000;stroke-width:1.70078743;stroke-linecap:butt;stroke-linejoin:miter;stroke-miterlimit:4;stroke-dasharray:none;stroke-opacity:1;marker-end:url(#marker3534)"
   d="m 141.67592,260.77066 81.24127,-70.11232"
   id="path3524"
   inkscape:connector-type="polyline"
   inkscape:connector-curvature="0"
   inkscape:connection-start="#g28"
   inkscape:connection-end="#g329" /></g></svg>