<?xml version="1.0" encoding="UTF-8" standalone="no"?>
<!-- Created with Inkscape (http://www.inkscape.org/) -->

<svg
   xmlns:dc="http://purl.org/dc/elements/1.1/"
   xmlns:cc="http://creativecommons.org/ns#"
   xmlns:rdf="http://www.w3.org/1999/02/22-rdf-syntax-ns#"
   xmlns:svg="http://www.w3.org/2000/svg"
   xmlns="http://www.w3.org/2000/svg"
   xmlns:sodipodi="http://sodipodi.sourceforge.net/DTD/sodipodi-0.dtd"
   xmlns:inkscape="http://www.inkscape.org/namespaces/inkscape"
   version="1.1"
   id="svg2"
   xml:space="preserve"
   width="200mm"
   height="200mm"
   viewBox="0 0 755.9055 755.9055"
   sodipodi:docname="figure_ann.svg"
   inkscape:version="0.92.3 (2405546, 2018-03-11)"
   inkscape:export-filename="/home/pratik/git/knots/knots_texts/grc/figure_ann.png"
   inkscape:export-xdpi="300"
   inkscape:export-ydpi="300"><metadata
     id="metadata8"><rdf:RDF><cc:Work
         rdf:about=""><dc:format>image/svg+xml</dc:format><dc:type
           rdf:resource="http://purl.org/dc/dcmitype/StillImage" /><dc:title></dc:title></cc:Work></rdf:RDF></metadata><defs
     id="defs6"><clipPath
       clipPathUnits="userSpaceOnUse"
       id="clipPath18"><path
         d="M 0,566.929 H 566.929 V 0 H 0 Z"
         id="path16"
         inkscape:connector-curvature="0" /></clipPath><clipPath
       clipPathUnits="userSpaceOnUse"
       id="clipPath74"><path
         d="M 0,566.929 H 566.929 V 0 H 0 Z"
         id="path72"
         inkscape:connector-curvature="0" /></clipPath><clipPath
       clipPathUnits="userSpaceOnUse"
       id="clipPath146"><path
         d="M 0,566.929 H 566.929 V 0 H 0 Z"
         id="path144"
         inkscape:connector-curvature="0" /></clipPath><clipPath
       clipPathUnits="userSpaceOnUse"
       id="clipPath314"><path
         d="M 205.956,503.173 H 382.002 V 111.894 H 205.956 Z"
         id="path312"
         inkscape:connector-curvature="0" /></clipPath><clipPath
       clipPathUnits="userSpaceOnUse"
       id="clipPath328"><path
         d="m 145.389,376.574 h 83.742 v -70.122 h -83.742 z"
         id="path326"
         inkscape:connector-curvature="0" /></clipPath><clipPath
       clipPathUnits="userSpaceOnUse"
       id="clipPath348"><path
         d="m 145.107,452.021 h 86.774 V 306.783 h -86.774 z"
         id="path346"
         inkscape:connector-curvature="0" /></clipPath><clipPath
       clipPathUnits="userSpaceOnUse"
       id="clipPath368"><path
         d="m 143.575,308.558 h 81.819 v -73.329 h -81.819 z"
         id="path366"
         inkscape:connector-curvature="0" /></clipPath><clipPath
       clipPathUnits="userSpaceOnUse"
       id="clipPath388"><path
         d="m 145.106,308.441 h 84.025 V 167.34 h -84.025 z"
         id="path386"
         inkscape:connector-curvature="0" /></clipPath><clipPath
       clipPathUnits="userSpaceOnUse"
       id="clipPath408"><path
         d="m 146.254,313.528 h 79.347 v -12.185 h -79.347 z"
         id="path406"
         inkscape:connector-curvature="0" /></clipPath><clipPath
       clipPathUnits="userSpaceOnUse"
       id="clipPath428"><path
         d="m 360.975,237.565 h 60.37 v -70.987 h -60.37 z"
         id="path426"
         inkscape:connector-curvature="0" /></clipPath><clipPath
       clipPathUnits="userSpaceOnUse"
       id="clipPath448"><path
         d="m 358.939,341.828 h 60.476 V 246.84 h -60.476 z"
         id="path446"
         inkscape:connector-curvature="0" /></clipPath><clipPath
       clipPathUnits="userSpaceOnUse"
       id="clipPath468"><path
         d="m 359.83,453.618 h 62.024 V 372.012 H 359.83 Z"
         id="path466"
         inkscape:connector-curvature="0" /></clipPath><clipPath
       clipPathUnits="userSpaceOnUse"
       id="clipPath488"><path
         d="m 359.727,372.625 h 58.865 V 266.203 h -58.865 z"
         id="path486"
         inkscape:connector-curvature="0" /></clipPath><clipPath
       clipPathUnits="userSpaceOnUse"
       id="clipPath508"><path
         d="m 367.498,251.019 h 46.166 V 233.18 h -46.166 z"
         id="path506"
         inkscape:connector-curvature="0" /></clipPath><clipPath
       clipPathUnits="userSpaceOnUse"
       id="clipPath528"><path
         d="m 364.525,350.522 h 49.318 v -32.897 h -49.318 z"
         id="path526"
         inkscape:connector-curvature="0" /></clipPath><clipPath
       clipPathUnits="userSpaceOnUse"
       id="clipPath548"><path
         d="m 366.14,382.236 h 47.703 V 359.795 H 366.14 Z"
         id="path546"
         inkscape:connector-curvature="0" /></clipPath><clipPath
       clipPathUnits="userSpaceOnUse"
       id="clipPath568"><path
         d="m 364.207,300.507 h 49.457 v -42.76 h -49.457 z"
         id="path566"
         inkscape:connector-curvature="0" /></clipPath><clipPath
       clipPathUnits="userSpaceOnUse"
       id="clipPath588"><path
         d="m 353.47,448.93 h 72.045 V 269.959 H 353.47 Z"
         id="path586"
         inkscape:connector-curvature="0" /></clipPath><clipPath
       clipPathUnits="userSpaceOnUse"
       id="clipPath608"><path
         d="m 356.287,338.232 h 70.791 V 169.781 h -70.791 z"
         id="path606"
         inkscape:connector-curvature="0" /></clipPath></defs><sodipodi:namedview
     pagecolor="#ffffff"
     bordercolor="#666666"
     borderopacity="1"
     objecttolerance="10"
     gridtolerance="10"
     guidetolerance="10"
     inkscape:pageopacity="0"
     inkscape:pageshadow="2"
     inkscape:window-width="1920"
     inkscape:window-height="1052"
     id="namedview4"
     showgrid="false"
     units="mm"
     inkscape:zoom="0.88305873"
     inkscape:cx="711.22084"
     inkscape:cy="388.53001"
     inkscape:window-x="1920"
     inkscape:window-y="0"
     inkscape:window-maximized="1"
     inkscape:current-layer="g10" /><g
     id="g10"
     inkscape:groupmode="layer"
     inkscape:label="ANN for poster"
     transform="matrix(1.3333333,0,0,-1.3333333,0,755.9055)"><rect
       style="opacity:1;fill:#ffffff;fill-opacity:1;stroke:none;stroke-width:2.57360196;stroke-miterlimit:10;stroke-dasharray:none;stroke-dashoffset:0;stroke-opacity:1"
       id="rect2464"
       width="566.92914"
       height="566.92914"
       x="4.9239516e-06"
       y="-566.92914"
       transform="scale(1,-1)" /><g
       id="g2456"
       transform="translate(0,-20.990035)"><g
         transform="translate(450.3989,355.8389)"
         id="g100"><path
           inkscape:connector-curvature="0"
           id="path102"
           style="fill:#21409a;fill-opacity:1;fill-rule:nonzero;stroke:none"
           d="m 0,0 c 0,-10.306 -8.354,-18.662 -18.663,-18.662 -10.307,0 -18.664,8.356 -18.664,18.662 0,10.309 8.357,18.665 18.664,18.665 C -8.354,18.665 0,10.309 0,0" /></g><g
         transform="translate(450.3989,253.0693)"
         id="g104"><path
           inkscape:connector-curvature="0"
           id="path106"
           style="fill:#21409a;fill-opacity:1;fill-rule:nonzero;stroke:none"
           d="m 0,0 c 0,-10.308 -8.354,-18.664 -18.663,-18.664 -10.307,0 -18.664,8.356 -18.664,18.664 0,10.307 8.357,18.663 18.664,18.663 C -8.354,18.663 0,10.307 0,0" /></g><g
         transform="translate(450.1548,358.0664)"
         id="g108"><path
           inkscape:connector-curvature="0"
           id="path110"
           style="fill:none;stroke:#231f20;stroke-width:2.56200004;stroke-linecap:butt;stroke-linejoin:miter;stroke-miterlimit:10;stroke-dasharray:none;stroke-opacity:1"
           d="M 0,0 H 23.053" /></g><g
         transform="translate(480.9399,358.0664)"
         id="g112"><path
           inkscape:connector-curvature="0"
           id="path114"
           style="fill:#231f20;fill-opacity:1;fill-rule:nonzero;stroke:none"
           d="M 0,0 C -3.639,-1.35 -8.152,-3.653 -10.951,-6.094 L -8.747,0 -10.951,6.092 C -8.152,3.652 -3.639,1.349 0,0" /></g><g
         transform="translate(449.5933,253.0684)"
         id="g116"><path
           inkscape:connector-curvature="0"
           id="path118"
           style="fill:none;stroke:#231f20;stroke-width:2.56200004;stroke-linecap:butt;stroke-linejoin:miter;stroke-miterlimit:10;stroke-dasharray:none;stroke-opacity:1"
           d="M 0,0 H 23.053" /></g><g
         transform="translate(480.3784,253.0684)"
         id="g120"><path
           inkscape:connector-curvature="0"
           id="path122"
           style="fill:#231f20;fill-opacity:1;fill-rule:nonzero;stroke:none"
           d="M 0,0 C -3.639,-1.35 -8.152,-3.653 -10.951,-6.094 L -8.747,0 -10.951,6.092 C -8.152,3.652 -3.639,1.349 0,0" /></g></g><g
       id="g2442"
       transform="translate(0,-24.043735)"><g
         transform="translate(146.2095,307.5088)"
         id="g28"><path
           inkscape:connector-curvature="0"
           id="path30"
           style="fill:#ed1c24;fill-opacity:1;fill-rule:nonzero;stroke:none"
           d="m 0,0 c 0,-10.308 -8.355,-18.664 -18.663,-18.664 -10.307,0 -18.663,8.356 -18.663,18.664 0,10.307 8.356,18.663 18.663,18.663 C -8.355,18.663 0,10.307 0,0" /></g><g
         id="g2285"><path
           inkscape:connector-curvature="0"
           id="path182"
           style="fill:none;stroke:#231f20;stroke-width:2.56200004;stroke-linecap:butt;stroke-linejoin:miter;stroke-miterlimit:10;stroke-dasharray:none;stroke-opacity:1"
           d="m 79.8521,307.79 h 22.266" /><path
           inkscape:connector-curvature="0"
           id="path186"
           style="fill:#231f20;fill-opacity:1;fill-rule:nonzero;stroke:none"
           d="m 109.8501,307.79 c -3.639,-1.35 -8.152,-3.653 -10.951,-6.094 l 2.204,6.094 -2.204,6.092 c 2.799,-2.44 7.312,-4.743 10.951,-6.092" /></g></g><g
       id="g2435"
       transform="translate(0,-24.069435)"><path
         d="m 371.48807,111.894 h -176.047 v 391.28 h 176.047 z"
         style="fill:#e7e8e9;fill-opacity:1;fill-rule:nonzero;stroke:none"
         id="path316"
         inkscape:connector-curvature="0" /><g
         transform="translate(263.0444,465.8779)"
         id="g20"><path
           inkscape:connector-curvature="0"
           id="path22"
           style="fill:#ffffff;fill-opacity:1;fill-rule:nonzero;stroke:none"
           d="m 0,0 c 0,-10.308 -8.355,-18.664 -18.663,-18.664 -10.309,0 -18.663,8.356 -18.663,18.664 0,10.307 8.354,18.663 18.663,18.663 C -8.355,18.663 0,10.307 0,0" /></g><g
         transform="translate(263.0444,465.8779)"
         id="g24"><path
           inkscape:connector-curvature="0"
           id="path26"
           style="fill:none;stroke:#6d6f71;stroke-width:1.78900003;stroke-linecap:butt;stroke-linejoin:miter;stroke-miterlimit:10;stroke-dasharray:none;stroke-opacity:1"
           d="m 0,0 c 0,-10.308 -8.355,-18.664 -18.663,-18.664 -10.309,0 -18.663,8.356 -18.663,18.664 0,10.307 8.354,18.663 18.663,18.663 C -8.355,18.663 0,10.307 0,0 Z" /></g><g
         transform="translate(262.9097,387.5176)"
         id="g32"><path
           inkscape:connector-curvature="0"
           id="path34"
           style="fill:#ffffff;fill-opacity:1;fill-rule:nonzero;stroke:none"
           d="m 0,0 c 0,-10.307 -8.356,-18.663 -18.664,-18.663 -10.307,0 -18.663,8.356 -18.663,18.663 0,10.308 8.356,18.664 18.663,18.664 C -8.356,18.664 0,10.308 0,0" /></g><g
         transform="translate(262.9097,387.5176)"
         id="g36"><path
           inkscape:connector-curvature="0"
           id="path38"
           style="fill:none;stroke:#6d6f71;stroke-width:1.78900003;stroke-linecap:butt;stroke-linejoin:miter;stroke-miterlimit:10;stroke-dasharray:none;stroke-opacity:1"
           d="m 0,0 c 0,-10.307 -8.356,-18.663 -18.664,-18.663 -10.307,0 -18.663,8.356 -18.663,18.663 0,10.308 8.356,18.664 18.663,18.664 C -8.356,18.664 0,10.308 0,0 Z" /></g><g
         transform="translate(260.3247,454.9336)"
         id="g40"><path
           inkscape:connector-curvature="0"
           id="path42"
           style="fill:none;stroke:#231f20;stroke-width:1.79400003;stroke-linecap:butt;stroke-linejoin:miter;stroke-miterlimit:10;stroke-dasharray:none;stroke-opacity:1"
           d="M 0,0 69.186,-51.872" /></g><g
         transform="translate(333.8413,399.8145)"
         id="g44"><path
           inkscape:connector-curvature="0"
           id="path46"
           style="fill:#231f20;fill-opacity:1;fill-rule:nonzero;stroke:none"
           d="m 0,0 c -2.605,0.771 -6.102,1.378 -8.693,1.187 l 3.794,2.487 1.323,4.338 C -3.033,5.47 -1.472,2.283 0,0" /></g><g
         transform="translate(259.6284,399.5879)"
         id="g48"><path
           inkscape:connector-curvature="0"
           id="path50"
           style="fill:none;stroke:#231f20;stroke-width:1.77499998;stroke-linecap:butt;stroke-linejoin:miter;stroke-miterlimit:10;stroke-dasharray:none;stroke-opacity:1"
           d="M 0,0 69.493,51.614" /></g><g
         transform="translate(333.4224,454.396)"
         id="g52"><path
           inkscape:connector-curvature="0"
           id="path54"
           style="fill:#231f20;fill-opacity:1;fill-rule:nonzero;stroke:none"
           d="m 0,0 c -1.466,-2.254 -3.025,-5.399 -3.573,-7.913 l -1.292,4.3 -3.742,2.478 C -6.043,-1.336 -2.581,-0.753 0,0" /></g><g
         transform="translate(264.0024,465.8779)"
         id="g56"><path
           inkscape:connector-curvature="0"
           id="path58"
           style="fill:none;stroke:#231f20;stroke-width:1.78799999;stroke-linecap:butt;stroke-linejoin:miter;stroke-miterlimit:10;stroke-dasharray:none;stroke-opacity:1"
           d="M 0,0 H 60.334" /></g><g
         transform="translate(329.731,465.8779)"
         id="g60"><path
           inkscape:connector-curvature="0"
           id="path62"
           style="fill:#231f20;fill-opacity:1;fill-rule:nonzero;stroke:none"
           d="M 0,0 C -2.538,-0.942 -5.687,-2.549 -7.64,-4.251 L -6.103,0 -7.64,4.25 C -5.687,2.548 -2.538,0.941 0,0" /></g><g
         transform="translate(262.9282,309.2256)"
         id="g76"><path
           inkscape:connector-curvature="0"
           id="path78"
           style="fill:#ffffff;fill-opacity:1;fill-rule:nonzero;stroke:none"
           d="m 0,0 c 0,-10.308 -8.355,-18.663 -18.663,-18.663 -10.308,0 -18.664,8.355 -18.664,18.663 0,10.309 8.356,18.664 18.664,18.664 C -8.355,18.664 0,10.309 0,0" /></g><g
         transform="translate(262.9282,309.2256)"
         id="g80"><path
           inkscape:connector-curvature="0"
           id="path82"
           style="fill:none;stroke:#6d6f71;stroke-width:1.78900003;stroke-linecap:butt;stroke-linejoin:miter;stroke-miterlimit:10;stroke-dasharray:none;stroke-opacity:1"
           d="m 0,0 c 0,-10.308 -8.355,-18.663 -18.663,-18.663 -10.308,0 -18.664,8.355 -18.664,18.663 0,10.309 8.356,18.664 18.664,18.664 C -8.355,18.664 0,10.309 0,0 Z" /></g><g
         transform="translate(263.3159,230.9414)"
         id="g84"><path
           inkscape:connector-curvature="0"
           id="path86"
           style="fill:#ffffff;fill-opacity:1;fill-rule:nonzero;stroke:none"
           d="m 0,0 c 0,-10.308 -8.356,-18.663 -18.664,-18.663 -10.308,0 -18.663,8.355 -18.663,18.663 0,10.309 8.355,18.664 18.663,18.664 C -8.356,18.664 0,10.309 0,0" /></g><g
         transform="translate(263.3159,230.9414)"
         id="g88"><path
           inkscape:connector-curvature="0"
           id="path90"
           style="fill:none;stroke:#6d6f71;stroke-width:1.78900003;stroke-linecap:butt;stroke-linejoin:miter;stroke-miterlimit:10;stroke-dasharray:none;stroke-opacity:1"
           d="m 0,0 c 0,-10.308 -8.356,-18.663 -18.664,-18.663 -10.308,0 -18.663,8.355 -18.663,18.663 0,10.309 8.355,18.664 18.663,18.664 C -8.356,18.664 0,10.309 0,0 Z" /></g><g
         transform="translate(262.9097,152.6562)"
         id="g92"><path
           inkscape:connector-curvature="0"
           id="path94"
           style="fill:#ffffff;fill-opacity:1;fill-rule:nonzero;stroke:none"
           d="m 0,0 c 0,-10.308 -8.356,-18.664 -18.664,-18.664 -10.307,0 -18.663,8.356 -18.663,18.664 0,10.308 8.356,18.665 18.663,18.665 C -8.356,18.665 0,10.308 0,0" /></g><g
         transform="translate(262.9097,152.6562)"
         id="g96"><path
           inkscape:connector-curvature="0"
           id="path98"
           style="fill:none;stroke:#6d6f71;stroke-width:1.78900003;stroke-linecap:butt;stroke-linejoin:miter;stroke-miterlimit:10;stroke-dasharray:none;stroke-opacity:1"
           d="m 0,0 c 0,-10.308 -8.356,-18.664 -18.664,-18.664 -10.307,0 -18.663,8.356 -18.663,18.664 0,10.308 8.356,18.665 18.663,18.665 C -8.356,18.665 0,10.308 0,0 Z" /></g><path
         d="m 367.9233,465.8779 c 0,-10.308 -8.356,-18.664 -18.663,-18.664 -10.309,0 -18.664,8.356 -18.664,18.664 0,10.307 8.355,18.663 18.664,18.663 10.307,0 18.663,-8.356 18.663,-18.663"
         style="fill:#ffffff;fill-opacity:1;fill-rule:nonzero;stroke:none"
         id="path190"
         inkscape:connector-curvature="0" /><path
         d="m 367.9233,465.8779 c 0,-10.308 -8.356,-18.664 -18.663,-18.664 -10.309,0 -18.664,8.356 -18.664,18.664 0,10.307 8.355,18.663 18.664,18.663 10.307,0 18.663,-8.356 18.663,-18.663 z"
         style="fill:none;stroke:#6d6f71;stroke-width:1.78900003;stroke-linecap:butt;stroke-linejoin:miter;stroke-miterlimit:10;stroke-dasharray:none;stroke-opacity:1"
         id="path194"
         inkscape:connector-curvature="0" /><path
         d="m 367.7876,387.5176 c 0,-10.307 -8.355,-18.663 -18.663,-18.663 -10.308,0 -18.663,8.356 -18.663,18.663 0,10.308 8.355,18.664 18.663,18.664 10.308,0 18.663,-8.356 18.663,-18.664"
         style="fill:#ffffff;fill-opacity:1;fill-rule:nonzero;stroke:none"
         id="path198"
         inkscape:connector-curvature="0" /><path
         d="m 367.7876,387.5176 c 0,-10.307 -8.355,-18.663 -18.663,-18.663 -10.308,0 -18.663,8.356 -18.663,18.663 0,10.308 8.355,18.664 18.663,18.664 10.308,0 18.663,-8.356 18.663,-18.664 z"
         style="fill:none;stroke:#6d6f71;stroke-width:1.78900003;stroke-linecap:butt;stroke-linejoin:miter;stroke-miterlimit:10;stroke-dasharray:none;stroke-opacity:1"
         id="path202"
         inkscape:connector-curvature="0" /><path
         d="m 367.8071,309.2256 c 0,-10.308 -8.356,-18.663 -18.664,-18.663 -10.307,0 -18.663,8.355 -18.663,18.663 0,10.309 8.356,18.664 18.663,18.664 10.308,0 18.664,-8.355 18.664,-18.664"
         style="fill:#ffffff;fill-opacity:1;fill-rule:nonzero;stroke:none"
         id="path206"
         inkscape:connector-curvature="0" /><path
         d="m 367.8071,309.2256 c 0,-10.308 -8.356,-18.663 -18.664,-18.663 -10.307,0 -18.663,8.355 -18.663,18.663 0,10.309 8.356,18.664 18.663,18.664 10.308,0 18.664,-8.355 18.664,-18.664 z"
         style="fill:none;stroke:#6d6f71;stroke-width:1.78900003;stroke-linecap:butt;stroke-linejoin:miter;stroke-miterlimit:10;stroke-dasharray:none;stroke-opacity:1"
         id="path210"
         inkscape:connector-curvature="0" /><path
         d="m 368.1938,230.9414 c 0,-10.308 -8.355,-18.663 -18.664,-18.663 -10.307,0 -18.662,8.355 -18.662,18.663 0,10.309 8.355,18.664 18.662,18.664 10.309,0 18.664,-8.355 18.664,-18.664"
         style="fill:#ffffff;fill-opacity:1;fill-rule:nonzero;stroke:none"
         id="path214"
         inkscape:connector-curvature="0" /><path
         d="m 368.1938,230.9414 c 0,-10.308 -8.355,-18.663 -18.664,-18.663 -10.307,0 -18.662,8.355 -18.662,18.663 0,10.309 8.355,18.664 18.662,18.664 10.309,0 18.664,-8.355 18.664,-18.664 z"
         style="fill:none;stroke:#6d6f71;stroke-width:1.78900003;stroke-linecap:butt;stroke-linejoin:miter;stroke-miterlimit:10;stroke-dasharray:none;stroke-opacity:1"
         id="path218"
         inkscape:connector-curvature="0" /><path
         d="m 367.7876,152.6562 c 0,-10.308 -8.355,-18.664 -18.663,-18.664 -10.308,0 -18.663,8.356 -18.663,18.664 0,10.308 8.355,18.665 18.663,18.665 10.308,0 18.663,-8.357 18.663,-18.665"
         style="fill:#ffffff;fill-opacity:1;fill-rule:nonzero;stroke:none"
         id="path222"
         inkscape:connector-curvature="0" /><path
         d="m 367.7876,152.6562 c 0,-10.308 -8.355,-18.664 -18.663,-18.664 -10.308,0 -18.663,8.356 -18.663,18.664 0,10.308 8.355,18.665 18.663,18.665 10.308,0 18.663,-8.357 18.663,-18.665 z"
         style="fill:none;stroke:#6d6f71;stroke-width:1.78900003;stroke-linecap:butt;stroke-linejoin:miter;stroke-miterlimit:10;stroke-dasharray:none;stroke-opacity:1"
         id="path226"
         inkscape:connector-curvature="0" /><path
         d="m 260.1138,298.2822 69.187,-51.872"
         style="fill:none;stroke:#231f20;stroke-width:1.79400003;stroke-linecap:butt;stroke-linejoin:miter;stroke-miterlimit:10;stroke-dasharray:none;stroke-opacity:1"
         id="path230"
         inkscape:connector-curvature="0" /><path
         d="m 333.6313,243.1631 c -2.605,0.771 -6.102,1.377 -8.693,1.186 l 3.794,2.488 1.323,4.338 c 0.543,-2.542 2.104,-5.729 3.576,-8.012"
         style="fill:#231f20;fill-opacity:1;fill-rule:nonzero;stroke:none"
         id="path234"
         inkscape:connector-curvature="0" /><path
         d="m 259.4175,242.9355 69.493,51.615"
         style="fill:none;stroke:#231f20;stroke-width:1.77499998;stroke-linecap:butt;stroke-linejoin:miter;stroke-miterlimit:10;stroke-dasharray:none;stroke-opacity:1"
         id="path238"
         inkscape:connector-curvature="0" /><path
         d="m 333.2114,297.7451 c -1.466,-2.254 -3.025,-5.399 -3.573,-7.912 l -1.292,4.299 -3.742,2.477 c 2.564,-0.201 6.026,0.383 8.607,1.136"
         style="fill:#231f20;fill-opacity:1;fill-rule:nonzero;stroke:none"
         id="path242"
         inkscape:connector-curvature="0" /><path
         d="m 263.7925,309.2266 h 60.335"
         style="fill:none;stroke:#231f20;stroke-width:1.78799999;stroke-linecap:butt;stroke-linejoin:miter;stroke-miterlimit:10;stroke-dasharray:none;stroke-opacity:1"
         id="path246"
         inkscape:connector-curvature="0" /><path
         d="m 329.522,309.2266 c -2.538,-0.941 -5.687,-2.549 -7.64,-4.251 l 1.537,4.251 -1.537,4.25 c 1.953,-1.702 5.102,-3.309 7.64,-4.25"
         style="fill:#231f20;fill-opacity:1;fill-rule:nonzero;stroke:none"
         id="path250"
         inkscape:connector-curvature="0" /><path
         d="m 260.6509,219.998 69.187,-51.872"
         style="fill:none;stroke:#231f20;stroke-width:1.79400003;stroke-linecap:butt;stroke-linejoin:miter;stroke-miterlimit:10;stroke-dasharray:none;stroke-opacity:1"
         id="path254"
         inkscape:connector-curvature="0" /><path
         d="m 334.1685,164.8789 c -2.605,0.771 -6.102,1.378 -8.693,1.186 l 3.794,2.488 1.323,4.338 c 0.543,-2.542 2.104,-5.729 3.576,-8.012"
         style="fill:#231f20;fill-opacity:1;fill-rule:nonzero;stroke:none"
         id="path258"
         inkscape:connector-curvature="0" /><path
         d="m 259.9546,164.6514 69.492,51.615"
         style="fill:none;stroke:#231f20;stroke-width:1.77499998;stroke-linecap:butt;stroke-linejoin:miter;stroke-miterlimit:10;stroke-dasharray:none;stroke-opacity:1"
         id="path262"
         inkscape:connector-curvature="0" /><path
         d="m 333.7476,219.4609 c -1.466,-2.254 -3.025,-5.399 -3.573,-7.912 l -1.291,4.299 -3.743,2.477 c 2.564,-0.201 6.026,0.383 8.607,1.136"
         style="fill:#231f20;fill-opacity:1;fill-rule:nonzero;stroke:none"
         id="path266"
         inkscape:connector-curvature="0" /><path
         d="m 264.3286,230.9414 h 60.335"
         style="fill:none;stroke:#231f20;stroke-width:1.78799999;stroke-linecap:butt;stroke-linejoin:miter;stroke-miterlimit:10;stroke-dasharray:none;stroke-opacity:1"
         id="path270"
         inkscape:connector-curvature="0" /><path
         d="m 330.0581,230.9414 c -2.538,-0.941 -5.687,-2.549 -7.64,-4.251 l 1.537,4.251 -1.537,4.25 c 1.953,-1.702 5.102,-3.309 7.64,-4.25"
         style="fill:#231f20;fill-opacity:1;fill-rule:nonzero;stroke:none"
         id="path274"
         inkscape:connector-curvature="0" /><path
         d="m 264.0024,152.7314 h 60.334"
         style="fill:none;stroke:#231f20;stroke-width:1.78799999;stroke-linecap:butt;stroke-linejoin:miter;stroke-miterlimit:10;stroke-dasharray:none;stroke-opacity:1"
         id="path278"
         inkscape:connector-curvature="0" /><path
         d="m 329.731,152.7314 c -2.538,-0.941 -5.687,-2.549 -7.64,-4.251 l 1.537,4.251 -1.537,4.25 c 1.953,-1.702 5.102,-3.309 7.64,-4.25"
         style="fill:#231f20;fill-opacity:1;fill-rule:nonzero;stroke:none"
         id="path282"
         inkscape:connector-curvature="0" /><path
         d="m 260.0337,376.5742 69.187,-51.871"
         style="fill:none;stroke:#231f20;stroke-width:1.79400003;stroke-linecap:butt;stroke-linejoin:miter;stroke-miterlimit:10;stroke-dasharray:none;stroke-opacity:1"
         id="path286"
         inkscape:connector-curvature="0" /><path
         d="m 333.5513,321.4561 c -2.605,0.771 -6.102,1.377 -8.693,1.186 l 3.793,2.488 1.324,4.338 c 0.543,-2.542 2.104,-5.729 3.576,-8.012"
         style="fill:#231f20;fill-opacity:1;fill-rule:nonzero;stroke:none"
         id="path290"
         inkscape:connector-curvature="0" /><path
         d="m 259.3384,321.2285 69.491,51.614"
         style="fill:none;stroke:#231f20;stroke-width:1.77499998;stroke-linecap:butt;stroke-linejoin:miter;stroke-miterlimit:10;stroke-dasharray:none;stroke-opacity:1"
         id="path294"
         inkscape:connector-curvature="0" /><path
         d="m 333.1304,376.0371 c -1.466,-2.254 -3.025,-5.399 -3.573,-7.912 l -1.291,4.299 -3.743,2.477 c 2.564,-0.201 6.026,0.383 8.607,1.136"
         style="fill:#231f20;fill-opacity:1;fill-rule:nonzero;stroke:none"
         id="path298"
         inkscape:connector-curvature="0" /><path
         d="m 263.7114,387.5176 h 60.335"
         style="fill:none;stroke:#231f20;stroke-width:1.78799999;stroke-linecap:butt;stroke-linejoin:miter;stroke-miterlimit:10;stroke-dasharray:none;stroke-opacity:1"
         id="path302"
         inkscape:connector-curvature="0" /><path
         d="m 329.4409,387.5176 c -2.538,-0.941 -5.687,-2.549 -7.64,-4.251 l 1.537,4.251 -1.537,4.25 c 1.953,-1.702 5.102,-3.309 7.64,-4.25"
         style="fill:#231f20;fill-opacity:1;fill-rule:nonzero;stroke:none"
         id="path306"
         inkscape:connector-curvature="0" /><path
         inkscape:connector-curvature="0"
         id="path330"
         style="fill:none;stroke:#231f20;stroke-width:2.56200004;stroke-linecap:butt;stroke-linejoin:miter;stroke-miterlimit:10;stroke-dasharray:none;stroke-opacity:1"
         d="m 146.2095,307.4365 76.983,64.187" /><path
         inkscape:connector-curvature="0"
         id="path334"
         style="fill:#231f20;fill-opacity:1;fill-rule:nonzero;stroke:none"
         d="m 229.1313,376.5742 c -1.93,-3.367 -3.922,-8.027 -4.509,-11.692 l -2.209,6.09 -5.595,3.268 c 3.712,-0.082 8.655,1.04 12.313,2.334" /><path
         inkscape:connector-curvature="0"
         id="path350"
         style="fill:none;stroke:#231f20;stroke-width:2.56200004;stroke-linecap:butt;stroke-linejoin:miter;stroke-miterlimit:10;stroke-dasharray:none;stroke-opacity:1"
         d="m 146.2095,307.4365 81.73,137.932" /><path
         inkscape:connector-curvature="0"
         id="path354"
         style="fill:#231f20;fill-opacity:1;fill-rule:nonzero;stroke:none"
         d="m 231.8813,452.021 c -0.693,-3.819 -1.013,-8.876 -0.34,-12.528 l -4.119,5.002 -6.364,1.21 c 3.525,1.164 7.807,3.873 10.823,6.316" /><path
         inkscape:connector-curvature="0"
         id="path370"
         style="fill:none;stroke:#231f20;stroke-width:2.53399992;stroke-linecap:butt;stroke-linejoin:miter;stroke-miterlimit:10;stroke-dasharray:none;stroke-opacity:1"
         d="m 144.4194,307.6133 75.274,-67.289" /><path
         inkscape:connector-curvature="0"
         id="path374"
         style="fill:#231f20;fill-opacity:1;fill-rule:nonzero;stroke:none"
         d="m 225.394,235.2285 c -3.571,1.402 -8.417,2.679 -12.088,2.725 l 5.64,3.039 2.389,5.943 c 0.455,-3.643 2.266,-8.315 4.059,-11.707" /><path
         inkscape:connector-curvature="0"
         id="path390"
         style="fill:none;stroke:#231f20;stroke-width:2.56200004;stroke-linecap:butt;stroke-linejoin:miter;stroke-miterlimit:10;stroke-dasharray:none;stroke-opacity:1"
         d="m 146.2095,307.79 78.99,-133.792" /><path
         inkscape:connector-curvature="0"
         id="path394"
         style="fill:#231f20;fill-opacity:1;fill-rule:nonzero;stroke:none"
         d="m 229.1313,167.3398 c -3.013,2.446 -7.291,5.163 -10.814,6.332 l 6.367,1.2 4.126,4.995 c -0.679,-3.65 -0.367,-8.708 0.321,-12.527" /><path
         inkscape:connector-curvature="0"
         id="path410"
         style="fill:none;stroke:#231f20;stroke-width:2.56200004;stroke-linecap:butt;stroke-linejoin:miter;stroke-miterlimit:10;stroke-dasharray:none;stroke-opacity:1"
         d="m 146.2544,307.4365 h 71.614" /><path
         inkscape:connector-curvature="0"
         id="path414"
         style="fill:#231f20;fill-opacity:1;fill-rule:nonzero;stroke:none"
         d="m 225.6011,307.4365 c -3.639,-1.35 -8.152,-3.653 -10.951,-6.094 l 2.204,6.094 -2.204,6.092 c 2.799,-2.44 7.312,-4.743 10.951,-6.092" /><path
         inkscape:connector-curvature="0"
         id="path430"
         style="fill:none;stroke:#231f20;stroke-width:2.47799993;stroke-linecap:butt;stroke-linejoin:miter;stroke-miterlimit:10;stroke-dasharray:none;stroke-opacity:1"
         d="m 361.9204,167.3789 54.593,64.479" /><path
         inkscape:connector-curvature="0"
         id="path434"
         style="fill:#231f20;fill-opacity:1;fill-rule:nonzero;stroke:none"
         d="m 421.3452,237.5654 c -1.277,-3.529 -2.398,-8.301 -2.347,-11.892 l -3.12,5.435 -5.874,2.181 c 3.55,0.541 8.071,2.433 11.341,4.276" /><path
         inkscape:connector-curvature="0"
         id="path450"
         style="fill:none;stroke:#231f20;stroke-width:2.56200004;stroke-linecap:butt;stroke-linejoin:miter;stroke-miterlimit:10;stroke-dasharray:none;stroke-opacity:1"
         d="m 360.0229,247.5225 55.271,87.763" /><path
         inkscape:connector-curvature="0"
         id="path454"
         style="fill:#231f20;fill-opacity:1;fill-rule:nonzero;stroke:none"
         d="m 419.4146,341.8281 c -0.797,-3.798 -1.253,-8.846 -0.68,-12.514 l -3.981,5.113 -6.329,1.38 c 3.554,1.069 7.91,3.661 10.99,6.021" /><path
         inkscape:connector-curvature="0"
         id="path470"
         style="fill:none;stroke:#231f20;stroke-width:2.56200004;stroke-linecap:butt;stroke-linejoin:miter;stroke-miterlimit:10;stroke-dasharray:none;stroke-opacity:1"
         d="m 417.1958,378.1836 -56.344,74.663" /><path
         inkscape:connector-curvature="0"
         id="path474"
         style="fill:#231f20;fill-opacity:1;fill-rule:nonzero;stroke:none"
         d="m 421.854,372.0117 c -1.114,3.718 -1.995,8.708 -1.732,12.412 l -3.537,-5.43 -6.19,-1.911 c 3.633,-0.763 8.19,-2.979 11.459,-5.071" /><path
         inkscape:connector-curvature="0"
         id="path490"
         style="fill:none;stroke:#231f20;stroke-width:2.56200004;stroke-linecap:butt;stroke-linejoin:miter;stroke-miterlimit:10;stroke-dasharray:none;stroke-opacity:1"
         d="m 414.7808,272.9932 -53.929,99.019" /><path
         inkscape:connector-curvature="0"
         id="path494"
         style="fill:#231f20;fill-opacity:1;fill-rule:nonzero;stroke:none"
         d="m 418.479,266.2031 c -0.555,3.841 -0.691,8.907 0.113,12.531 l -4.297,-4.849 -6.404,-0.979 c 3.482,-1.29 7.663,-4.153 10.588,-6.703" /><path
         inkscape:connector-curvature="0"
         id="path510"
         style="fill:none;stroke:#231f20;stroke-width:2.56200004;stroke-linecap:butt;stroke-linejoin:miter;stroke-miterlimit:10;stroke-dasharray:none;stroke-opacity:1"
         d="m 367.8716,234.4053 38.396,11.727" /><path
         inkscape:connector-curvature="0"
         id="path514"
         style="fill:#231f20;fill-opacity:1;fill-rule:nonzero;stroke:none"
         d="m 413.6636,248.3906 c -3.085,-2.354 -6.73,-5.876 -8.693,-9.026 l 0.328,6.471 -3.888,5.183 c 3.389,-1.517 8.379,-2.4 12.253,-2.628" /><path
         inkscape:connector-curvature="0"
         id="path530"
         style="fill:none;stroke:#231f20;stroke-width:2.56200004;stroke-linecap:butt;stroke-linejoin:miter;stroke-miterlimit:10;stroke-dasharray:none;stroke-opacity:1"
         d="m 365.2271,318.6973 42.146,27.59" /><path
         inkscape:connector-curvature="0"
         id="path534"
         style="fill:#231f20;fill-opacity:1;fill-rule:nonzero;stroke:none"
         d="m 413.8433,350.5225 c -2.305,-3.122 -4.82,-7.522 -5.825,-11.096 l -1.493,6.305 -5.181,3.891 c 3.678,-0.509 8.716,0.036 12.499,0.9" /><path
         inkscape:connector-curvature="0"
         id="path550"
         style="fill:none;stroke:#231f20;stroke-width:2.56200004;stroke-linecap:butt;stroke-linejoin:miter;stroke-miterlimit:10;stroke-dasharray:none;stroke-opacity:1"
         d="m 366.6382,381.0557 40.08,-16.896" /><path
         inkscape:connector-curvature="0"
         id="path554"
         style="fill:#231f20;fill-opacity:1;fill-rule:nonzero;stroke:none"
         d="m 413.8433,361.1562 c -3.877,0.169 -8.932,-0.199 -12.458,-1.361 l 4.397,4.758 0.336,6.47 c 1.631,-3.335 4.896,-7.211 7.725,-9.867" /><path
         inkscape:connector-curvature="0"
         id="path570"
         style="fill:none;stroke:#231f20;stroke-width:2.66100001;stroke-linecap:butt;stroke-linejoin:miter;stroke-miterlimit:10;stroke-dasharray:none;stroke-opacity:1"
         d="m 365.0737,299.498 42.499,-36.518" /><path
         inkscape:connector-curvature="0"
         id="path574"
         style="fill:#231f20;fill-opacity:1;fill-rule:nonzero;stroke:none"
         d="m 413.6636,257.7471 c -3.78,1.399 -8.896,2.641 -12.751,2.612 l 5.86,3.309 2.388,6.29 c 0.553,-3.815 2.55,-8.686 4.503,-12.211" /><path
         inkscape:connector-curvature="0"
         id="path590"
         style="fill:none;stroke:#231f20;stroke-width:2.56200004;stroke-linecap:butt;stroke-linejoin:miter;stroke-miterlimit:10;stroke-dasharray:none;stroke-opacity:1"
         d="m 420.9956,277.1699 -66.331,171.297" /><path
         inkscape:connector-curvature="0"
         id="path594"
         style="fill:#231f20;fill-opacity:1;fill-rule:nonzero;stroke:none"
         d="m 423.7876,269.959 c -0.055,3.881 0.463,8.922 1.728,12.412 l -4.886,-4.255 -6.478,-0.144 c 3.286,-1.729 7.065,-5.107 9.636,-8.013" /><path
         inkscape:connector-curvature="0"
         id="path610"
         style="fill:none;stroke:#231f20;stroke-width:2.55599999;stroke-linecap:butt;stroke-linejoin:miter;stroke-miterlimit:10;stroke-dasharray:none;stroke-opacity:1"
         d="m 422.6509,331.083 -65.18,-160.821" /><path
         inkscape:connector-curvature="0"
         id="path614"
         style="fill:#231f20;fill-opacity:1;fill-rule:nonzero;stroke:none"
         d="m 425.5483,338.2324 c -2.611,-2.858 -6.434,-6.169 -9.737,-7.842 l 6.459,-0.246 4.807,-4.32 c -1.208,3.501 -1.645,8.539 -1.529,12.408" /></g><text
       xml:space="preserve"
       style="font-style:normal;font-weight:normal;font-size:30px;line-height:1.25;font-family:sans-serif;letter-spacing:0px;word-spacing:0px;fill:#000000;fill-opacity:1;stroke:none;stroke-width:0.75"
       x="4.7976971"
       y="-525.35223"
       id="text2157"
       transform="scale(1,-1)"><tspan
         sodipodi:role="line"
         id="tspan2155"
         x="4.7976971"
         y="-525.35223"
         style="font-style:normal;font-variant:normal;font-weight:normal;font-stretch:normal;font-family:'IBM Plex Sans Condensed Medium';-inkscape-font-specification:'IBM Plex Sans Condensed Medium, ';stroke-width:0.75">Input</tspan></text>
<text
       transform="scale(1,-1)"
       id="text2206"
       y="-524.67725"
       x="194.20262"
       style="font-style:normal;font-weight:normal;font-size:30px;line-height:1.25;font-family:sans-serif;letter-spacing:0px;word-spacing:0px;fill:#000000;fill-opacity:1;stroke:none;stroke-width:0.75"
       xml:space="preserve"><tspan
         style="font-style:normal;font-variant:normal;font-weight:normal;font-stretch:normal;font-family:'IBM Plex Sans Condensed Medium';-inkscape-font-specification:'IBM Plex Sans Condensed Medium, ';stroke-width:0.75"
         y="-524.67725"
         x="194.20262"
         id="tspan2204"
         sodipodi:role="line">Hidden Layers</tspan></text>
<text
       id="text2206-3"
       y="-525.17224"
       x="474.78482"
       style="font-style:normal;font-weight:normal;font-size:30px;line-height:1.25;font-family:sans-serif;letter-spacing:0px;word-spacing:0px;fill:#000000;fill-opacity:1;stroke:none;stroke-width:0.75"
       xml:space="preserve"
       transform="scale(1,-1)"><tspan
         style="font-style:normal;font-variant:normal;font-weight:normal;font-stretch:normal;font-family:'IBM Plex Sans Condensed Medium';-inkscape-font-specification:'IBM Plex Sans Condensed Medium, ';stroke-width:0.75"
         y="-525.17224"
         x="474.78482"
         id="tspan2204-6"
         sodipodi:role="line">Ouput</tspan></text>
<text
       transform="scale(1,-1)"
       id="text2299"
       y="-276.60455"
       x="0.44183764"
       style="font-style:normal;font-weight:normal;font-size:30px;line-height:1.25;font-family:sans-serif;letter-spacing:0px;word-spacing:0px;fill:#000000;fill-opacity:1;stroke:none;stroke-width:0.75"
       xml:space="preserve"><tspan
         style="font-style:normal;font-variant:normal;font-weight:normal;font-stretch:normal;font-size:20px;font-family:'IBM Plex Sans Condensed Medium';-inkscape-font-specification:'IBM Plex Sans Condensed Medium, ';stroke-width:0.75"
         y="-276.60455"
         x="0.44183764"
         id="tspan2297"
         sodipodi:role="line">Resource</tspan></text>
<g
       id="g2462"
       transform="translate(0,-22.146838)"><text
         transform="scale(1,-1)"
         xml:space="preserve"
         style="font-style:normal;font-weight:normal;font-size:30px;line-height:1.25;font-family:sans-serif;letter-spacing:0px;word-spacing:0px;fill:#000000;fill-opacity:1;stroke:none;stroke-width:0.75"
         x="489.83139"
         y="-352.7854"
         id="text2299-7"><tspan
           sodipodi:role="line"
           id="tspan2297-5"
           x="489.83139"
           y="-352.7854"
           style="font-style:normal;font-variant:normal;font-weight:normal;font-stretch:normal;font-size:20px;font-family:'IBM Plex Sans Condensed Medium';-inkscape-font-specification:'IBM Plex Sans Condensed Medium, ';stroke-width:0.75">Angle</tspan></text>
<text
         id="text2321"
         y="-247.63741"
         x="489.61139"
         style="font-style:normal;font-weight:normal;font-size:30px;line-height:1.25;font-family:sans-serif;letter-spacing:0px;word-spacing:0px;fill:#000000;fill-opacity:1;stroke:none;stroke-width:0.75"
         xml:space="preserve"
         transform="scale(1,-1)"><tspan
           style="font-style:normal;font-variant:normal;font-weight:normal;font-stretch:normal;font-size:20px;font-family:'IBM Plex Sans Condensed Medium';-inkscape-font-specification:'IBM Plex Sans Condensed Medium, ';stroke-width:0.75"
           y="-247.63741"
           x="489.61139"
           id="tspan2319"
           sodipodi:role="line">Step size</tspan></text>
</g></g></svg>