<?xml version="1.0" encoding="UTF-8" standalone="no"?>
<!-- Created with Inkscape (http://www.inkscape.org/) -->

<svg
   xmlns:dc="http://purl.org/dc/elements/1.1/"
   xmlns:cc="http://creativecommons.org/ns#"
   xmlns:rdf="http://www.w3.org/1999/02/22-rdf-syntax-ns#"
   xmlns:svg="http://www.w3.org/2000/svg"
   xmlns="http://www.w3.org/2000/svg"
   xmlns:sodipodi="http://sodipodi.sourceforge.net/DTD/sodipodi-0.dtd"
   xmlns:inkscape="http://www.inkscape.org/namespaces/inkscape"
   width="210mm"
   height="297mm"
   viewBox="0 0 210 297"
   version="1.1"
   id="svg1917"
   inkscape:version="0.92.3 (2405546, 2018-03-11)"
   sodipodi:docname="fig_01_nathan_etal_2008.svg">
  <defs
     id="defs1911">
    <clipPath
       clipPathUnits="userSpaceOnUse"
       id="clipPath378">
      <path
         d="m 291.176,569.884 h 204.19 v 170.639 h -204.19 z"
         id="path376"
         inkscape:connector-curvature="0" />
    </clipPath>
  </defs>
  <sodipodi:namedview
     id="base"
     pagecolor="#ffffff"
     bordercolor="#666666"
     borderopacity="1.0"
     inkscape:pageopacity="0.0"
     inkscape:pageshadow="2"
     inkscape:zoom="0.98994949"
     inkscape:cx="541.84692"
     inkscape:cy="760.64013"
     inkscape:document-units="mm"
     inkscape:current-layer="layer1"
     showgrid="false"
     inkscape:window-width="1920"
     inkscape:window-height="1025"
     inkscape:window-x="0"
     inkscape:window-y="27"
     inkscape:window-maximized="1" />
  <metadata
     id="metadata1914">
    <rdf:RDF>
      <cc:Work
         rdf:about="">
        <dc:format>image/svg+xml</dc:format>
        <dc:type
           rdf:resource="http://purl.org/dc/dcmitype/StillImage" />
        <dc:title></dc:title>
      </cc:Work>
    </rdf:RDF>
  </metadata>
  <g
     inkscape:label="Layer 1"
     inkscape:groupmode="layer"
     id="layer1">
    <g
       id="g2185"
       transform="matrix(2.6247393,0,0,2.6247393,-1051.7926,-705.0958)"
       inkscape:export-xdpi="300"
       inkscape:export-ydpi="300">
      <rect
         y="270.76282"
         x="403.65619"
         height="63.05772"
         width="75.640007"
         id="rect1008"
         style="opacity:1;fill:#ffffff;fill-opacity:1;stroke:#000000;stroke-width:0.2;stroke-miterlimit:4;stroke-dasharray:none;stroke-dashoffset:0;stroke-opacity:1" />
      <g
         transform="matrix(0.35277777,0,0,-0.35277777,302.60273,533.48398)"
         id="g1006">
        <path
           inkscape:connector-curvature="0"
           id="path344"
           style="fill:#000000;fill-opacity:1;fill-rule:evenodd;stroke:none"
           d="m 427.129,725.533 c -0.706,0 -1.254,-0.579 -1.254,-1.255 0,-0.675 0.548,-1.223 1.254,-1.223 0.677,0 1.222,0.548 1.222,1.223 0,0.676 -0.545,1.255 -1.222,1.255" />
        <path
           inkscape:connector-curvature="0"
           id="path346"
           style="fill:none;stroke:#000000;stroke-width:0.38;stroke-linecap:round;stroke-linejoin:round;stroke-miterlimit:10;stroke-dasharray:none;stroke-opacity:1"
           d="m 427.129,725.533 c -0.706,0 -1.254,-0.579 -1.254,-1.255 0,-0.675 0.548,-1.223 1.254,-1.223 0.677,0 1.222,0.548 1.222,1.223 0,0.676 -0.545,1.255 -1.222,1.255 z m 36.903,-5.051 -6.049,1.544" />
        <path
           inkscape:connector-curvature="0"
           id="path348"
           style="fill:none;stroke:#ff0000;stroke-width:0.38;stroke-linecap:round;stroke-linejoin:miter;stroke-miterlimit:8;stroke-dasharray:none;stroke-opacity:1"
           d="m 429.027,672.64 h 5.695 v 3.089 h -5.695 z" />
        <path
           inkscape:connector-curvature="0"
           id="path350"
           style="fill:none;stroke:#ff0000;stroke-width:0.38;stroke-linecap:round;stroke-linejoin:round;stroke-miterlimit:10;stroke-dasharray:1.14, 1.52;stroke-dashoffset:0;stroke-opacity:1"
           d="m 438.229,622.901 41.728,13.674 m -51.251,39.219 -28.505,25.738 m 28.087,-78.373 -51.669,13.674 m 58.521,38.961 28.957,25.738" />
        <path
           inkscape:connector-curvature="0"
           id="path352"
           style="fill:none;stroke:#ff0000;stroke-width:0.38;stroke-linecap:round;stroke-linejoin:miter;stroke-miterlimit:8;stroke-dasharray:none;stroke-opacity:1"
           d="m 429.092,619.074 h 8.397 v 3.956 h -8.397 z" />
        <path
           inkscape:connector-curvature="0"
           id="path354"
           style="fill:#000000;fill-opacity:1;fill-rule:evenodd;stroke:none"
           d="m 306.449,633.036 h 1.577 v 70.652 h 3.153 v -70.652 h 1.576 l -3.153,-23.552" />
        <path
           inkscape:connector-curvature="0"
           id="path356"
           style="fill:none;stroke:#000000;stroke-width:0.38;stroke-linecap:round;stroke-linejoin:round;stroke-miterlimit:10;stroke-dasharray:none;stroke-opacity:1"
           d="m 306.449,633.036 h 1.577 v 70.652 h 3.153 v -70.652 h 1.576 l -3.153,-23.552 z" />
        <text
           id="text360"
           style="font-variant:normal;font-weight:bold;font-size:7.49630022px;font-family:'Times New Roman';-inkscape-font-specification:TimesNewRomanPS-BoldMT;writing-mode:lr-tb;fill:#000000;fill-opacity:1;fill-rule:nonzero;stroke:none"
           transform="matrix(0,1,1,0,0,0)"
           x="604.40149"
           y="297.40909">
          <tspan
             id="tspan358"
             sodipodi:role="line"
             y="297.40909"
             x="604.40149 607.32129 611.49298 614.82513 618.15723 621.48932 625.24121 628.16101 630.24872 634.42041 638.1723 640.03888 642.95874 647.13043 650.88232 653.38232 655.47003 659.22192 661.72198 665.05408 671.30225 675.47394 679.22583 682.55792 686.30981 688.39752 690.2641 693.18396 696.51605 700.26794 702.35565">Increasing spatiotemporal scale</tspan>
        </text>
        <text
           id="text366"
           style="font-style:italic;font-variant:normal;font-size:7.49625015px;font-family:'Times New Roman';-inkscape-font-specification:TimesNewRomanPS-ItalicMT;writing-mode:lr-tb;fill:#000000;fill-opacity:1;fill-rule:nonzero;stroke:none;stroke-width:0.99999332"
           transform="scale(0.99999333,-1.0000067)"
           x="331.83612"
           y="-609.15955">
          <tspan
             id="tspan362"
             sodipodi:role="line"
             y="-609.15955"
             x="331.83612 336.00327 338.08649 340.16971 343.49728 345.58047 347.6637 353.07523"
             style="stroke-width:0.99999332">Lifetime</tspan>
          <tspan
             id="tspan364"
             sodipodi:role="line"
             y="-600.18353"
             x="331.83612 333.92758 336.8511 340.60672 343.94257"
             style="stroke-width:0.99999332">track</tspan>
        </text>
        <text
           id="text370"
           style="font-variant:normal;font-weight:normal;font-size:11.99995041px;font-family:Helvetica;-inkscape-font-specification:Helvetica;writing-mode:lr-tb;fill:#000000;fill-opacity:1;fill-rule:nonzero;stroke:none;stroke-width:0.99999583"
           transform="scale(0.99999583,-1.0000042)"
           x="325.83765"
           y="-619.48291">
          <tspan
             id="tspan368"
             y="-619.48291"
             x="325.83765"
             style="stroke-width:0.99999583">C</tspan>
        </text>
        <g
           id="g372">
          <g
             clip-path="url(#clipPath378)"
             id="g374">
            <path
               inkscape:connector-curvature="0"
               id="path380"
               style="fill:none;stroke:#000000;stroke-width:0.38;stroke-linecap:round;stroke-linejoin:miter;stroke-miterlimit:8;stroke-dasharray:none;stroke-opacity:1"
               d="M 321.925,570.074 H 495.176 V 740.333 H 321.925 Z" />
          </g>
        </g>
        <path
           inkscape:connector-curvature="0"
           id="path382"
           style="fill:#000000;fill-opacity:1;fill-rule:evenodd;stroke:none"
           d="m 426.518,724.375 c -0.675,0 -1.255,-0.547 -1.255,-1.223 0,-0.708 0.58,-1.254 1.255,-1.254 0.675,0 1.255,0.546 1.255,1.254 0,0.676 -0.58,1.223 -1.255,1.223" />
        <path
           inkscape:connector-curvature="0"
           id="path384"
           style="fill:none;stroke:#000000;stroke-width:0.38;stroke-linecap:round;stroke-linejoin:round;stroke-miterlimit:10;stroke-dasharray:none;stroke-opacity:1"
           d="m 426.518,724.375 c -0.675,0 -1.255,-0.547 -1.255,-1.223 0,-0.708 0.58,-1.254 1.255,-1.254 0.675,0 1.255,0.546 1.255,1.254 0,0.676 -0.58,1.223 -1.255,1.223 z" />
        <path
           inkscape:connector-curvature="0"
           id="path386"
           style="fill:#000000;fill-opacity:1;fill-rule:evenodd;stroke:none"
           d="m 448.236,722.637 c -0.676,0 -1.255,-0.546 -1.255,-1.222 0,-0.707 0.579,-1.255 1.255,-1.255 0.675,0 1.253,0.548 1.253,1.255 0,0.676 -0.578,1.222 -1.253,1.222" />
        <path
           inkscape:connector-curvature="0"
           id="path388"
           style="fill:none;stroke:#000000;stroke-width:0.38;stroke-linecap:round;stroke-linejoin:round;stroke-miterlimit:10;stroke-dasharray:none;stroke-opacity:1"
           d="m 448.236,722.637 c -0.676,0 -1.255,-0.546 -1.255,-1.222 0,-0.707 0.579,-1.255 1.255,-1.255 0.675,0 1.253,0.548 1.253,1.255 0,0.676 -0.578,1.222 -1.253,1.222 z" />
        <path
           inkscape:connector-curvature="0"
           id="path390"
           style="fill:#000000;fill-opacity:1;fill-rule:evenodd;stroke:none"
           d="m 437.81,725.243 c -0.675,0 -1.189,-0.547 -1.189,-1.222 0,-0.676 0.514,-1.255 1.189,-1.255 0.677,0 1.223,0.579 1.223,1.255 0,0.675 -0.546,1.222 -1.223,1.222" />
        <path
           inkscape:connector-curvature="0"
           id="path392"
           style="fill:none;stroke:#000000;stroke-width:0.38;stroke-linecap:round;stroke-linejoin:round;stroke-miterlimit:10;stroke-dasharray:none;stroke-opacity:1"
           d="m 437.81,725.243 c -0.675,0 -1.189,-0.547 -1.189,-1.222 0,-0.676 0.514,-1.255 1.189,-1.255 0.677,0 1.223,0.579 1.223,1.255 0,0.675 -0.546,1.222 -1.223,1.222 z m 0.194,-1.254 -11.453,-0.676 m 22.328,-1.93 -11.069,2.606 m -11.196,-0.483 -10.842,-2.734" />
        <path
           inkscape:connector-curvature="0"
           id="path394"
           style="fill:#000000;fill-opacity:1;fill-rule:evenodd;stroke:none"
           d="m 415.966,722.187 c -0.676,0 -1.223,-0.579 -1.223,-1.255 0,-0.675 0.547,-1.254 1.223,-1.254 0.675,0 1.19,0.579 1.19,1.254 0,0.676 -0.515,1.255 -1.19,1.255" />
        <path
           inkscape:connector-curvature="0"
           id="path396"
           style="fill:none;stroke:#000000;stroke-width:0.38;stroke-linecap:round;stroke-linejoin:round;stroke-miterlimit:10;stroke-dasharray:none;stroke-opacity:1"
           d="m 415.966,722.187 c -0.676,0 -1.223,-0.579 -1.223,-1.255 0,-0.675 0.547,-1.254 1.223,-1.254 0.675,0 1.19,0.579 1.19,1.254 0,0.676 -0.515,1.255 -1.19,1.255 z m 0.451,-1.705 -10.908,-2.735 m 53.022,3.958 -10.327,-0.418" />
        <path
           inkscape:connector-curvature="0"
           id="path398"
           style="fill:#000000;fill-opacity:1;fill-rule:evenodd;stroke:none"
           d="m 405.477,719.227 c -0.675,0 -1.255,-0.547 -1.255,-1.255 0,-0.676 0.58,-1.222 1.255,-1.222 0.676,0 1.223,0.546 1.223,1.222 0,0.708 -0.547,1.255 -1.223,1.255" />
        <path
           inkscape:connector-curvature="0"
           id="path400"
           style="fill:none;stroke:#000000;stroke-width:0.38;stroke-linecap:round;stroke-linejoin:round;stroke-miterlimit:10;stroke-dasharray:none;stroke-opacity:1"
           d="m 405.477,719.227 c -0.675,0 -1.255,-0.547 -1.255,-1.255 0,-0.676 0.58,-1.222 1.255,-1.222 0.676,0 1.223,0.546 1.223,1.222 0,0.708 -0.547,1.255 -1.223,1.255 z" />
        <path
           inkscape:connector-curvature="0"
           id="path402"
           style="fill:#000000;fill-opacity:1;fill-rule:evenodd;stroke:none"
           d="m 458.499,722.991 c -0.708,0 -1.255,-0.579 -1.255,-1.255 0,-0.675 0.547,-1.254 1.255,-1.254 0.675,0 1.222,0.579 1.222,1.254 0,0.676 -0.547,1.255 -1.222,1.255" />
        <path
           inkscape:connector-curvature="0"
           id="path404"
           style="fill:none;stroke:#000000;stroke-width:0.38;stroke-linecap:round;stroke-linejoin:round;stroke-miterlimit:10;stroke-dasharray:none;stroke-opacity:1"
           d="m 458.499,722.991 c -0.708,0 -1.255,-0.579 -1.255,-1.255 0,-0.675 0.547,-1.254 1.255,-1.254 0.675,0 1.222,0.579 1.222,1.254 0,0.676 -0.547,1.255 -1.222,1.255 z" />
        <path
           inkscape:connector-curvature="0"
           id="path406"
           style="fill:none;stroke:#ff0000;stroke-width:0.38;stroke-linecap:round;stroke-linejoin:miter;stroke-miterlimit:8;stroke-dasharray:none;stroke-opacity:1"
           d="m 400.201,701.178 h 63.896 v 30.564 h -63.896 z" />
        <text
           id="text412"
           style="font-style:italic;font-variant:normal;font-size:7.49625015px;font-family:'Times New Roman';-inkscape-font-specification:TimesNewRomanPS-ItalicMT;writing-mode:lr-tb;fill:#000000;fill-opacity:1;fill-rule:nonzero;stroke:none;stroke-width:0.99999332"
           transform="scale(0.99999333,-1.0000067)"
           x="331.90051"
           y="-717.38843">
          <tspan
             id="tspan408"
             sodipodi:role="line"
             y="-717.38843"
             x="331.90051 338.15237 341.90802 345.24384 348.57968 353.99945 357.3353 361.09091"
             style="stroke-width:0.99999332">Movement</tspan>
          <tspan
             id="tspan410"
             sodipodi:role="line"
             y="-708.41241"
             x="331.90051 334.82407 336.9155 340.25134 344.00696"
             style="stroke-width:0.99999332">steps</tspan>
        </text>
        <text
           id="text416"
           style="font-variant:normal;font-weight:normal;font-size:11.99995041px;font-family:Helvetica;-inkscape-font-specification:Helvetica;writing-mode:lr-tb;fill:#000000;fill-opacity:1;fill-rule:nonzero;stroke:none;stroke-width:0.99999583"
           transform="scale(0.99999583,-1.0000042)"
           x="325.83765"
           y="-727.71326">
          <tspan
             id="tspan414"
             y="-727.71326"
             x="325.83765"
             style="stroke-width:0.99999583">A</tspan>
        </text>
        <text
           id="text422"
           style="font-style:italic;font-variant:normal;font-size:7.49625015px;font-family:'Times New Roman';-inkscape-font-specification:TimesNewRomanPS-ItalicMT;writing-mode:lr-tb;fill:#000000;fill-opacity:1;fill-rule:nonzero;stroke:none;stroke-width:0.99999332"
           transform="scale(0.99999333,-1.0000067)"
           x="331.90051"
           y="-678.04089">
          <tspan
             id="tspan418"
             sodipodi:role="line"
             y="-678.04089"
             x="331.90051 338.15237 341.90802 345.24384 348.57968 353.99945 357.3353 361.09091"
             style="stroke-width:0.99999332">Movement</tspan>
          <tspan
             id="tspan420"
             sodipodi:role="line"
             y="-669.06488"
             x="331.90051 335.66214 339.42374 343.18536 346.1149 349.45673"
             style="stroke-width:0.99999332">phases</tspan>
        </text>
        <path
           inkscape:connector-curvature="0"
           id="path424"
           style="fill:none;stroke:#ff0000;stroke-width:0.38;stroke-linecap:round;stroke-linejoin:miter;stroke-miterlimit:8;stroke-dasharray:none;stroke-opacity:1"
           d="m 376.619,636.994 h 103.339 v 54.758 H 376.619 Z" />
        <path
           inkscape:connector-curvature="0"
           id="path426"
           style="fill:none;stroke:#000000;stroke-width:0.38;stroke-linecap:round;stroke-linejoin:round;stroke-miterlimit:10;stroke-dasharray:none;stroke-opacity:1"
           d="m 385.659,638.538 c 0.386,0.772 1.223,1.415 1.126,2.316 -0.193,1.029 -4.15,2.734 0,0.772 0.933,4.022 -1.512,6.081 2.252,7.754 0.933,-0.257 1.898,-0.772 2.831,-0.772 0.548,0 -1.319,0.128 -1.705,0.772 -1.866,3.377 1.126,4.407 -2.799,6.209 1.127,-4.504 -0.29,-1.158 2.253,-0.773 0.932,0.129 1.866,-0.514 2.799,-0.772 0.579,0.258 1.994,0.129 1.704,0.772 -0.643,1.545 -3.378,3.121 -3.378,3.121 -0.386,1.545 -2.155,3.733 -1.125,4.634 2.542,2.348 4.985,3.12 7.882,3.893 3.667,-1.287 2.928,-2.574 0,-3.893 -4.022,3.764 -2.156,2.348 -5.631,4.664 -0.933,-0.257 -2.058,0 -2.831,-0.771 -0.836,-0.901 -1.866,-4.923 -0.546,-6.21 0.932,-0.9 2.251,-0.515 3.377,-0.772 2.542,-5.18 4.986,-3.764 9.009,-2.316 2.091,4.247 -0.066,4.247 -2.799,6.176 -1.899,-0.257 -3.765,-1.157 -5.662,-0.771 -0.933,0.257 -2.446,7.625 -2.799,9.33 -0.194,0.772 1.125,-0.386 1.672,-0.772 1.223,-0.933 2.253,-2.091 3.411,-3.121 0.547,-0.515 1.673,-1.544 1.673,-1.544 -0.194,-1.802 0,-3.765 -0.548,-5.438 -0.771,-2.059 -5.083,0.772 -5.083,0.772 -3.86,-3.603 -2.059,-2.444 -5.083,-3.861 -1.319,-5.308 -1.223,1.03 -1.705,3.089 1.126,10.618 2.187,8.397 10.166,9.298 6.21,1.705 3.861,0.805 7.336,2.349 0.739,-3.25 2.542,-8.913 -1.706,-6.982 -1.319,2.703 -1.672,4.633 -3.377,6.982 -0.644,2.703 0.386,6.467 -1.126,8.526 -0.291,0.386 -4.891,-1.287 -5.63,-1.544 -2.543,-5.31 0.739,-9.974 4.503,-11.647 0.193,-2.06 -0.097,-4.248 0.58,-6.21 0.256,-0.772 1.286,-1.415 1.673,-0.772 0.579,1.287 -1.319,4.665 -1.673,5.438 0.74,3.217 0.547,3.86 3.925,5.437 1.125,0.515 3.409,1.544 3.409,1.544 -1.801,4.793 -4.728,6.467 -7.914,9.298 -1.704,-7.111 0.097,-4.505 -6.756,-5.405 -3.024,-6.209 -2.446,-2.863 -1.705,-10.103 4.504,4.151 3.378,4.28 6.209,10.103 0.193,1.287 -0.385,4.118 0.548,3.861 1.318,-0.387 1.511,-3.089 2.284,-4.666 1.286,-2.831 2.509,-4.375 3.378,-7.753 -0.097,-1.287 -0.579,-15.508 -1.705,-17.824 -0.387,-0.644 -1.126,-0.515 -1.673,-0.772 -3.861,3.603 0.354,7.368 -3.958,9.298 -2.638,-0.515 -4.89,-1.93 -7.335,-0.773 0.193,1.802 0.097,3.732 0.547,5.438 1.608,5.405 12.612,4.504 14.124,4.633 3.184,-2.96 2.155,0.258 3.956,3.893 -1.993,8.011 -1.898,2.959 1.127,1.544 0.546,0.258 1.223,0.258 1.673,0.772 0.58,0.643 0.483,2.06 1.126,2.349 1.32,0.386 2.638,-0.675 3.957,-0.805 2.446,-0.386 4.89,-0.514 7.336,-0.772 3.86,-1.801 7.882,-1.286 11.839,-2.316 2.833,0.643 3.571,1.416 6.209,0 0.675,-0.386 1.03,-1.287 1.707,-1.544 2.058,-0.644 4.117,-0.515 6.208,-0.772 4.955,-2.349 2.156,-1.706 8.462,-0.805 4.311,4.021 5.726,3.893 11.26,5.437 -2.058,1.963 -3.184,2.735 -5.631,1.577 -0.579,0.515 -1.028,1.673 -1.704,1.544 -2.058,-0.514 -2.895,-8.686 -3.925,-10.874 0.835,-3.604 0.064,-11.518 1.672,-13.192 1.031,-1.157 2.639,-0.9 3.957,-1.544 0.741,-3.088 1.126,-4.407 3.378,-5.436 -1.318,7.496 -2.894,0.385 -7.881,3.892 1.962,3.99 3.668,3.217 7.336,3.861 2.605,5.566 6.852,6.338 10.133,10.875 1.03,4.278 -1.126,11.646 -3.378,14.735 -0.643,4.665 -1.125,6.595 -4.503,7.754 -2.927,2.734 -3.025,0.772 -3.959,-3.089 0.645,-8.526 2.639,-13.32 -3.957,-16.312 -3.281,2.992 -0.931,-0.257 -0.545,4.665 0.095,1.544 -0.386,3.121 -0.581,4.665 0.774,0.258 1.512,1.03 2.253,0.773 0.771,-0.258 1.03,-1.674 1.704,-2.317 0.645,-0.675 1.513,-0.933 2.253,-1.577 0.741,-0.643 1.512,-1.544 2.252,-2.316 0.483,-2.574 -0.547,-6.467 1.126,-7.754 1.32,-1.029 6.016,0.773 4.537,0.773 -2.091,0 -4.151,-0.516 -6.21,-0.773 -4.793,-4.408 -2.187,-2.992 -5.662,-7.754 -3.925,1.802 -2.156,5.534 0,8.527 -1.222,2.574 -2.703,3.602 -3.925,6.209 1.962,1.802 3.925,2.059 6.177,3.088 2.381,6.468 9.427,8.14 14.124,9.331 2.446,-5.051 4.987,-19.915 -1.127,-17.084 -3.763,7.882 -5.468,0.514 -6.209,-3.861 0.644,-6.21 3.668,-17.727 -1.705,-20.172 -0.739,1.544 -1.479,3.089 -2.253,4.633 -0.449,0.9 -0.095,2.22 -0.545,3.12 -0.386,0.772 -1.128,1.029 -1.707,1.544 -7.238,-1.415 -2.54,-1.158 0,2.317 0.838,3.635 0.645,5.566 -1.705,7.753 -0.354,0.805 -1.575,1.577 -1.125,2.349 0.771,1.287 3.409,1.544 3.409,1.544 0.934,-3.764 0.066,-8.011 1.128,-11.646 0.256,-1.03 1.48,-0.515 2.252,-0.773 4.022,-1.544 -1.222,-0.257 6.208,-1.544 -0.385,-1.544 -0.095,-3.892 -1.125,-4.664 -1.609,-1.288 -3.764,-0.129 -5.663,-0.772 -0.642,-0.258 -1.127,-1.031 -1.672,-1.545 -0.483,-0.901 -3.861,-9.297 -5.085,-9.297" />
        <text
           id="text430"
           style="font-variant:normal;font-weight:normal;font-size:11.99995041px;font-family:Helvetica;-inkscape-font-specification:Helvetica;writing-mode:lr-tb;fill:#000000;fill-opacity:1;fill-rule:nonzero;stroke:none;stroke-width:0.99999583"
           transform="scale(0.99999583,-1.0000042)"
           x="325.83765"
           y="-687.91565">
          <tspan
             id="tspan428"
             y="-687.91565"
             x="325.83765"
             style="stroke-width:0.99999583">B</tspan>
        </text>
        <text
           id="text440"
           style="font-variant:normal;font-weight:normal;font-size:6.43454981px;font-family:'Times New Roman';-inkscape-font-specification:TimesNewRomanPSMT;writing-mode:lr-tb;fill:#000000;fill-opacity:1;fill-rule:nonzero;stroke:none;stroke-width:0.99999225"
           transform="scale(0.99999223,-1.0000078)"
           x="412.88132"
           y="-646.31787">
          <tspan
             id="tspan432"
             sodipodi:role="line"
             y="-646.31787"
             x="412.88132 415.38693 418.24643 421.10596 423.25122 426.11075 429.3306 431.12198 434.34183"
             style="stroke-width:0.99999225">searching</tspan>
          <tspan
             id="tspan434"
             sodipodi:role="line"
             y="-640.14136"
             x="414.81104 416.95374 420.17102 422.31372 423.92236 426.06506 429.28232 432.4996"
             style="stroke-width:0.99999225">for food</tspan>
          <tspan
             id="tspan436"
             sodipodi:role="line"
             y="-666.94061"
             x="412.3331 415.19196 417.69693 420.55579 423.41467 426.63388 428.42462 431.6438 434.86301 436.49609 439.35498"
             style="stroke-width:0.99999225">escaping a</tspan>
          <tspan
             id="tspan438"
             sodipodi:role="line"
             y="-660.79498"
             x="415.10123 418.31787 420.45993 423.31622 426.53284 429.38916 431.17731 434.39395"
             style="stroke-width:0.99999225">predator</tspan>
        </text>
        <path
           inkscape:connector-curvature="0"
           id="path442"
           style="fill:#000000;fill-opacity:1;fill-rule:nonzero;stroke:none"
           d="m 441.704,649.316 4.181,4.149 0.13,0.065 0.161,-0.065 0.064,-0.128 -0.064,-0.162 -4.214,-4.149 -0.129,-0.064 -0.129,0.064 -0.065,0.161 z m 2.799,4.761 3.442,1.126 -1.158,-3.41" />
        <path
           inkscape:connector-curvature="0"
           id="path444"
           style="fill:#000000;fill-opacity:1;fill-rule:nonzero;stroke:none"
           d="m 409.853,649.026 -4.15,4.215 -0.066,0.128 0.066,0.161 0.161,0.032 0.128,-0.064 4.15,-4.182 0.065,-0.129 -0.065,-0.161 -0.161,-0.064 z m -4.762,2.831 -1.124,3.41 3.409,-1.158" />
        <text
           id="text450"
           style="font-variant:normal;font-weight:normal;font-size:6.43454981px;font-family:'Times New Roman';-inkscape-font-specification:TimesNewRomanPSMT;writing-mode:lr-tb;fill:#000000;fill-opacity:1;fill-rule:nonzero;stroke:none;stroke-width:0.99999225"
           transform="scale(0.99999223,-1.0000078)"
           x="464.3577"
           y="-617.94171">
          <tspan
             id="tspan446"
             sodipodi:role="line"
             y="-617.94171"
             x="464.3577 467.58014 470.44223 473.30432 475.09827"
             style="stroke-width:0.99999225">death</tspan>
          <tspan
             id="tspan448"
             sodipodi:role="line"
             y="-591.78461"
             x="399.94724 403.17029 404.96487 407.11337 408.90796"
             style="stroke-width:0.99999225">birth</tspan>
        </text>
        <path
           inkscape:connector-curvature="0"
           id="path452"
           style="fill:#000000;fill-opacity:1;fill-rule:evenodd;stroke:none"
           d="m 405.382,589.924 c -1.384,0 -2.478,-1.061 -2.478,-2.349 0,-1.286 1.094,-2.347 2.478,-2.347 1.35,0 2.476,1.061 2.476,2.347 0,1.288 -1.126,2.349 -2.476,2.349" />
        <path
           inkscape:connector-curvature="0"
           id="path454"
           style="fill:none;stroke:#000000;stroke-width:0.38;stroke-linecap:round;stroke-linejoin:round;stroke-miterlimit:10;stroke-dasharray:none;stroke-opacity:1"
           d="m 405.382,589.924 c -1.384,0 -2.478,-1.061 -2.478,-2.349 0,-1.286 1.094,-2.347 2.478,-2.347 1.35,0 2.476,1.061 2.476,2.347 0,1.288 -1.126,2.349 -2.476,2.349 z m -2.124,-2.155 c 0.385,1.094 -0.354,0.836 -1.19,1.447 -0.58,-0.966 -1.062,-1.19 0,-1.897 -0.483,-3.571 0.611,0 -2.382,-1.898 -0.481,-0.258 -0.481,-1.448 -0.481,-1.448 -0.709,0.256 -2.285,0.708 -0.709,1.19 0.579,1.898 -2.51,0.128 -3.347,0 -1.092,-1.545 -0.61,-3.184 0.934,-4.278 0.354,1.189 -0.097,1.317 -0.483,2.38 -1.416,-0.355 -0.708,-0.934 -1.897,-1.674 -2.382,0.388 -1.544,0.388 -3.121,1.448 -1.062,-0.353 -1.802,-0.129 -2.156,-1.19 0.483,-2.607 1.319,-0.483 0.965,-3.313 0.354,-1.546 0.836,-1.192 2.381,-0.741 -0.097,0.837 -0.58,1.545 -0.708,2.382 -0.129,0.835 1.191,2.38 1.191,2.38 -0.226,1.416 -1.545,3.796 -3.089,4.279 -0.74,-0.709 -0.837,-1.319 -1.674,-1.898 -0.385,-1.063 -0.836,-0.965 -1.93,-1.19 -1.447,-1.417 -1.447,0 -2.38,0.933 0.482,1.93 1.672,0.257 3.088,1.189 -0.483,1.32 -0.225,2.028 -1.416,2.38 -1.672,-0.578 -2.155,-0.224 -3.603,0.259 -1.319,-0.837 -1.062,-1.545 -2.863,-1.898 -1.673,-1.094 0.708,-2.509 1.898,-2.863 0.387,0.127 0.837,0.933 0.483,0.933 -1.062,0.127 -2.027,-0.097 -3.089,-0.226 -0.386,-1.19 -1.448,-1.319 -0.257,-2.124 0.611,-1.801 0.836,-1.094 -0.225,-2.154 0.353,-0.935 0,-1.545 0.225,-2.608 2.638,0.129 5.148,-0.225 3.346,2.382 1.19,1.19 0.836,0.579 1.672,-0.259 0.387,-0.352 0.966,-0.45 1.449,-0.706 -0.354,-0.933 -0.226,-1.545 -1.191,-2.124 -0.354,-1.062 -0.128,-1.898 -1.19,-2.606 -1.094,0.353 -0.836,1.288 -1.673,2.124 -0.386,0.964 -0.612,1.318 -1.448,1.898 -0.708,1.062 -0.965,1.319 -2.156,0.964 -1.093,0.226 -1.672,0.58 -2.638,0.935 -1.19,1.189 -1.062,1.672 0.483,2.154 1.062,1.062 0.225,1.287 -0.483,2.35 0.354,1.93 1.191,1.446 3.121,1.672 -0.708,1.062 -1.094,0.611 -2.155,0.258 -0.612,0.45 -2.156,0.933 -2.156,0.933 -1.673,-1.063 -0.836,-3.089 -2.864,-3.796 -0.74,1.06 -0.74,1.318 -0.482,2.605 -0.258,1.416 -0.837,1.191 -1.19,2.38 0.353,1.191 0.835,0.965 1.898,0.709 1.802,-1.192 2.027,-0.933 4.311,-0.226 -0.611,1.77 -2.767,0.226 -0.965,1.416 0.354,1.062 -0.354,1.319 -0.933,2.156 -1.448,-0.258 -1.577,-0.483 -1.931,-1.931 -0.354,0.129 -1.319,0.258 -0.965,0.258 0.354,0 0.965,0.129 1.191,-0.258 0.257,-0.354 -0.58,-1.415 -0.708,-1.641 0.257,-1.318 0.836,-3.089 -0.708,-3.57 -2.509,0.481 -1.674,1.769 -2.863,3.57 0.579,2.253 2.863,1.191 4.761,0.933 0.74,-2.251 0.354,-4.149 2.156,-5.92 1.448,0.934 0.965,1.417 2.895,1.898 0.837,1.288 -1.577,6.758 -3.121,7.819 -1.19,-0.354 -1.19,-1.995 -1.93,-3.089 -1.898,0.74 -2.027,1.191 -1.416,3.089 -0.611,0.835 -2.156,2.381 -2.156,2.381 -0.739,2.156 1.319,-0.225 2.156,-0.483 1.191,0.385 0.579,1.191 0.226,2.156 0.965,0.708 2.027,0.225 2.413,1.415 -1.223,0.257 -1.319,0.483 -0.965,1.674 -0.13,0.225 -0.258,1.415 -0.966,0.482 -0.225,-0.354 -0.482,-1.447 -0.482,-1.447 -2.639,0.354 -2.156,-0.58 -4.537,-0.934 0.354,-0.965 0.225,-1.543 1.19,-2.155 1.449,0.482 -0.353,1.801 1.449,2.38 0.579,-1.641 0.225,-1.768 1.898,-2.83 0.708,-0.483 2.155,-1.191 2.155,-1.191 1.094,0.708 3.7,0.354 4.794,0.45 -0.354,1.448 -0.966,1.094 -1.673,0 -2.284,1.094 0.837,2.735 -1.673,3.571 -0.611,-0.932 -0.354,-1.768 -1.448,-2.123 -1.19,0.836 -1.319,1.769 0.258,2.123 0.933,1.545 2.026,2.253 3.828,2.864 0.837,-1.19 1.191,-2.961 -0.482,-3.571 -0.13,-0.225 -0.483,-1.416 -0.483,-1.673 0.097,-0.708 0.707,-2.124 0.707,-2.124 0.355,-3.314 0.355,-1.769 2.381,-3.088 1.32,1.898 1.706,2.381 4.087,2.606 0.354,1.19 0,2.026 -1.191,2.381 -0.611,1.898 -0.965,0.707 -1.93,0 -1.062,0.353 -1.191,0.837 -1.416,1.898 0.579,0.128 1.287,0.128 1.898,0.224 0.483,0.129 1.448,0.483 1.448,0.483 -0.611,1.674 0,1.545 -1.19,1.191 -1.223,0.258 -1.223,0.836 -2.156,1.415 -1.319,-0.353 -1.094,-0.579 -1.448,-1.897 -0.611,0.128 -1.319,0 -1.93,0.256 -0.708,0.226 0,1.416 0.258,2.124 0.353,1.062 0.579,2.992 1.672,3.347 0.837,-2.382 2.992,0.707 4.311,1.157 0.483,-0.708 0.226,-2.349 -0.257,-3.056 -0.354,-0.483 -1.416,-0.965 -1.416,-0.965 -0.257,1.769 -0.74,1.672 -1.19,3.088 0.354,0.933 2.252,1.545 3.346,1.898 0.354,3.797 -1.19,3.668 3.089,3.314 -0.354,-0.933 -0.837,-0.933 -1.191,-1.898 0.258,-1.641 1.93,-3.089 0,-4.279 0.483,-1.769 0.612,-3.668 -0.483,-5.212 0.258,-1.19 0.258,-1.77 1.449,-2.124 0.964,0.451 1.318,1.062 2.155,1.641 1.802,-0.579 0.354,-2.734 0.708,-4.278 0.739,0.129 1.576,0.129 2.156,0.707 0.354,0.483 1.318,1.545 0.708,1.673 -0.837,0.13 -1.77,-0.128 -2.607,-0.225 -0.836,-0.257 -1.802,-0.482 -2.638,-0.707 -2.027,0.707 -0.129,2.733 0.966,3.795 -2.06,1.416 0.707,0.934 1.672,0.709 0.482,-2.157 1.319,0 1.899,0.932 -0.483,0.739 -1.899,1.674 -1.899,1.674 -0.74,-0.129 -1.448,-0.708 -2.156,-0.708 -0.482,0 -1.447,0.482 -1.447,0.482 -2.027,-1.545 -0.579,0.097 -1.673,0.932 -0.354,0.355 -1.448,0.484 -1.448,0.484 1.094,0.708 1.673,0.708 2.896,0.482 3.7,0.355 2.026,-0.128 3.346,1.899 0.579,-1.899 0.579,-0.966 0.225,-2.865 2.284,-0.706 4.793,1.095 2.156,0.484 -0.355,-0.933 0.257,-2.027 1.19,-2.381 -0.579,-1.287 -0.226,-2.026 0.483,-3.089 -0.097,-0.483 -0.355,-0.932 -0.226,-1.415 0.226,-0.708 2.381,0 2.381,0 0.74,1.061 0.258,1.415 -0.708,2.124 -0.837,1.19 0.13,1.093 1.191,1.447 -0.354,0.933 -0.837,0.837 -1.674,1.416 -0.707,1.061 -0.482,2.252 0.709,2.606 3.345,-0.483 1.672,-2.124 0,-3.797 -1.77,0.483 -0.226,1.191 -1.191,2.863 -0.354,0.451 -1.673,1.545 -2.155,1.899 -0.129,0.353 -0.483,0.579 -0.483,0.932 0,0.483 0.483,1.449 0.483,1.449 -0.837,0.804 -1.674,0.579 -2.381,1.641 1.544,0.482 0.225,-0.58 2.863,-0.226 1.094,1.673 -1.062,2.026 -2.381,2.38 -0.611,0.935 -2.413,1.192 -3.603,1.899 -0.483,0.225 -1.448,0.933 -1.448,0.933 -1.673,-0.354 -1.286,-1.286 -2.381,-2.38 -0.482,-1.288 0.354,-2.606 1.673,-3.089 1.448,0.257 2.156,1.544 3.346,1.673 1.673,0.128 3.346,0.128 5.02,0.257 2.412,0.805 1.929,0.707 6.466,0 0.483,-0.129 0.483,-0.837 0.965,-0.965 1.544,0.354 1.93,1.318 0.258,1.898 -1.931,-0.482 -2.157,-3.668 0,-4.278 1.769,0.257 2.251,0.707 0.451,1.19 -0.451,0.354 -1.191,0.836 -1.674,1.19 -0.483,0.483 -1.415,1.416 -1.415,1.416 2.025,0.708 0.836,0.708 1.673,2.862 0.225,0.58 1.801,0.709 2.379,0.934 1.191,1.802 -2.283,0.611 -3.12,0.482 -0.838,-0.836 -0.579,-1.544 -1.673,-1.898 -0.707,-1.189 0.257,-1.544 -0.932,-2.38 -0.966,0.965 -1.576,1.191 -2.896,1.448 -2.027,-0.483 -1.19,-2.51 0.483,-3.089 0.353,1.061 0.128,1.641 -0.483,2.606 0.386,1.287 0.611,1.062 1.93,1.415 0.837,0.612 1.544,0.837 2.155,1.673 0.355,1.416 0,2.253 -1.189,3.089 -0.74,-0.965 0,-1.19 -0.74,-2.155 -0.483,0.353 -1.899,2.155 -0.226,0.482 0.483,-1.544 1.448,-1.191 2.863,-0.933 0.257,0.097 0.612,0.225 0.708,0.451 0.258,0.257 -0.096,0.836 0.258,0.965 0.708,0.225 2.155,-0.708 2.155,-0.708 5.985,0.708 2.736,0.482 4.312,-4.279 0.224,-1.898 0.224,-2.156 1.414,-3.346 0.741,1.093 0,0.837 -0.932,1.448 -0.386,0.933 -0.739,1.061 -1.673,1.415 -0.385,1.19 1.415,1.77 2.605,2.156 1.578,-0.483 0.839,-2.156 -0.481,-2.638 -0.451,-1.416 -0.837,-1.898 -1.673,-3.089 -0.451,-2.831 -0.451,-2.605 2.895,-2.381 0.578,0.612 1.19,2.156 1.19,2.156 0.354,-0.966 0.966,-2.864 0.966,-2.864 0.096,0.129 1.319,0.708 1.191,1.19 -0.13,0.355 -0.611,0.258 -0.967,0.483 -0.481,0.225 -1.446,0.966 -1.446,0.966 -1.192,-0.837 -2.156,0.579 -3.346,1.158 0.964,1.448 3.346,1.19 4.792,2.155 -1.061,0.708 -1.19,1.319 -1.672,2.606 -0.13,0.258 -0.225,0.708 -0.225,0.708 0,0 2.026,0.129 2.123,0.708 0.13,0.611 0.13,1.191 -0.226,1.673 -0.353,0.483 -1.446,0.964 -1.446,0.964 -0.58,1.641 0.837,-0.481 1.446,-0.707 1.803,0.451 0.967,1.77 1.448,0 -0.257,-2.734 -0.481,-3.699 -0.257,-6.177 1.19,0.353 0,0.805 -0.224,1.899 0.965,0.579 1.543,0.579 2.38,1.414 -0.226,1.416 -0.707,2.253 0.964,1.899 1.449,0.226 2.158,1.191 0.709,2.124 0.129,0.257 0,0.74 0.257,0.74 0.579,-0.129 1.416,-0.966 1.416,-0.966 0.612,-1.672 0,-1.319 1.19,-1.672 0.386,-1.062 0.965,-1.062 1.931,-0.709 1.062,1.062 0.225,0.966 0.965,2.155 -0.837,0.581 -1.321,0.452 -1.673,1.417 0.225,1.19 0.483,1.32 1.673,0.932 1.415,0.484 1.319,-1.061 1.673,-2.123 -0.708,-1.061 0.128,-1.319 0.707,-2.381 -0.707,-1.061 -0.579,-1.544 0.708,-1.898 0.484,0.129 1.094,-0.128 1.449,0.258 0.256,0.096 -1.063,1.062 0.707,1.64 0.835,-1.19 -0.354,-2.476 -0.707,-3.796 -1.32,0.836 -0.129,1.673 0.256,2.864 -1.705,1.061 -1.576,0.354 -3.12,-0.484 -0.482,-0.224 -1.448,-0.482 -1.448,-0.482 -0.128,-1.769 0.258,-2.96 -1.415,-3.571 -0.483,-0.45 -0.741,-1.19 -1.448,-0.45 -0.354,0.353 -0.966,1.415 -0.966,1.415 0.353,0.128 0.708,0.128 0.966,0.482 0.611,1.062 -2.381,2.832 -2.381,2.832 0.096,0.612 0.709,1.094 0.709,1.673 0,0.483 -0.485,1.416 -0.485,1.416 0.355,1.544 0.355,2.156 1.899,2.605 0.611,0.966 0.129,2.993 1.223,1.448 -0.258,-1.19 -0.837,-1.06 -1.223,-2.156 0.484,-1.415 1.706,-2.348 3.121,-2.83 -0.354,-1.448 -1.318,-2.51 -1.673,-4.053 0.355,-2.028 1.319,-1.417 3.604,-1.642 1.897,-1.19 -0.129,-1.447 2.637,-0.482 -0.611,0.835 -1.319,1.287 -2.155,1.898 -0.387,1.062 0.354,0.837 1.19,1.415 0.354,1.191 0.097,1.802 -0.74,2.607 0.258,1.446 0.258,1.898 1.705,1.446 -0.385,-1.093 -0.74,-1.189 -1.447,-0.256 0.354,1.673 1.447,1.673 2.155,0.256 0.225,-0.354 0.355,-0.835 0.709,-1.189 0.127,-0.129 0.482,-0.129 0.706,-0.257 1.803,0.482 0.387,0.257 0,-0.709 -0.224,-1.898 0.13,-2.96 -1.898,-2.123 -1.544,2.252 2.157,3.089 3.83,3.797 1.672,-0.226 2.284,-0.129 3.603,-0.965 0.708,-1.062 0.708,-2.253 0.933,-3.539 1.319,0.45 1.191,1.19 0.964,2.348 0.227,1.094 0.837,1.448 1.191,2.381 -0.354,0.965 -0.354,1.544 -1.415,1.19 -1.93,0.612 -0.965,1.32 0.451,1.673 1.319,-0.836 2.638,0 4.086,-0.482 -0.258,-1.062 -1.545,-2.735 -2.381,-3.571 0.353,-1.062 0.836,-1.287 1.897,-0.934 0.129,0.225 0.226,0.708 0.484,0.708 0.708,0 0.482,-1.319 0.224,-1.415 -0.353,-0.258 -0.933,-0.354 -1.415,-0.484 -0.61,-0.224 -1.447,-0.964 -1.447,-0.964 -0.355,-1.062 0.257,-1.062 1.19,-1.416 0.964,0.129 3.12,0.354 1.448,1.416 0.482,2.155 2.379,0.257 4.052,1.448 -0.095,0.354 0,0.707 -0.224,0.932 -1.319,2.028 -1.449,-3.313 -1.93,-4.022 -0.097,-0.256 -0.45,-0.128 -0.709,-0.256 -0.578,0.482 -1.447,1.093 -0.707,1.898 0.353,0.482 1.416,1.448 1.416,1.448 0,0.225 -0.097,2.606 0.739,3.087 0.483,0.226 1.415,0.452 1.415,0.452 0.386,0.965 0.13,1.544 -0.932,1.189 -0.483,-1.543 -1.931,-2.734 -2.412,-4.278 -0.226,-2.124 -0.355,-4.376 -1.673,-6.177 -0.226,-0.805 -0.709,-1.641 -1.192,-2.349 -0.836,0.804 -0.61,1.544 -1.673,1.899 -0.707,1.19 -1.447,2.251 -1.929,3.539 -0.838,-0.58 -0.838,-1.062 -1.416,-1.899 -0.741,0.965 -1.094,0.483 -2.412,0.74 -0.099,0.225 -0.453,0.933 -0.453,0.707 0,-0.482 0.453,-1.447 0.453,-1.447 2.412,0.611 1.221,-1.64 2.638,-2.605 0.127,0 1.447,0.353 1.447,0.707 0,0.258 -0.483,-0.097 -0.708,-0.225 -0.387,-0.129 -0.837,-0.129 -1.224,-0.225 -0.095,-0.257 -0.224,-0.483 -0.224,-0.741 -0.13,-1.544 0,-3.088 -0.258,-4.503 -0.096,-0.484 -0.708,0.836 -1.191,0.964 -0.933,-0.353 -1.189,-0.128 -0.48,-1.672 0.255,-0.483 1.093,-0.483 1.446,-0.708 0.483,-0.258 1.448,-0.965 1.448,-0.965 2.38,0.257 1.77,0.61 3.571,1.19 1.448,-0.225 1.674,-1.19 3.122,-1.64 1.898,0.225 2.637,0.45 4.052,-0.484 0.484,-1.801 1.095,-1.448 2.898,-1.19 1.544,-0.482 1.544,-0.836 2.605,0.708 0.385,1.416 -0.836,1.544 0.739,1.898 1.063,0.708 0.58,1.062 -0.256,1.899 -0.098,-0.226 -0.226,-0.708 -0.483,-0.708 -0.225,0 -0.225,0.482 -0.451,0.708 -0.482,0.353 -1.447,0.964 -1.447,0.964 -0.484,2.478 -2.382,1.416 -4.311,3.314 0.611,0.966 0.836,1.062 1.929,0.709 -0.61,-1.674 0.226,0.257 -0.964,-1.192 -0.74,-0.836 -0.965,-2.251 -1.449,-3.313 0.966,-1.417 2.156,-0.482 3.121,0.482 -0.708,1.063 -1.931,1.063 -0.257,2.125 1.802,-0.58 0.964,-0.355 2.413,-0.709 1.062,0.225 1.544,0.354 1.899,1.415 -2.028,1.32 -2.028,0.355 -3.088,2.607 1.317,0.837 1.897,0.483 2.154,-0.933 -0.385,-1.898 -0.74,-1.191 -1.673,-2.606 0.354,-1.448 0.708,-1.191 2.124,-1.448 -0.58,-0.804 -0.933,-1.062 -1.898,-1.415 -0.355,-1.191 -0.226,-1.899 -1.192,-2.831 0.225,-1.449 0,-1.803 2.157,-0.966 0.225,0.129 0.837,1.544 0.933,1.673 1.319,1.544 5.051,1.062 6.241,1.189 0.965,0.581 1.32,0.935 0.225,1.641 -0.934,-0.578 -0.836,-1.286 -1.898,-0.932 -1.801,1.77 -0.128,2.027 -3.345,2.382 -0.387,0.353 -1.319,1.06 -0.966,1.415 0.354,0.354 1.448,0.482 1.448,0.482 2.122,-0.611 1.673,-3.571 0.449,-5.244 -1.061,1.544 0.259,2.606 -1.897,3.089 -4.44,-0.354 -2.155,0.258 -4.086,-1.641 -0.354,-0.965 -0.933,-1.448 -1.415,-2.381 -1.319,0.353 -2.768,0.708 -4.087,1.189 0.611,0.935 1.931,1.546 2.896,2.125 0.579,0.966 0.579,1.319 -0.483,1.673 -0.482,0.708 -0.482,2.124 0.483,0.708 -0.483,-0.612 -0.965,-2.156 -0.965,-2.156 0.837,-0.225 1.318,-0.709 2.156,-0.933 1.672,1.19 -0.129,0.129 3.828,0.708 0.483,0.128 1.416,0.482 1.416,0.482 2.638,-0.611 -0.096,2.831 2.895,3.797 0.483,-1.416 1.545,-0.354 2.382,0.225 0.48,-0.837 1.093,-0.933 1.447,-1.899 -0.129,-0.932 -1.094,-2.831 0.225,-2.38 1.447,1.094 2.026,0.741 2.413,-0.933 -1.093,-3.088 1.416,-2.96 3.57,-3.088 -1.061,-1.545 -1.061,-2.735 -3.118,-3.089 -0.356,-1.319 -1.418,-1.673 -2.383,-2.606 -0.482,-1.448 -0.836,-1.802 0.484,-2.606 2.863,0.579 -0.354,0.579 -0.966,0.45 -0.836,-1.287 -1.672,-1.769 -2.863,-2.606 -0.129,-0.353 -0.612,-0.579 -0.482,-0.934 0.128,-0.384 2.991,-1.093 0.964,-0.738 -0.611,0.128 -1.094,0.128 -1.673,0.256 0.579,2.735 0.709,1.899 -2.412,2.381 -0.579,1.898 -0.226,1.77 1.671,2.349 -0.352,-1.061 -0.708,-1.545 -1.415,-0.451 0.484,1.286 1.32,0.709 1.899,2.349 -3.089,0.385 -3.089,-0.707 -6.21,-0.933 -0.611,-1.898 0,-1.673 1.898,-1.416 0.838,0.451 1.449,1.062 2.413,1.416 0.354,1.191 2.156,1.77 3.347,2.124 -0.708,0.739 -1.545,1.19 -0.259,1.673 1.32,-1.898 1.095,-0.837 0.741,-3.314 -0.964,0.225 -1.577,0.708 -2.414,0.933 -1.189,1.801 1.095,0.965 1.932,0.708 0.482,0.739 0.482,2.026 0.965,0.739 -0.129,-1.189 -0.258,-3.217 -1.447,-1.447 -0.226,1.447 -0.837,2.156 0.223,2.863 0.387,-0.129 0.613,-0.258 0.966,-0.258 0.258,0 0.611,0.386 0.739,0.258 0.355,-0.354 0.452,-1.416 0.452,-1.416 1.092,0.354 1.319,-0.257 1.671,-1.189 -0.931,-0.612 -1.285,-0.966 -0.224,-1.674 1.674,1.062 0.838,0.708 2.156,1.191 1.545,-0.354 0.611,-0.965 1.899,-1.673 0.482,-0.225 1.446,-0.483 1.446,-0.483 2.511,0.354 2.285,0.258 2.639,2.639 0.835,-0.612 0.835,-1.095 1.448,-1.899 -1.576,-0.482 -0.836,-1.898 -2.156,-2.381 -0.482,1.287 0,2.476 -1.672,3.089 -1.578,-0.483 -1.223,-3.089 -1.705,-4.537 0.611,-1.641 0.964,-1.159 -0.226,-1.897 -0.966,0.61 -0.836,1.319 -1.898,0.964 0.579,-2.155 1.062,0.129 1.19,0.933 0.934,-0.354 0.934,-0.804 1.898,-1.159 1.449,0.451 0,1.062 -0.708,1.417 -1.092,1.545 0.484,2.38 1.674,3.089 0.354,4.021 0.836,2.959 4.535,2.606 0.485,-1.544 -0.224,-2.253 -1.672,-2.606 -0.579,-0.837 -0.708,-1.416 -0.964,-2.381 0.385,-0.966 0.868,-0.837 1.704,-1.416 1.673,0.096 2.735,-0.258 3.345,1.416 -2.154,1.415 -1.447,-1.416 -2.895,-2.381 -0.932,0.354 -1.063,0.707 -1.416,1.673 0.484,1.286 1.803,0.579 -0.256,-0.708 0.386,-1.093 0.965,-1.093 1.93,-0.709 0.709,1.159 0.354,2.832 1.674,3.315 1.446,-0.225 1.446,-0.708 2.378,-1.673 -0.579,-1.77 -0.579,-1.287 -1.897,-2.124 -1.19,-1.801 0.227,-2.252 -2.413,-1.897 -0.836,0.836 -1.063,1.414 -2.154,0.707 -0.098,-0.257 -0.354,-0.482 -0.452,-0.707 -0.128,-0.258 -0.128,-0.483 -0.257,-0.708 -0.225,-0.484 -0.965,-1.448 -0.965,-1.448 -1.544,0.258 -2.252,1.19 -3.827,1.673 -0.935,-0.611 -1.418,-1.319 -2.159,-2.155 -0.449,-1.416 0.485,-1.642 1.707,-2.35 0.452,-0.257 1.416,-0.482 1.416,-0.482 -1.191,-0.708 -0.484,-0.354 -2.157,-0.964 -0.225,-0.098 -0.706,-0.227 -0.706,-0.227 -1.191,0.354 -1.802,0.933 -2.158,2.123 1.064,0.837 2.512,2.157 3.83,2.64 0.707,0.225 2.155,0.706 2.155,0.706 -0.353,2.736 -1.801,3.926 -3.827,5.696 -0.709,0.707 -2.158,2.123 -2.158,2.123 -0.225,0.611 -0.61,1.094 -0.706,1.673 -0.258,1.416 2.864,2.509 3.828,2.864 0.708,0.707 1.062,1.189 1.415,2.123 0.484,3.925 1.319,3.217 3.605,5.469 0.353,1.191 0.707,0.354 1.672,0 -0.128,-0.708 0,-1.416 -0.256,-2.123 -0.452,-1.319 -1.771,1.641 -1.899,1.899 0.611,0.803 1.19,0.933 1.899,1.639 0.256,1.192 0.61,1.32 1.704,1.674 0.708,-0.708 0.837,-1.319 1.673,-1.898 1.19,0.129 4.666,1.062 5.02,0 -0.354,-0.966 -0.967,-1.062 -1.449,-1.899 -1.544,0.484 -1.544,2.028 -0.224,2.831 0.354,0.966 1.19,1.32 0,1.674 0.354,2.155 1.06,1.19 3.571,1.415 -0.226,1.093 0.128,0.965 -0.483,0.965" />
        <path
           inkscape:connector-curvature="0"
           id="path456"
           style="fill:#bbe0e3;fill-opacity:1;fill-rule:evenodd;stroke:none"
           d="m 430.764,620.488 c 0.291,0.484 -0.255,0.741 0.226,0.258 0.065,-0.064 0.194,-0.128 0.322,-0.194 0.258,0.484 -0.257,0.934 -0.803,1.159 -0.547,-0.225 -0.194,-0.482 -0.323,-1.029 0.129,-0.451 0.194,-0.643 0.708,-0.515 0.418,0.675 0.356,-0.128 0.611,0.515 -0.386,0.354 -0.321,0.547 -0.515,1.029 -0.547,-0.289 0.065,-1.093 0.387,-1.352 -0.127,-0.674 0,-0.482 -0.613,0.129" />
        <path
           inkscape:connector-curvature="0"
           id="path458"
           style="fill:none;stroke:#000000;stroke-width:0.38;stroke-linecap:round;stroke-linejoin:round;stroke-miterlimit:10;stroke-dasharray:none;stroke-opacity:1"
           d="m 430.764,620.488 c 0.291,0.484 -0.255,0.741 0.226,0.258 0.065,-0.064 0.194,-0.128 0.322,-0.194 0.258,0.484 -0.257,0.934 -0.803,1.159 -0.547,-0.225 -0.194,-0.482 -0.323,-1.029 0.129,-0.451 0.194,-0.643 0.708,-0.515 0.418,0.675 0.356,-0.128 0.611,0.515 -0.386,0.354 -0.321,0.547 -0.515,1.029 -0.547,-0.289 0.065,-1.093 0.387,-1.352 -0.127,-0.674 0,-0.482 -0.613,0.129 z" />
        <path
           inkscape:connector-curvature="0"
           id="path460"
           style="fill:#bbe0e3;fill-opacity:1;fill-rule:evenodd;stroke:none"
           d="m 435.527,621.1 c 0.129,0.804 0.193,0.129 0.418,-0.193 1.063,0.129 0.515,0.387 0.193,1.062 -0.418,-0.547 0.322,-0.804 -0.741,-1.417 0.066,-0.128 0,-0.385 0.13,-0.449 0.997,-0.483 0.997,0.128 0.064,0.256 -0.321,0.387 -1.253,0.741 -0.064,0.741" />
        <path
           inkscape:connector-curvature="0"
           id="path462"
           style="fill:none;stroke:#000000;stroke-width:0.38;stroke-linecap:round;stroke-linejoin:round;stroke-miterlimit:10;stroke-dasharray:none;stroke-opacity:1"
           d="m 435.527,621.1 c 0.129,0.804 0.193,0.129 0.418,-0.193 1.063,0.129 0.515,0.387 0.193,1.062 -0.418,-0.547 0.322,-0.804 -0.741,-1.417 0.066,-0.128 0,-0.385 0.13,-0.449 0.997,-0.483 0.997,0.128 0.064,0.256 -0.321,0.387 -1.253,0.741 -0.064,0.741 z" />
        <path
           inkscape:connector-curvature="0"
           id="path464"
           style="fill:#000000;fill-opacity:1;fill-rule:evenodd;stroke:none"
           d="m 471.593,616.017 c -1.384,0 -2.478,-1.062 -2.478,-2.348 0,-1.32 1.094,-2.35 2.478,-2.35 1.383,0 2.477,1.03 2.477,2.35 0,1.286 -1.094,2.348 -2.477,2.348" />
        <path
           inkscape:connector-curvature="0"
           id="path466"
           style="fill:none;stroke:#000000;stroke-width:0.38;stroke-linecap:round;stroke-linejoin:round;stroke-miterlimit:10;stroke-dasharray:none;stroke-opacity:1"
           d="m 471.593,616.017 c -1.384,0 -2.478,-1.062 -2.478,-2.348 0,-1.32 1.094,-2.35 2.478,-2.35 1.383,0 2.477,1.03 2.477,2.35 0,1.286 -1.094,2.348 -2.477,2.348 z" />
        <text
           id="text470"
           style="font-style:italic;font-variant:normal;font-size:6.43454981px;font-family:'Times New Roman';-inkscape-font-specification:TimesNewRomanPS-ItalicMT;writing-mode:lr-tb;fill:#000000;fill-opacity:1;fill-rule:nonzero;stroke:none;stroke-width:0.99999225"
           transform="scale(0.99999223,-1.0000078)"
           x="403.77625"
           y="-710.69629">
          <tspan
             id="tspan468"
             y="-710.69629"
             x="403.77625"
             style="stroke-width:0.99999225">t</tspan>
        </text>
        <text
           id="text474"
           style="font-style:italic;font-variant:normal;font-size:4.27899981px;font-family:'Times New Roman';-inkscape-font-specification:TimesNewRomanPS-ItalicMT;writing-mode:lr-tb;fill:#000000;fill-opacity:1;fill-rule:nonzero;stroke:none"
           transform="scale(1,-1)"
           x="405.5751"
           y="-709.09229">
          <tspan
             id="tspan472"
             y="-709.09229"
             x="405.5751">i</tspan>
        </text>
        <text
           id="text478"
           style="font-style:italic;font-variant:normal;font-size:6.43454981px;font-family:'Times New Roman';-inkscape-font-specification:TimesNewRomanPS-ItalicMT;writing-mode:lr-tb;fill:#000000;fill-opacity:1;fill-rule:nonzero;stroke:none;stroke-width:0.99999225"
           transform="scale(0.99999223,-1.0000078)"
           x="415.16544"
           y="-706.41693">
          <tspan
             id="tspan476"
             y="-706.41693"
             x="415.16544"
             style="stroke-width:0.99999225">t</tspan>
        </text>
        <text
           id="text482"
           style="font-style:italic;font-variant:normal;font-size:4.27899981px;font-family:'Times New Roman';-inkscape-font-specification:TimesNewRomanPS-ItalicMT;writing-mode:lr-tb;fill:#000000;fill-opacity:1;fill-rule:nonzero;stroke:none"
           transform="scale(1,-1)"
           x="416.96411"
           y="-704.81403">
          <tspan
             id="tspan480"
             sodipodi:role="line"
             y="-704.81403"
             x="416.96411 418.16138 421.0574">i+2</tspan>
        </text>
        <text
           id="text486"
           style="font-variant:normal;font-weight:normal;font-size:6.43454981px;font-family:'Times New Roman';-inkscape-font-specification:TimesNewRomanPSMT;writing-mode:lr-tb;fill:#000000;fill-opacity:1;fill-rule:nonzero;stroke:none;stroke-width:0.99999225"
           transform="scale(0.99999223,-1.0000078)"
           x="424.27051"
           y="-706.41693">
          <tspan
             id="tspan484"
             sodipodi:role="line"
             y="-706.41693"
             x="424.27051 426.07153"
             style="stroke-width:0.99999225">to</tspan>
        </text>
        <text
           id="text490"
           style="font-style:italic;font-variant:normal;font-size:6.43454981px;font-family:'Times New Roman';-inkscape-font-specification:TimesNewRomanPS-ItalicMT;writing-mode:lr-tb;fill:#000000;fill-opacity:1;fill-rule:nonzero;stroke:none;stroke-width:0.99999225"
           transform="scale(0.99999223,-1.0000078)"
           x="430.89874"
           y="-706.41693">
          <tspan
             id="tspan488"
             y="-706.41693"
             x="430.89874"
             style="stroke-width:0.99999225">t</tspan>
        </text>
        <text
           id="text494"
           style="font-style:italic;font-variant:normal;font-size:4.27899981px;font-family:'Times New Roman';-inkscape-font-specification:TimesNewRomanPS-ItalicMT;writing-mode:lr-tb;fill:#000000;fill-opacity:1;fill-rule:nonzero;stroke:none"
           transform="scale(1,-1)"
           x="432.69711"
           y="-704.81403">
          <tspan
             id="tspan492"
             sodipodi:role="line"
             y="-704.81403"
             x="432.69711 433.8905 436.78268">i+5</tspan>
        </text>
        <path
           inkscape:connector-curvature="0"
           id="path496"
           style="fill:#000000;fill-opacity:1;fill-rule:nonzero;stroke:none"
           d="m 426.165,712.181 0.258,5.985 0.064,0.128 0.16,0.065 0.128,-0.065 0.066,-0.16 -0.29,-5.953 -0.064,-0.161 -0.129,-0.032 -0.16,0.064 z m -1.158,5.502 1.737,3.153 1.48,-3.282" />
        <text
           id="text500"
           style="font-style:italic;font-variant:normal;font-size:6.43454981px;font-family:'Times New Roman';-inkscape-font-specification:TimesNewRomanPS-ItalicMT;writing-mode:lr-tb;fill:#000000;fill-opacity:1;fill-rule:nonzero;stroke:none;stroke-width:0.99999225"
           transform="scale(0.99999223,-1.0000078)"
           x="454.28763"
           y="-715.32794">
          <tspan
             id="tspan498"
             y="-715.32794"
             x="454.28763"
             style="stroke-width:0.99999225">t</tspan>
        </text>
        <text
           id="text504"
           style="font-style:italic;font-variant:normal;font-size:4.27899981px;font-family:'Times New Roman';-inkscape-font-specification:TimesNewRomanPS-ItalicMT;writing-mode:lr-tb;fill:#000000;fill-opacity:1;fill-rule:nonzero;stroke:none"
           transform="scale(1,-1)"
           x="456.08719"
           y="-713.7251">
          <tspan
             id="tspan502"
             y="-713.7251"
             x="456.08719">i</tspan>
        </text>
        <text
           id="text508"
           style="font-variant:normal;font-weight:normal;font-size:4.27899981px;font-family:'Times New Roman';-inkscape-font-specification:TimesNewRomanPSMT;writing-mode:lr-tb;fill:#000000;fill-opacity:1;fill-rule:nonzero;stroke:none"
           transform="scale(1,-1)"
           x="457.27719"
           y="-713.7251">
          <tspan
             id="tspan506"
             sodipodi:role="line"
             y="-713.7251"
             x="457.27719 459.69012">+8</tspan>
        </text>
        <path
           inkscape:connector-curvature="0"
           id="path510"
           style="fill:none;stroke:#000000;stroke-width:0.38;stroke-linecap:round;stroke-linejoin:round;stroke-miterlimit:10;stroke-dasharray:none;stroke-opacity:1"
           d="m 405.156,717.941 h -4.537" />
        <path
           inkscape:connector-curvature="0"
           id="path512"
           style="fill:#000000;fill-opacity:1;fill-rule:evenodd;stroke:none"
           d="m 425.456,725.533 c -0.707,0 -1.254,-0.579 -1.254,-1.255 0,-0.675 0.547,-1.223 1.254,-1.223 0.677,0 1.223,0.548 1.223,1.223 0,0.676 -0.546,1.255 -1.223,1.255" />
        <path
           inkscape:connector-curvature="0"
           id="path514"
           style="fill:none;stroke:#000000;stroke-width:0.38;stroke-linecap:round;stroke-linejoin:round;stroke-miterlimit:10;stroke-dasharray:none;stroke-opacity:1"
           d="m 425.456,725.533 c -0.707,0 -1.254,-0.579 -1.254,-1.255 0,-0.675 0.547,-1.223 1.254,-1.223 0.677,0 1.223,0.548 1.223,1.223 0,0.676 -0.546,1.255 -1.223,1.255 z" />
      </g>
    </g>
  </g>
</svg>
